/* XPM */
static char *_750945f2bca42bcbe0e052206e3c4758QyHKpgmd6CzlWd5[] = {
/* columns rows colors chars-per-pixel */
"32 32 214 2 ",
"   c None",
".  c #FFA200",
"X  c #FFA800",
"o  c #FFA300",
"O  c #FFA400",
"+  c #FFC100",
"@  c #FFA900",
"#  c #F09D00",
"$  c #FFC800",
"%  c #FFA700",
"&  c #BD8A2A",
"*  c #FAA400",
"=  c #E69700",
"-  c #A56A00",
";  c #EF9D00",
":  c #F9A300",
">  c #FFAF00",
",  c #FFAD00",
"<  c #FFA300",
"1  c #FF9C00",
"2  c #FFA200",
"3  c #FFA600",
"4  c #FFA700",
"5  c #FFA700",
"6  c #FFA700",
"7  c #FFA800",
"8  c #FFA200",
"9  c #FFA501",
"0  c #FFBF49",
"q  c #FECA66",
"w  c #FCA500",
"e  c #FCA500",
"r  c #FDA600",
"t  c #FFA800",
"y  c #FFA800",
"u  c #FF9F00",
"i  c #FEB01D",
"p  c None",
"a  c #F4A000",
"s  c #FFA800",
"d  c #F29B00",
"f  c #F2A81B",
"g  c #FBD48B",
"h  c #E99901",
"j  c #FEA700",
"k  c #F19D00",
"l  c #E79701",
"z  c #FFA800",
"x  c #FFA400",
"c  c #F1A618",
"v  c #EF9C00",
"b  c #FFA700",
"n  c #F2A20A",
"m  c #DB9614",
"M  c #FFB100",
"N  c #FFA700",
"B  c #EFC576",
"V  c #FF9E00",
"C  c #F2BA51",
"Z  c #FFA000",
"A  c #F0A10D",
"S  c #FFA700",
"D  c #FFA800",
"F  c #F6A100",
"G  c #E99700",
"H  c #FFA800",
"J  c #FDA600",
"K  c #E79700",
"L  c #F39F00",
"P  c #FFA700",
"I  c #FBA400",
"U  c #EC9A00",
"Y  c #F39F00",
"T  c #FCA500",
"R  c #FEA600",
"E  c #F7A100",
"W  c #ED9B00",
"Q  c #FBA500",
"!  c #FFA900",
"~  c #FFA700",
"^  c #FCA500",
"/  c #F29E00",
"(  c #F29F00",
")  c #FBA400",
"_  c #FFA800",
"`  c #FFA600",
"'  c #FFA700",
"]  c #FEA700",
"[  c #FBA400",
"{  c #FBA400",
"}  c #FBA400",
"|  c #FBA400",
" . c #FCA500",
".. c #FFA800",
"X. c #FFA800",
"o. c #FFA800",
"O. c #FFA800",
"+. c #FFA800",
"@. c #FDAC13",
"#. c #FCA400",
"$. c #FCE6BE",
"%. c #FBEED7",
"&. c #F4CD82",
"*. c #E69906",
"=. c #E39400",
"-. c #E39500",
";. c #E89800",
":. c #FAEDD4",
">. c #FAEDD5",
",. c #F8E5C1",
"<. c #E6B048",
"1. c #CA8503",
"2. c #C07F03",
"3. c #C17F03",
"4. c #CB8602",
"5. c #F4C468",
"6. c #F9ECD4",
"7. c #FAECD4",
"8. c #E0AB46",
"9. c #C17F01",
"0. c #BC7C03",
"q. c #BC7C04",
"w. c #BB7C04",
"e. c #C28003",
"r. c #F6DFB3",
"t. c #FAEED6",
"y. c #EAB145",
"u. c #C88200",
"i. c #BB7B02",
"p. c #BC7C02",
"a. c #BD7C03",
"s. c #BD7D03",
"d. c #C98402",
"f. c #F2CD87",
"g. c #F7E0B6",
"h. c #ECB246",
"j. c #E09303",
"k. c #C48919",
"l. c #C1881C",
"z. c #BE8519",
"x. c #B98014",
"c. c #C68D21",
"v. c #B67D12",
"b. c #AA7105",
"n. c #C08619",
"m. c #F29E00",
"M. c #E5990B",
"N. c #E79E14",
"B. c #E59500",
"V. c #E49D16",
"C. c #E1D2B7",
"Z. c #E0DACD",
"A. c #E2DBCD",
"S. c #C8C1B4",
"D. c #575043",
"F. c #70695B",
"G. c #3F382B",
"H. c #292214",
"J. c #CAC4B9",
"K. c #E49500",
"L. c #E5990A",
"P. c #E5CEA2",
"I. c #E5E7EA",
"U. c #E6E7E8",
"Y. c #CCCCCD",
"T. c #181919",
"R. c black",
"E. c #18191A",
"W. c #CCC9C4",
"Q. c #F19E00",
"!. c #E59600",
"~. c #E59400",
"^. c #E5AC42",
"/. c #E5DED2",
"(. c #E5E6E8",
"). c #D8D8D8",
"_. c #7E7E7E",
"`. c #717171",
"'. c #717272",
"]. c #7E7F81",
"[. c #D8BC88",
"{. c #E69600",
"}. c #E5B04C",
"|. c #E4DAC7",
" X c #E5E6E7",
".X c #E8EAED",
"XX c #E9EBEE",
"oX c #E9E6E1",
"OX c #E8CD99",
"+X c #E59D14",
"@X c #EE9C00",
"#X c #E19300",
"$X c #DC9002",
"%X c #E7A21F",
"&X c #E5BA68",
"*X c #E4BD73",
"=X c #E5BE74",
"-X c #E4AE46",
";X c #E4980A",
":X c #CA8400",
">X c #845600",
",X c #C98300",
"<X c #D68A00",
"1X c #E49400",
"2X c #EC9A00",
"3X c #D78D00",
"4X c #8A5A00",
"5X c #895900",
"6X c #B87800",
"7X c #E99900",
"8X c #EA9900",
"9X c #E99800",
"0X c #ED9B00",
"qX c white",
/* pixels */
"                                                                ",
"                                                                ",
"                                                                ",
"                                                                ",
"                                                                ",
"                                                                ",
"                                                                ",
"                                                                ",
"                                                                ",
"                  . < 1 2 3 4 5 6 7 X                           ",
"                o 8 9 0 q @.#.w e r t y X                       ",
"              O u i p $.%.&.*.=.-.;.a s + @                     ",
"            # d f g :.>.,.<.1.2.3.2.4.h j $ X                   ",
"          % & k 5.6.7.,.8.9.0.q.q.q.w.e.l z *                   ",
"          % x c r.t.,.y.u.i.p.p.a.p.s.s.d.v =                   ",
"          % b n f.g.h.j.k.l.l.z.x.c.v.b.n.m M %                 ",
"          % N m.M.N.B.V.C.Z.A.S.D.F.G.H.J.B V %                 ",
"          % N m.K.K.K.L.P.I.U.Y.T.R.R.E.W.C Z %                 ",
"          % 5 Q.K.!.!.~.^./.(.)._.`.'.].[.A S %                 ",
"          % D F {.K.!.K.B.}.|. X.XXXoXOX+XG - %                 ",
"          % H J @XK.K.!.#X$X%X&X*X=X-X;XK L ;                   ",
"            % P I ;.K.{.:X>X,X<X~.1X1XU Y T :                   ",
"            % > R E 2X!.3X4X5X6X{.K.W Q ! X                     ",
"              X , ~ ^ / 7X8X8X9X0X( ) _ %                       ",
"                % ` ' ] [ { } |  ...H X                         ",
"                      X 7 X.o.O.+.X                             ",
"                                                                ",
"                                                                ",
"                                                                ",
"                                                                ",
"                                                                ",
"                                                                "
};
