/* XPM */
static char *xpm_[] = {
/* columns rows colors chars-per-pixel */
"32 32 42 1 ",
"  c black",
". c #02121D",
"X c #031B29",
"o c #052031",
"O c #05263B",
"+ c #072D46",
"@ c #033D5F",
"# c #0A4164",
"$ c #0A476B",
"% c #03507E",
"& c #04507F",
"* c #464646",
"= c #990030",
"- c #ED1C24",
"; c #FF7E00",
": c #0A5483",
"> c #0A5585",
", c #085787",
"< c #0D5A87",
"1 c #055888",
"2 c #0E669A",
"3 c #0570B2",
"4 c #0471B4",
"5 c #0673B7",
"6 c #0975B9",
"7 c #0877BB",
"8 c #0D77BA",
"9 c #0E78BB",
"0 c #0979BD",
"q c #0E78BC",
"w c #0F78BC",
"e c #0B7CBC",
"r c #117ABE",
"t c #137ABF",
"y c #0B7CC1",
"u c #0C7CC1",
"i c #1381C2",
"p c #118BD4",
"a c #128CD5",
"s c #1492DC",
"d c #1694DE",
"f c gray90",
/* pixels */
"OOOOOOOOOOOOOOOOOOOOOOOOOOOOOOOO",
"OOOr###O#####OpieeeeesO1111###6O",
"OOq####O#####O0ieeeeesO111####6O",
"Or#####O#####O5ieeeeesOq######6O",
"O######O#####O6ieeeeesO######r6O",
"Oq8rqr8Oqqqr9OasssssspO88rqqrqqO",
"OOOOOOOOOOOOOOOOOOOOOOOOOOOOOOOO",
"O###838#####q5555O9O11111urOO##O",
"O####Ow#####-------O#######OO##O",
"O####Ow####-   -----+++####6O##O",
"O666#Ow###-    ;====-+o####rO##O",
"OOOOOOOOO-    ;======-OOOOOOO##O",
"Os;;urtt-    ;========-<iy0;;##O",
"OsO#;u#r-   -=========-<0e;;O11O",
"OsO#;###-----**** ff **<ee;eO11O",
"OsO#;###-----****    **<ee;eO11O",
"OOOOO;OO------***    *-ie;eeOOOO",
"O#####;;-------******--;;sssOyyO",
"O######u--------****---XOOOOO55O",
"O########----- -------O>#######O",
"OOOOOOOOXO----    ---&X+#######O",
"O0eO111#+.s---------:%.q8r9869rO",
"OeeO####+O$#-------XX.OOOOOOOOOO",
"OeeO1###+O$oo+;;;;#++>>11111111O",
"OeeO1####O2+++;;;;#++@1##111##rO",
"OeeO#####Os;;;#OO+;;;########wOO",
"OeeO#####Od####OO###########rOOO",
"OeeO#####OOOOOOOOOOOOOOOOOOOOOOO",
"OOeO1####Oq6OOOO7####1111Ose0diO",
"OueO11##1Oq############11Ose9eeO",
"O10O111##Oq############11OseeeeO",
"OOOOOOOOOOOOOOOOOOOOOOOOOOOOOOOO"
};
