/* XPM */
static char *bf0b1855a1ce4adaf9b1665b3a88be39P96hwvZeYkPCtzvo[] = {
/* columns rows colors chars-per-pixel */
"32 32 220 2 ",
"   c black",
".  c #FFA200",
"X  c #FFA800",
"o  c #FFA300",
"O  c #FFA400",
"+  c #FF9900",
"@  c #F09D00",
"#  c #FF5800",
"$  c #FFA100",
"%  c #FFA700",
"&  c #BD8A2A",
"*  c #FFAF1A",
"=  c #F9C86A",
"-  c #A56A00",
";  c #EF9D00",
":  c #F9A300",
">  c #FFAF00",
",  c #FFAD00",
"<  c #FFA300",
"1  c #FF9C00",
"2  c #FFA200",
"3  c #FFA600",
"4  c #FFA700",
"5  c #FFA700",
"6  c #FFA700",
"7  c #FFA800",
"8  c #FFA200",
"9  c #FFA501",
"0  c #FFBF49",
"q  c #FECA66",
"w  c #FCA400",
"e  c #FBA400",
"r  c #FCA500",
"t  c #FFA600",
"y  c #FFAB00",
"u  c #FF9F00",
"i  c #FEB01D",
"p  c None",
"a  c #F7A50D",
"s  c #FEA300",
"d  c #F29B00",
"f  c #F2A81B",
"g  c #FBD48B",
"h  c #F5B946",
"j  c #FEA503",
"k  c #F19D00",
"l  c #F6BF58",
"z  c #FFA905",
"x  c #FFA400",
"c  c #F1A618",
"v  c #FCBF4A",
"b  c #FFA700",
"n  c #F2A20A",
"m  c #F3D59B",
"M  c #FF8B00",
"N  c #FFA700",
"B  c #F0CA83",
"V  c #FF9B00",
"C  c #F0B84E",
"Z  c #FFA000",
"A  c #EFA00C",
"S  c #FFA700",
"D  c #FFA800",
"F  c #F6A100",
"G  c #E99700",
"H  c #FFA800",
"J  c #FDA600",
"K  c #E79600",
"L  c #F39F00",
"P  c #FFA700",
"I  c #EC9A00",
"U  c #F39F00",
"Y  c #FCA500",
"T  c #FEA600",
"R  c #F7A100",
"E  c #ED9B00",
"W  c #FBA500",
"Q  c #FFA900",
"!  c #FFA700",
"~  c #FCA500",
"^  c #F29F00",
"/  c #F39F00",
"(  c #FBA400",
")  c #FFA800",
"_  c #FFA600",
"`  c #FFA700",
"'  c #FEA700",
"]  c #FCA500",
"[  c #FDA600",
"{  c #FDA700",
"}  c #FCA700",
"|  c #FCA600",
" . c #FFA800",
".. c #FFA800",
"X. c #FFA800",
"o. c #FFA800",
"O. c #FFA800",
"+. c #FDAC13",
"@. c #FCA400",
"#. c #FCE6BE",
"$. c #FBEED7",
"%. c #F4CC81",
"&. c #E89A09",
"*. c #E79F15",
"=. c #E7A018",
"-. c #EDA318",
";. c #FAEDD4",
":. c #FAEDD5",
">. c #F8E4BE",
",. c #ECBA5B",
"<. c #E4BD73",
"1. c #E4D9C2",
"2. c #E4DCCC",
"3. c #E4DCCD",
"4. c #E7CE9F",
"5. c #F4C468",
"6. c #F9ECD4",
"7. c #F8E4BF",
"8. c #EBB959",
"9. c #E4CA97",
"0. c #E4E5E7",
"q. c #E5E6E8",
"w. c #E6E7E8",
"e. c #E6E8EB",
"r. c #E8E0D1",
"t. c #F6DFB3",
"y. c #FAEED6",
"u. c #F8E5C0",
"i. c #EBB244",
"p. c #E4BC71",
"a. c gray90",
"s. c #D8D8D8",
"d. c gray78",
"f. c #C8C8C8",
"g. c #CBCBCB",
"h. c #D8D9DB",
"j. c #EDE1CA",
"k. c #F2CD87",
"l. c #F7E0B6",
"z. c #E49C16",
"x. c #E5E5E7",
"c. c gray91",
"v. c #8B8B8B",
"b. c gray49",
"n. c #818181",
"m. c gray13",
"M. c #7E7E7E",
"N. c #EAE9E8",
"B. c #F29E00",
"V. c #E5990B",
"C. c #E79E14",
"Z. c #E59500",
"A. c #E49E19",
"S. c #E5DDCE",
"D. c #E5E5E6",
"F. c #E7E7E7",
"G. c #898989",
"H. c gray71",
"J. c #B9B9B9",
"K. c gray7",
"L. c gray44",
"P. c #E8EAEC",
"I. c #E49500",
"U. c #E5990A",
"Y. c #E5CDA1",
"T. c #E5E6E9",
"R. c #E9E9E9",
"E. c gray46",
"W. c #101010",
"Q. c gray8",
"!. c black",
"~. c #727273",
"^. c #E9E5DF",
"/. c #F19E00",
"(. c #E59600",
"). c #E59400",
"_. c #E5AC42",
"`. c #E5DED2",
"'. c #E8E9EB",
"]. c #131313",
"[. c gray9",
"{. c #141515",
"}. c #7E7F81",
"|. c #E8CC98",
" X c #E69600",
".X c #E5B14C",
"XX c #E5DCC7",
"oX c #D8D9DA",
"OX c #CBCDD0",
"+X c #CCCDD0",
"@X c #CBC8C3",
"#X c #D8BD88",
"$X c #E59D14",
"%X c #EE9C00",
"&X c #E49400",
"*X c #DE8903",
"=X c #DD9223",
"-X c #DFAE6D",
";X c #E5BD75",
":X c #E6BF75",
">X c #E6AF47",
",X c #E89800",
"<X c #E59700",
"1X c #D37511",
"2X c #AE322E",
"3X c #A82327",
"4X c #AF2F1D",
"5X c #DE8803",
"6X c #EC9A00",
"7X c #CD763D",
"8X c #B3537B",
"9X c #A62756",
"0X c #A7202F",
"qX c #DD8704",
"wX c #DA7E16",
"eX c #C9622D",
"rX c #C85D29",
"tX c #CA5F1A",
"yX c #E99401",
"uX c white",
/* pixels */
"                                                                ",
"                                                                ",
"                                                                ",
"                                                                ",
"                                                                ",
"                                                                ",
"                                                                ",
"                                                                ",
"                                                                ",
"                  . < 1 2 3 4 5 6 7 X                           ",
"                o 8 9 0 q +.@.w e r t y X                       ",
"              O u i p #.$.%.&.*.=.-.a s + .                     ",
"            @ d f g ;.:.>.,.<.1.2.3.4.h j # $                   ",
"          % & k 5.6.;.7.8.9.0.q.w.w.e.r.l z *                   ",
"          % x c t.y.u.i.p.0.a.s.d.f.g.h.j.v =                   ",
"          % b n k.l.i.z.1.x.c.v.b.n.m.M.N.m M %                 ",
"          % N B.V.C.Z.A.S.D.F.G.H.J.K.L.P.B V %                 ",
"          % N B.I.I.I.U.Y.T.R.E.W.Q.!.~.^.C Z %                 ",
"          % 5 /.I.(.(.)._.`.'.M.].[.{.}.|.A S %                 ",
"          % D F  XI.(.I.Z..XXXoXOX+X@X#X$XG - %                 ",
"          % H J %XI.I.(.&X*X=X-X;X:X>XV.K L ;                   ",
"            % P e ,XI.<X1X2X3X4X5XZ.&XI U Y :                   ",
"            % > T R 6X<X7X8X9X0XqX(.E W Q X                     ",
"              X , ! ~ ^ wXeXrXtXyX/ ( ) %                       ",
"                % _ ` ' ] [ { } |  .H X                         ",
"                      X 7 ..X.o.O.X                             ",
"                                                                ",
"                                                                ",
"                                                                ",
"                                                                ",
"                                                                ",
"                                                                "
};
