/* XPM */
static char *xpm_[] = {
/* columns rows colors chars-per-pixel */
"64 64 188 2 ",
"   c #000101",
".  c #07141C",
"X  c #092537",
"o  c #052439",
"O  c #1D4837",
"+  c #2A5D2F",
"@  c #326928",
"#  c #317B35",
"$  c #052B43",
"%  c #0B2D43",
"&  c #062F49",
"*  c #05304B",
"=  c #183446",
"-  c #063452",
";  c #0A3755",
":  c #0A3856",
">  c #08365D",
",  c #083959",
"<  c #143C57",
"1  c #273D4C",
"2  c #093F62",
"3  c #1D5446",
"4  c #0B4559",
"5  c #17425A",
"6  c #1A435D",
"7  c #2F4D51",
"8  c #26485A",
"9  c #1D6045",
"0  c #1D725F",
"q  c #256D44",
"w  c #3C6755",
"e  c #094165",
"r  c #09466C",
"t  c #0C496E",
"y  c #174665",
"u  c #0B4576",
"i  c #094B75",
"p  c #084D78",
"a  c #114C71",
"s  c #0D5279",
"d  c #185378",
"f  c #2D4D62",
"g  c #2C536B",
"h  c #355266",
"j  c #38566A",
"k  c #275776",
"l  c #355A72",
"z  c #0A6371",
"x  c #39667C",
"c  c #297772",
"v  c #475A68",
"b  c #4A5E6B",
"n  c #4F5D6D",
"m  c #546368",
"M  c #486274",
"N  c #596D76",
"B  c #66686C",
"V  c #686E74",
"C  c #727476",
"Z  c #7A797C",
"A  c #837D7B",
"S  c #3C802D",
"D  c #428925",
"F  c #4A9527",
"G  c #509B2A",
"H  c #4DA125",
"J  c #50A627",
"K  c #51A826",
"L  c #35867A",
"P  c #71AA57",
"I  c #4C8A66",
"U  c #519C78",
"Y  c #629362",
"T  c #6FA768",
"R  c #948377",
"E  c #80B962",
"W  c #87AF74",
"Q  c #8BC572",
"!  c #92CF76",
"~  c #9CDC7D",
"^  c #094988",
"/  c #0A5585",
"(  c #085788",
")  c #125C8A",
"_  c #084E94",
"`  c #095797",
"'  c #195A9E",
"]  c #0E6C8A",
"[  c #0B6096",
"{  c #0A649C",
"}  c #176596",
"|  c #08769B",
" . c #0F7C98",
".. c #257993",
"X. c #39789D",
"o. c #0455A6",
"O. c #095BAF",
"+. c #035BB6",
"@. c #025FBC",
"#. c #0767A5",
"$. c #0C6CA8",
"%. c #106BA3",
"&. c #0378A6",
"*. c #1673AA",
"=. c #0F76B5",
"-. c #007FB0",
";. c #0C7CBE",
":. c #147BB7",
">. c #2B7AA9",
",. c #596F8E",
"<. c #4B7C8B",
"1. c #547386",
"2. c #457694",
"3. c #6E7E89",
"4. c #0160C3",
"5. c #0165CC",
"6. c #0482A9",
"7. c #1A84A6",
"8. c #0087B5",
"9. c #078BB7",
"0. c #018EBD",
"q. c #2787A1",
"w. c #3290AF",
"e. c #42859A",
"r. c #5E869D",
"t. c #7D858D",
"y. c #658996",
"u. c #768B98",
"i. c #709298",
"p. c #5091AC",
"a. c #6D92A9",
"s. c #74A4B4",
"d. c #0F82C6",
"f. c #1082C6",
"g. c #0092C3",
"h. c #0096C8",
"j. c #0099CB",
"k. c #1290D9",
"l. c #8C8C8D",
"z. c #938987",
"x. c #9C908D",
"c. c #8D989B",
"v. c #A3938C",
"b. c #A89892",
"n. c #B59F95",
"m. c #A9A19B",
"M. c #B6A097",
"N. c #94A3AC",
"B. c #8BACBA",
"V. c #99B5BE",
"C. c #B7ADA6",
"Z. c #AFB4AC",
"A. c #ACB1B4",
"S. c #C4A79A",
"D. c #C1A89D",
"F. c #C0AAA1",
"G. c #CCB2A6",
"H. c #CFB8AD",
"J. c #D1B2A3",
"K. c #D7B8A9",
"L. c #DCB9AB",
"P. c #C7BDB7",
"I. c #E3BFAE",
"U. c #A1E381",
"Y. c #CDC4BF",
"T. c #D2C0B7",
"R. c #E5C0AF",
"E. c #E0C0B0",
"W. c #ECC5B4",
"Q. c #F1C9B7",
"!. c #F5CCBA",
"~. c #F9CFBC",
"^. c #FCD1BE",
"/. c #A5BCC8",
"(. c #B9BEC1",
"). c #BCC3C9",
"_. c #C8C4C3",
"`. c #D4CCC7",
"'. c #C1CCD3",
"]. c #D3D4D3",
"[. c #D8D6D5",
"{. c gray87",
"}. c #FFD4C1",
"|. c #E2DEDC",
" X c #E4E4E3",
".X c #ECECEC",
"XX c #F5F5F5",
"oX c #FEFEFE",
/* pixels */
"o o o o o o o o o o o o o o o o o o o o o o o o o o o o o o o o o o o o o o o o o o o o o o o o o o o o o o o o o o o o o o o o ",
"$ o o o o $ - , * $ $ $ $ $ o o $ $ $ $ $ $ $ $ $ $ o $ , , e , , , , , , , , , , , 2 , $ $ * * * * * * * * * $ $ $ $ * * - $ o ",
"o o o o o - ( ( r , , , , - $ $ - , , , , , , , , - $ , { =.$.{ { { { { { { { { { $.=.{ , $ e p a v v a i r e , , , , r ( ( - o ",
"o o o $ - r { { p e e e e , $ $ , e e e e e e , j 8 $ e =.k.f.f.;.d.;.;.d.;.;.d.;.d.k.;.2 * p ( g R n.C k p r e e e e p $.{ , o ",
"o o o - ( { ( p r e e e e , $ $ , e e e e e 2 M {.c.% , $.f.f.f.f.5.5.9.;.;.;.;.;.d.k.=.e * p ( d v.!.J.g r e e e e e p $.{ , o ",
"o $ - r { { p 2 2 e e e e , $ $ , e e e e e , N.oX(.% < } :.:.;.7.7.9.5.;.;.X.r.*.d.k.=., * p { ( M Q.E.f e e e e e , p $.{ , o ",
"o - ( { ( p e 2 e e e e e , $ $ , e e e e e y _.oX XA.A.'.'.)./.B.a.e.>.*.*.). XX.d.k.=.e , { $.p g R.W.h e e e e e e p $.{ , o ",
"o , ( { p 2 2 2 2 2 2 e e , $ $ , e e 2 2 e 8 {.oXoXoXoXoXoXoXoXoXoX.X[./.B.XX.XX.d.k.=.e - ( { p h R.W.h e e , e e p ( $.{ , o ",
"o * r p e 2 2 2 2 2 2 2 2 , $ $ , , e e e , b .XoXoXoXoXXX.X].Y._.`.[. XXXoXoX XX.d.k.=.2 $ e p e h W.R.8 e e e , p { :.:.{ , o ",
"o * r p p p p p p p p p p r * * r p p p p p 1.XXoXoXoX.XT.H.R.Q.!.!.Q.E.P.{.oX XX.d.k.=.2 $ e p p l Q.L.k p p p p ( :.9.;.[ , o ",
"o - ( $.$.$.$.$.$.$.$.$.$.( - - ( $.$.$.$.%.u.oXoXoXXXC.E.^.^.}.}.}.}.}.}.I.{.].>.k.k.=.e - ( $.$.2.!.J.} $.$.$.$.$.=.5.;.{ , o ",
"o - ( { $.{ { { { { { $.{ ( - - ( { $.{ { [ N.oXoXoX_.K.}.R.L.}.^.}.}.^.K.!.T.(.} =.=.( - - ( { $.1.^.F.} { { { $.{ { { { ( - o ",
"o $ - , , , 2 , , , , , , - $ $ - , , , , < A.oXoXoXC.W.}.^.^.^.^.}.}.~.R.^.H.m.e e , , $ $ ; , , V }.x., , e , , , , , , - $ o ",
"o o $ $ $ $ $ * - , , , , - * $ $ $ $ $ $ = '.oXoXoXC.W.}.}.}.!.S.S.S.I.}.}.G.l.% * * * * * * * * R !.l., - o o o o $ $ $ $ o o ",
"o $ - , , , , r ( { { { { ( r , , , - 8 w m  XoXoXoX[.G.}.}.}.}.!.L.E.}.}.Q._.3.e p p p p p p p p x.!.3.{ ( * o o $ - , , - $ o ",
"o $ , e e e 2 p { $.{ { =.$.p 2 e 7 Y ! ~ W .XoXoXoXoX`.K.!.}.}.}.}.}.}.W.H. XN r ( ( p ( p ( p ) F.W.X.=.( - o o $ , e e , $ o ",
"o $ , e e e e r p r 2 r $.$.p 4 w Q U.U.~ W [.oXoXoXoXoX|.P.H.L.L.L.J.C.P..X.Xv 2 r r r r r r r h W.G.d p r * o o $ , 2 e , $ o ",
"o $ , e e 2 2 e 2 , $ , { $.i w ! ~ U.U.U.~ W Z.XXXXoXoXoXXX.X|.[.`.[..XoXoX|.O , e e 2 e 2 2 2 V ~.v., 2 2 , - $ $ , e e , $ o ",
"o $ , 2 2 2 2 2 e , $ , { $.g Q ~ U.U.U.! Q ~ E i.).[.XXoXoXoXoXoXoXoXoXXX.XZ.7 ; e e e e e e 8 M.!.N , 2 r ( ( - $ , e e > $ o ",
"o * r p p p p p r , $ ; { [ Y ~ U.U.U.U.T c Q U.L 9.9.w.p.s.B.V.V.V.B.s.p.w.] T 7 2 2 5 6 f m b.^.S.y e 2 p $.{ , $ , e e , $ o ",
"o - ( #.$.$.$.{ p , $ , { k T U.U.U.U.U.T 8.U U.U 0.j.j.h.0.0.0.0.0.g.h.h.j...! L -.| x.J.I.!.^.J.b 2 e 2 p $.$., $ , e e , $ o ",
"o - ( { { { { ( r * $ - ( O F G P E Q ! I g.q.Q U 0.j.j.j.j.j.j.j.j.j.j.j.h.c P c 0.9.m.I.G.b.Z 8 , , , , t ( ( - $ , e e , $ o ",
"o $ - , , , , - * $ o $ , @ J J H G G F 9 9.6.D 0 0.j.j.j.j.j.j.j.j.j.j.j.g.q D O 4 : 1 7 % % $ $ $ $ $ $ * - - $ $ , e e , $ o ",
"o $ , , $ $ - , , , , , ; @ J J K K K F @ ] g.9 7.j.j.j.j.j.j.j.j.j.j.j.j.0.q @ $ * - * $ $ - , , , , , , , , - $ $ , e e , $ o ",
"o , { { , - ( { $.{ { { { @ J J K J J G G 0 h.] g.j.j.j.j.j.j.h.j.j.j.j.j.8.3 d r r ( ( * - ( $.*.*.{ { { { { ( - $ , e e , $ o ",
"o e ;.;.e - ( #.$.=.;.;.:.q H J J J K S q z g.| 8.j.j.j.j.h.j.j.j.j.h.j.j.6.s { p p $.{ , , $.d.f.5.;.;.;.d.;.{ , $ 2 r r 2 * o ",
"o e ;.;.2 $ r p p ( =.=.( 3 G J K K K F  .| 8.6.&.j.j.j.j.j.j.j.h.j.j.j.j.| i p r i $.{ , , $.d.f.9.9.;.;.;.d.{ , * r ( ( r * o ",
"o e =.;.e $ , e e p { { p t S K K K K D 6.9.e.C.e.h.j.j.j.j.j.j.j.h.j.j.j.] , 2 e i $.{ , , $.d.;.;.9.5.;.;.;.{ , * p ( ( p * o ",
"o e =.;.e $ , e e r p p r r 3 F K K J # 6.h.y.}.m.0.j.j.j.j.j.j. .x ..0.j.z 2 2 e i $.{ , , %.f.;.;.;.;.;.;.;.{ , * p ( ( p * o ",
"o e ;.;.e $ , e e e 2 2 e e e O D K H # 9.j.q.R.R.q.j.j.j.j.j.8.C K.v...j.s 2 2 e p $.{ , , $.f.;.;.;.;.;.;.d.{ , * p ( ( p * o ",
"o e ;.;.e $ , e e e e e e e e , 4 + S # 0.j.0.c.^.i.0.j.j.j.j.7.J.^.J.<.g.e e 2 e i $.{ , , *.f.;.;.;.;.;.;.;.{ , * p ( ( p * o ",
"o , { { , $ - , , , , , , , , , , ; < 4 0.j.j.e.W.G.7.j.j.j.g.y.^.C.<.q.9.e e 2 e p $.{ , , *.5.;.;.;.;.;.;.d.{ , $ e p p e * o ",
"o $ , , $ o $ $ $ $ $ $ $ $ $ $ $ $ $ 2 h.j.j.9.c.~.c.9.j.h.e.I.R.e.h.j.-.6 e e 2 p $.{ , , $.d.;.;.;.;.;.;.;.{ , o $ * * * $ o ",
"o o $ $ $ $ $ $ $ $ $ $ $ * * , * * o > &.h.j.j.q.L.!.c.q.y.H.!.i.0.j.j.| , 2 r p ( $.{ , , $.d.d.d.d.d.d.d.d.$., $ - , , - $ o ",
"o $ - , , , , , , , , , , r ( { p 2 $ 2 @.#.&.-.-.<.I.}.W.}.!.l.6.8.6.&.p 2 2 p { $.=.{ , 2 =.k.k.k.k.k.k.k.k.=.2 - ( $.$.( - o ",
"o $ , e e e e e e e e e e p $.=.$.p * 2 4.5.4.+.@.O.,.F.I.C.,.' +.@.@.4.o., 2 p $.;.;.{ , - { =.=.=.=.=.=.=.;.{ , , { d.d.{ , o ",
"o $ , 2 e e e e e e e e e p $.;.=.#.- > o.5.5.5.5.5.5.O.' O.4.5.5.5.5.5.+.t 2 i $.;.=.{ , $ - 2 2 2 2 2 2 2 2 , $ , { ;.;.{ , o ",
"o $ , e e e e e e e e e e p { $.$.( ; , ^ +.5.5.+.+.+.+.+.+.+.o.o.o.o.+.5.u t p $.;.=.{ , $ - - * $ $ $ $ $ $ $ $ , ( { { ( - o ",
"o $ , e e e e e e e e e e r p p p t $ 2 } o.5.5.2 2 y p u t & % : e t +.5._ t p $.;.=.{ , - ( ( r , , , , , , , , 2 r p p 2 * o ",
"o $ - , , , , , , , , , , , , , , - $ e =.` 5.5.^ t ( ( ( t & $ , 2 , _ 5.o.e p $.;.=.{ , - ( { p 2 2 2 e e e e e 2 2 2 2 , $ o ",
"o o $ $ $ $ $ $ $ $ $ $ $ $ $ $ $ $ o e ;.) 4.5._ e ( ( p 2 $ $ , 2 2 ^ 5.+.2 p $.9.:.{ , * r p r 2 2 e 2 2 2 2 2 2 2 2 2 , $ o ",
"o $ - , , - $ $ * * * * * * $ $ $ $ o e ;.` @.5.o.y p p t , $ * t p i u 4.5.2 _ :.5.:.{ , * e p p p p p p p p p p p p p p r * o ",
"o - ( $.$.( - $ e p p p p r 2 > , - $ e ;.%.O.5.+.2 r r 2 , $ , { =.=.) @.5._ *.=.9.5.%., - ( $.$.$.#.$.$.$.$.$.$.$.$.$.$.( , o ",
"o , { d.d.{ , * r ( ( ( ( p r e 2 , $ e =.%.O.5.@.e r t e , $ - ( $.$.) _ ' j ) [ { { s * - ( { $.{ { { { { { { { { { { $.( - o ",
"o , { d.d.{ , $ 2 r r r r r e e e , $ e =.*.( 4.+.2 p p r , $ $ - , , 2 8 S.S.< , , - * $ $ - , , , , , , , , , , , , , , - $ o ",
"o , { ;.;.{ , $ 2 r e 2 2 e e e e , $ e =.5.y n ,.5 p p r , $ o $ $ $ $ = J.I.1 % & - , , , - * * * * * * * * * * * * * * $ $ o ",
"o , { ;.d.{ , * r p r 2 2 e e e e , $ e =.f./ M.Q.v r r e , $ $ - , , , < n.W.j , r ( { $.{ p p p p p p p p p p p p p p p e * o ",
"o , { ;.;.{ , * p ( r 2 e e e e e , $ e =.f.s M.!.b e e e , $ $ - 2 2 2 < b.!.b 2 p { =.=.$.( ( p ( ( ( ( ( ( ( p ( p ( { ( - o ",
"o , { ;.d.{ , * p ( r 2 e e e e e , $ e =.d./ M.~.b e e e , $ o $ * 2 e 2 x.!.b e r ( { { ( p r r p ( ( ( ( ( ( p r r p $.{ , o ",
"o , { ;.;.{ , * r p r e e e e e e , $ e =.d.s D.Q.v e e e , $ o o $ , e 2 z.!.b e r p p p p r , 2 r p ( ( ( ( p r e p ( { ( - o ",
"o , { ;.d.{ , $ 2 r e e e e e e e , $ e =.d.d G.W.h e e e , $ o o $ , e 2 z.Q.b e e r r r r e e 2 e r r r r r r 2 p { { r - $ o ",
"o , { ;.;.{ , $ , e e e e e e e e , $ e ;.d.k I.I.f e e 2 , $ o o $ , 2 2 z.W.v e e e e e e e e e e e e e e 2 r p ( { ( - o o o ",
"o , { ;.d.{ , $ , e e e e e e e e , $ e ;.d.x W.G.6 2 e e , $ o o $ , 2 < v.W.f e e e e e e e e e e e e e e 2 p { { r - $ o o o ",
"o , { d.d.{ , $ , e e e e e e e e , $ , { #.b !.S.< , , , - $ o o $ - , < n.L.6 , , , , , , , , , , , , , , , r ( ( - o o o o o ",
"o , { d.d.{ , $ , e e e e e e e e , $ $ , , m ^.v.$ $ * $ $ $ o o o $ $ = J.M.% $ $ $ $ $ $ $ $ $ $ $ $ $ $ $ * - - $ o o o o o ",
"o - ( #.;.{ , $ 2 r e e e e e e e , $ $ - , V ~.A X X o o o o $ - , * $ 7 W.v.$ $ $ * * * * * * * * $ $ , 2 , , , , 2 2 2 - $ o ",
"o $ * p $.{ , * r p r 2 e e e e e , o - ( [ t.~.B o o o o o o - ( ( e < B !.Z ; , e r p p p p p p e $ , { =.$.{ { #.=.=.$.( - o ",
"o $ - p $.{ , * p ( p r e e e e r e $ , } 2.M.Q.n $ $ $ $ $ $ 2 ( { 1.A.m.W.C y e r p ( ( ( ( ( ( p * 2 ;.k.d.;.;.d.k.k.d.$., o ",
"o - ( $.=.{ , * p ( ( p r 2 2 r p r * , a.].M.G.Z.h , , , , , 2 p p 3.XX[.P.P.j e e r r r p ( ( ( p * 2 =.k.d.;.;.;.d.d.d.{ , o ",
"o , { ;.d.{ , * p ( ( ( p r e r p r * , N.XX.X X{.j e e e e e e e 2 y C N.A.u.y e e e , e r ( ( ( p * 2 =.k.d.;.;.;.;.;.d.{ , o ",
"o - ( #.;.{ , * p ( ( ( ( p r e r e $ , } N C Z M e e e 2 e e e e e X     X < e e e e e e r ( ( ( p * 2 ;.k.d.;.;.;.;.;.d.{ , o ",
"o * e ( { ( - * e p p p p r e > , - $ * ( o   . ; , , , , , , , , ; .       . X , , , , , 2 r p p e $ , { =.$.{ { { { { { ( - o ",
"o $ * - , - $ $ * * * * * * * $ $ $ o $ - , * $ $ $ $ $ $ $ $ $ $ $ $ $ $ $ % $ $ $ $ $ $ * * * * * $ $ , 2 , , , , , e , - $ o ",
"o o o o o o o o o o o o o o o o o o o o o X o o o o o o o o o o o o o o o o o X o o o o o o o o o o o o o o o o o o o o o o o o "
};
