/* XPM */
static char *d318a83854564ba28ac0903d1dba7a4fuobh7JLQMlHE5x6L[] = {
/* columns rows colors chars-per-pixel */
"20 32 177 2 ",
"   c None",
".  c #040407",
"X  c #050509",
"o  c #08070A",
"O  c #0B090C",
"+  c #0D0C10",
"@  c #151215",
"#  c #171518",
"$  c #1C1A1D",
"%  c #2E180F",
"&  c #35190F",
"*  c #201A19",
"=  c #371B10",
"-  c #3A1F16",
";  c #3A2115",
":  c #472D1F",
">  c #442B21",
",  c #48332C",
"<  c #543728",
"1  c #463835",
"2  c #473B38",
"3  c #413533",
"4  c #4F403B",
"5  c #674839",
"6  c #6B4C3A",
"7  c #4F4648",
"8  c #544543",
"9  c #694E42",
"0  c #67524C",
"q  c #745E56",
"w  c #545965",
"e  c #555B6B",
"r  c #595F6F",
"t  c #535765",
"y  c #5D606E",
"u  c #5C6072",
"i  c #636269",
"p  c #6C696C",
"a  c #6C6361",
"s  c #756765",
"d  c #646875",
"f  c #6C6B73",
"g  c #656A79",
"h  c #616679",
"j  c #766F73",
"k  c #6D737F",
"l  c #717076",
"z  c #7D7475",
"x  c #74747D",
"c  c #8A664D",
"v  c #8E6C5C",
"b  c #89715C",
"n  c #8E786B",
"m  c #917D6D",
"M  c #807778",
"N  c #827A7C",
"B  c #927F70",
"V  c #A9805F",
"C  c #96816F",
"Z  c #938377",
"A  c #9B8573",
"S  c #99827A",
"D  c #B18B6D",
"F  c #BC956D",
"G  c #A58C76",
"H  c #A58B7B",
"J  c #AD9077",
"K  c #B0967E",
"L  c #BC9A7B",
"P  c #B69573",
"I  c #C39E7C",
"U  c #C49D74",
"Y  c #C7A07C",
"T  c #C8A17E",
"R  c #CDA177",
"E  c #D3A77A",
"W  c #DBAE7F",
"Q  c #D5AA7E",
"!  c #696F82",
"~  c #777C85",
"^  c #7D838C",
"/  c #8E8989",
"(  c #938A86",
")  c #998E85",
"_  c #878B97",
"`  c #909098",
"'  c #9D9C9C",
"]  c #999494",
"[  c #A68E81",
"{  c #A89383",
"}  c #B79587",
"|  c #BE9A8B",
" . c #A79D93",
".. c #B39099",
"X. c #BFA38C",
"o. c #BDA595",
"O. c #B9A898",
"+. c #B4A89C",
"@. c #999EA5",
"#. c #A39FA3",
"$. c #9EA3A6",
"%. c #A3A6AD",
"&. c #A9A6A7",
"*. c #B7A7AF",
"=. c #B9ACA7",
"-. c #A4AAB2",
";. c #A8AFB7",
":. c #A7AFB8",
">. c #ACADBA",
",. c #B1AFB1",
"<. c #ACB1B5",
"1. c #ACB5BC",
"2. c #BBB4B3",
"3. c #B4B8BD",
"4. c #B8B8B9",
"5. c #C39F8F",
"6. c #C89E84",
"7. c #C8A083",
"8. c #C7A386",
"9. c #D6AC82",
"0. c #D9AE82",
"q. c #D6AC8E",
"w. c #D9AE8F",
"e. c #DDB184",
"r. c #DDB38E",
"t. c #C5A090",
"y. c #CEA896",
"u. c #C4A796",
"i. c #D7AD90",
"p. c #D7AE9C",
"a. c #DEB292",
"s. c #DAB19D",
"d. c #E3B383",
"f. c #E8B785",
"g. c #E9B887",
"h. c #E5B788",
"j. c #E4B795",
"k. c #C1ACA5",
"l. c #CFB9A7",
"z. c #C6B6AB",
"x. c #D7B2A3",
"c. c #DCB4A2",
"v. c #DDBCAD",
"b. c #CFBBB0",
"n. c #C4BAB6",
"m. c #E1B6A2",
"M. c #E5B9A5",
"N. c #E8BCA6",
"B. c #E5BCAA",
"V. c #EABEAA",
"C. c #DBC3AD",
"Z. c #CCC6BA",
"A. c #DFC5B6",
"S. c #DCCDBA",
"D. c #ECC0AC",
"F. c #E0C1A3",
"G. c #E3CABD",
"H. c #E3D0BD",
"J. c #AFBAC2",
"K. c #B5BAC0",
"L. c #BBBEC3",
"P. c #B1B4C2",
"I. c #C0BBC1",
"U. c #BFC1C4",
"Y. c #BEC2C9",
"T. c #CCCBC1",
"R. c #C2C3CF",
"E. c #D5CDCA",
"W. c #D0D0C7",
"Q. c #CCCED6",
"!. c #C6C8D3",
"~. c #D2D4DB",
"^. c #E0CEC2",
"/. c #E4D7C8",
"(. c #E9E0CE",
"). c #E9E9DF",
"_. c #E8E5DA",
/* pixels */
"              T.        2.              ",
"              (.r.e.S._.).              ",
"            W.H.r.j.B.G._.              ",
"            T.A.m.D.B.M.^.              ",
"            T.v.m.N.m.M.G.              ",
"            Z.F.e.9.d.j./.              ",
"        ; : b e.g.h.g.h.C.O.            ",
"    % = & = < R g.g.g.h.s.n.<.%.$.      ",
"    6 ; & - > D d.d.d.w.b.U.1.J.1.'     ",
"  W X.M 8 2 , v 0.d.6...I.K.-.1.1.+.U   ",
"  e.l.Q.@.@./ 9 V E 6.*.Y.1.%.,.2.u.E   ",
"  d.b.~.-.-.K.( 5 c K 4.K.1.=.v.B.w.W   ",
"0.d.z.Q.3.%.3.U.n 6 Z 3.1.1.k.V.D.a.d.  ",
"0.d.{ ` ` $.1.L.2.S 0 z ;.<.o.V.V.a.e.F ",
"9.h.[ ! N  .:.<.3.L.] 0 s ' X.N.V.r.d.  ",
"E e.n.P.&.A k ~ ^ _ _ f 7 a I N.V.q.W   ",
"  9.E.!.=.B w e e t e e t i L N.V.i.W   ",
"  8.E.R.=.m e u r e u u e i L M.V.q.E   ",
"    %.>.o.A u u y p f u u i I M.V.8.    ",
"    g x L A u u f Y G u u p T s.N.      ",
"  ~ d f H C u u j 0.J u u p I 7.t.      ",
"  x w d ( Z g h z Q G g h l P           ",
"          ) #.#.] P ) %.&.'             ",
"            x.x.[     u.x.5.            ",
"            N.N.      s.D.p.            ",
"          5.M.B.      c.V.p.            ",
"          | m.V.      c.V.s.            ",
"          1 q }       H y.t.            ",
"          . O *       @ 3 4             ",
"        o X X .     o X . .             ",
"        @ @ # $   O o O + @             ",
"                    $ $                 "
};
