/* XPM */
static char *xpm_[] = {
/* columns rows colors chars-per-pixel */
"64 64 118 2 ",
"   c black",
".  c #020101",
"X  c #060303",
"o  c #060504",
"O  c #0B0603",
"+  c #0A0404",
"@  c #090606",
"#  c #090807",
"$  c #0B0808",
"%  c #0F0D0B",
"&  c #1B0405",
"*  c #100908",
"=  c #141211",
"-  c #1A1513",
";  c #1D1512",
":  c #1B1515",
">  c #24120B",
",  c #261410",
"<  c #251B18",
"1  c #3B1D13",
"2  c #052439",
"3  c #292220",
"4  c #2E2622",
"5  c #322D2C",
"6  c #4F0B00",
"7  c #4D2618",
"8  c #5B2D1A",
"9  c #5E2F1E",
"0  c #483B39",
"q  c #65352D",
"w  c #67362C",
"e  c #5D453F",
"r  c #052B43",
"t  c #05304B",
"y  c #063452",
"u  c #083959",
"i  c #093F62",
"p  c #094165",
"a  c #09466C",
"s  c #084D78",
"d  c #535250",
"f  c #624941",
"g  c #664E4B",
"h  c #71544A",
"j  c #76574C",
"k  c #76574D",
"l  c #755951",
"z  c #715D59",
"x  c #66625A",
"c  c #7D655B",
"v  c #864A35",
"b  c #936E5F",
"n  c #976F62",
"m  c #967063",
"M  c #977063",
"N  c #997366",
"B  c #9F796D",
"V  c #A37770",
"C  c #9E8073",
"Z  c #A58175",
"A  c #A6827A",
"S  c #A7857F",
"D  c #A9867E",
"F  c #AD897E",
"G  c #085788",
"H  c #0A649C",
"J  c #0C6CA8",
"K  c #0F76B5",
"L  c #0C7CBE",
"P  c #0F82C6",
"I  c #1290D9",
"U  c #9C918D",
"Y  c #A48781",
"T  c #A78982",
"R  c #AF8A80",
"E  c #AA8A85",
"W  c #AC8C87",
"Q  c #A98B88",
"!  c #AB8D89",
"~  c #AD8C88",
"^  c #B28C81",
"/  c #B28D83",
"(  c #AF908C",
")  c #B99787",
"_  c #B29088",
"`  c #B1908B",
"'  c #BB9588",
"]  c #BE9589",
"[  c #BB9989",
"{  c #B29691",
"}  c #B79A94",
"|  c #BEA29D",
" . c #BBACAF",
".. c #BABBB6",
"X. c #C9A492",
"o. c #CBA294",
"O. c #C4A198",
"+. c #C5A198",
"@. c #D6AC9C",
"#. c #D8AF9D",
"$. c #D8B09D",
"%. c #D0B9B4",
"&. c #D4BDB7",
"*. c #E0B5A3",
"=. c #E9B5A1",
"-. c #E8BCA9",
";. c #F4C5B1",
":. c #F6C8B3",
">. c #DAC5C0",
",. c #E3D0CA",
"<. c #E4D1CA",
"1. c #E5D2CC",
"2. c #E9D7D0",
"3. c #F2E2DB",
"4. c #EBE9E3",
"5. c #F6E7E0",
"6. c #F1F0E9",
"7. c #F7F8F2",
/* pixels */
"2 2 2 2 2 2 2 2 2 2 2 2 2 2 2 2 2 2 2 2 2 2 2 2 2 2     7.                            7.    2 2 2 2 2 2 2 2 2 2 2 2 2 2 2 2 2 2 ",
"r 2 2 2 2 r y u t r r r r r 2 2 r r r r r r r r r r   7.7.7.      7.7.7.7.7.7.      7.7.7.  t t t t t t t t t r r r r t y y r 2 ",
"2 2 2 2 2 y G G a u u u u y r r y u u u u u u u u     7.7.7.7.7.7.7.7.7.7.7.7.7.7.7.7.7.7.$   s s s s s s a i u u u u a G G y 2 ",
"2 2 2 r y a H H s p p p p u r r u p p p p p p p p   7.7.7.7.7.7.7.+ :.:.:.:.:.:.$ 7.7.7.7.    G G G G G G s a p p p i s J H u 2 ",
"2 2 2 y G H G s a p p p p u r r u p p p p p p p p   7.7.7.7.7.$ :.:.:.:.:.:.:.:.:.:.7.7.7.7.  G G G G G s a p p p p i s J H u 2 ",
"2 r y a H H s i i p p p p u r r u p p p p p p p     7.7.7.7.:.:.:.:.:.:.' :.:.:.:.:.:.7.7.7.  H G s G s a i p p p i i s J H u 2 ",
"2 y G H G s p i p p p p p u r r u p p p p p p p     7.7.7.[ :.:.:.:.:.:.:.:.:.:.:.:.:.C 7.7.  J s a a a p p p p p i i s J H u 2 ",
"2 u G H s i i i i i i p p u r r u p p i i i i p   7.7.7.7.:.:.:.:.+ :.:.:.:.:.:.$ :.:.:.7.7.  H s p p i i i i i i p s G J H u 2 ",
"2 t a s p i i i i i i i i u r r u p i i i i i i   7.7.7.d :.:.F :.:.:.:.:.:.:.:.:.:.] :.7.7.  s p i i i i i i i i s H K K H u 2 ",
"2 t a s s s s s s s s s s a t t a s s s s s s s   7.7.7.$ :.:.:.:.:.( 3.5.5.5.5.! o.@.:.7...  s s s s s s s s s s G K L L H u 2 ",
"2 y G J J J J J J J J J J G y y G J J J J J J J   7.7.7.# ^ :.:.:.>.5.5.5.5.5.5.5.3.:.:.7.    J J J J J J J J J J J K L L H u 2 ",
"2 y G H J H H H H H H J H G y y G H J H H H H H   7.7.7.7.:.*.:.:.5.5.: 6.4.# 6.1.3.` ;.7.    H J H H H H H H H J H H H H G y 2 ",
"2 r y u u u i u u u u u u y r r y u u u u p u u   7.7.7.Q ( :.( 5.5.5.6 o 6 6 6 _ 5.Q 5.1.    u u u u u u u i u u u u u u y r 2 ",
"2 2 r r r r r t y u u u u y t r r r r r r r r     7.7.7.{ 5.2.5.5.5.! 5.U o 5 5.+.5.5.5.5.  t t t y u u u y r 2 2 2 r r r r 2 2 ",
"2 r y u u u u a G H H H H G a u u u u u u         $ 7.7.` 5.3.! 5.5.5.5.3.5.5.5.5.5.5.5.5.  s s s s H J H G y 2 2 r y u u y r 2 ",
"2 r u p p p p s H J H H K J s i p p p p     9 9 9 9 9 7.( 5.5.5.5.5.5.5.5.5.5.5.5.5.5.5.5.  G s G G H K K G y 2 2 r u p p u r 2 ",
"2 r u p p p p a s a i a J J s i p p     9 9 9 9     9 q D 3.5.5.5.5.5.5.5.5.5.5.5.5.5.5.5.  a a a s s s s a t 2 2 r u p p u r 2 ",
"2 r u p p i i p i u r u H J s i i     O 9 9 9 9 1 v   x x 5.5.5.5.5.5.5.5.5.5.5.5.5.5.5.5.  i p i i i p i i u y r r u p p u r 2 ",
"2 r u i i i i i p u r u H J s i     9 9 9 9 9 9   = 8 8 x 5.5.5.5.5.| 5.5.5.5.5.! 3.5.5.5.:.  p p p i i i a G G y r u p p u r 2 ",
"2 t a s s s s s a u r u H J s     N   9 9 9 9 9   x   v . 5.5.5.5.5._ 5.5.5.5.5.2.5.5.5.5.:.:.  p p p p p s J H u r u p p u r 2 ",
"2 y G J J J J H s u r u H     n M +.+.M > 9 9 9 8 7 >   v 5.5.5.5.5.+.5.5.5.5.5.5.5.5.5.5.:.:.+   p p p p s J J u r u p p u r 2 ",
"2 y G H H H H G a t r y     m D +.+.Z n M M     0 :.;.;.  5.5.5.5.5.5.5.5.5.5.5.5.5.5.5.5.:.:.:.  u u u u a G G y r u p p u r 2 ",
"2 r y u u u u y t r 2   j m +.+.' m N n       :.:.:.:.:. .5.5.5.5.5.5.5.5.5.5.5.5.5.5.5.5.:.;.F #.  r r r t y y r r u p p u r 2 ",
"2 r u u r r y u u u u   j   N m M m     2 2   :.:.:.:.[  .5.5.5.5.5.5.5.5.5.5.5.5.5.5.5.5.. :.:.:.    u u u u y r r u p p u r 2 ",
"2 u H H u y G H J H     j j m m     y 2 2 2   c :.:.:.:.g ,.5.5.5.5.5.5.5.5.5.5.5.5.5.5.! . :.V :.:.  H H H H G y r u p p u r 2 ",
"2 p L L p y G J J   j j j j     K G u r r r     :.:.:.:.=.Q 5.5.5.! 5.5.5.5.5.5.5.5.5.5.  u   :.:.:.+   L P L H u r i a a i t 2 ",
"2 p L L i r a s     +.m m j   K G s i u u u   :.:.:.:.:.:.-.5.5.5.! 5.5.5.5.5.5.5.5.5.5.  u   . :.:.:.  L L P H u t a G G a t 2 ",
"2 p K L p r u i   m S +.m m   H s i p p p   + :.:.:.:.:.:.:.5.5.5.5.5.5.5.5.5.5.5.! 5.5.  u J   :.:.:..   L L H u t s G G s t 2 ",
"2 p K L p r u     +.+.m m     s a i p p p   * :.:.:.:.:.:.:.5.5.5.5.5.5.5.5.5.5.5.5.5.5.  u J     :.:.:.  L L H u t s G G s t 2 ",
"2 p L L p r     +.+.N m m   i i p p p p p p   :.:.:.:.:.:.:.%.{ 5.5.5.5.5.5.5.5.5.5.5.5.  u J P   :.:.:.    P H u t s G G s t 2 ",
"2 p L L p r   m +.+.m m     p p p p p p p p     :.:.:.:.:.:.E +.5.5.5.5.5.5.5.5.5.5.5.5.  u J P     :.F :.  L H u t s G G s t 2 ",
"2 u H H u     +.+.m m m   u u u u u u u u   w w w + :.:.:.:.:.&.5.5.5.5.5.5.5.5.5.5.5.5.  u J P L   :.:.:.  P H u r p s s p t 2 ",
"2 r u u r   m ` B M M     r r r r r r r r   w w w w w w w + + } 5.5.5.5.5.5.5.5.5.5.5.T   u J P L     F :.[   H u 2 r t t t r 2 ",
"2 2 r r     m n M M     r t y u y t 2 r u   w w w w w w w w w T 5.5.5.5.5.5.5.5.5.5.5.T   u J P P P   :.:.:.  J u r y u u y r 2 ",
"2 r y u   j j j m m   u u a G H s p r u H   w w w w w w w w w w 5.5.5.5.5.5.5.5.5.5.5.Y   i K I I I   $.:.:..   i y G J J G y 2 ",
"2 r u   n   n j j     p i s J K J s t p L     w w w w w w w w w 5.5.5.5.5.5.5.5.5.3.Y Y   y H K K K     :.:.:.  u u H P P H u 2 ",
"2 r   n n ;   M N n   p i s J L K H y i L P   w w w w w w w w w 5.5.5.5.5.5.5.5.5.5.3   u r y p p i p   :.:.:..       L L H u 2 ",
"2     l   f     n n :   i s H J J G y i K P   w w w w w w w w w E 5.5.5.5.5.5.5.5.5.  H u r y y t r r   . :.:.:.;.;.b   H G y 2 ",
"2     n n     h n n f   p a s s s a r i K     w w w               5.5.5.5.5.5.5.5.5.  H u y G G a u u   X.:.:.:.:.:.:.  s p t 2 ",
"2 r   n <   & n n f     u u u u u y r p L   w w w ,   G G         5.5.5.5.5.5.5.5.5.  H u y G H s i   . :.. :.:.:.:..   i u r 2 ",
"2 2                   r r r r r r r 2 p     w w w     G s p r r   T 5.5.5.5.5.5.5.5.    u t a s a i i                 p i u r 2 ",
"2 r y   u y r       t t t t r r r r 2 p         q   s s a u r t a   5.5.5.5.5.5.5.5.q   u t p s s s s s s s s s s s s s s a t 2 ",
"2 y G J J G y r   s s s s a i u u y r p   :.:.      a a p u r u H   T 5.5.5.5.5.5.Q %     y G J J J J J J J J J J J J J J G u 2 ",
"2 u H P P H u t a G G G G s a p p u r   4 :.:.:.  p a a p u r y G J   5.5.5.5.5.5.Q ^     y G H J H H H H H H H H H H H J G y 2 ",
"2 u H P P H u r i a a a a a p p p u r   :.:.:.:.  a s s a u r r y u   Y 5.5.5.5.5.Q :.:.  r y u u u u u u u u u u u u u u y r 2 ",
"2 u H L L H u r i a p i i p p p p u r   :.:.:.    a s s a u r 2 r r r   5.5.5.5.5.Q :.:.  u y t t t t t t t t t t t t t t r r 2 ",
"2 u H L P H u t a s a i i p p p p u r   :.:.:.    p a a p u r r y u u   Y 5.5.5.5.Q :.:.<   s s s s s s s s s s s s s s s p t 2 ",
"2 u H L L H u t s G a i p p p p p u r   :.:.:.  i p p p p u r r y i i p   5.5.5.5.Q :.:.    G G s G G G G G G G s G s G H G y 2 ",
"2 u H L P H u t s G a i p p p p p u r   :.:.:.  i p p p p u r 2 r t i p   Y 5.5.5.5.:.:.)   s a a s G G G G G G s a a s J H u 2 ",
"2 u H L L H u t a s a p p p p p p u r   :.:.:.  i p p p p u r 2 2 r u p p   5.5.5.5.:.:.:.  a i i a s G G G G s a p s G H G y 2 ",
"2 u H L P H u r p a p p p p p p p u r   :.:.:.  i p p p p u r 2 2 r u p p   Y 5.5.Y :.:.:.  p i i p a a a a a a i s H H a y r 2 ",
"2 u H L L H u r u p p p p p p p p u r   A :.:.  i p p p p u r 2 2 r u p p   0 Y 5.5.:.:.:.  p p p p p p p p i a s G H G y 2 2 2 ",
"2 u H L P H u r u p p p p p p p p u r   A :.:.  i p p p p u r 2 2 r u p p p     5.5.:.:.:.  p p p p p p p p i s H H a y r 2 2 2 ",
"2 u H P P H u r u p p p p p p p p u r   :.:.:.  u u u u u y r 2 2 r y u u u u   Y 5.:.:.:.  u u u u u u u u u a G G y 2 2 2 2 2 ",
"2 u H P P H u r u p p p p p p p p u r   :.:.:.  r r r t r r r 2 2 2 r r r r r   z 5.:.:.:.  r r r r r r r r r t y y r 2 2 2 2 2 ",
"2 y G J L H u r i a p p p p p p p u r   :.:.:.  r 2 2 2 2 2 2 r y u t r r r r r   5.:.:.:.  t t t t r r u i u u u u i i i y r 2 ",
"2 r t s J H u t a s a i p p p p p u r             2 2 2 2 2 2 y G G a u u u u u   Y         s s s p r u H K J H H J K K J G y 2 ",
"2 r y s J H u t s G s a p p p p a i r             r r r r r r i G H s p p p p p             G G G s t i L I P L L P I I P J u 2 ",
"2 y G J K H u t s G G s a i i a s a t             u u u u u u i s s a p p p p p               G G s t i K I P L L L P P P H u 2 ",
"2 u H L P H u t s G G G s a p a s a               p p p p p p p p i p p p p p p                 G s t i K I P L L L L L P H u 2 ",
"2 y G J L H u t s G G G G s a p a                 p p p p p p p p p p p p p p p                   s t i L I P L L L L L P H u 2 ",
"2 t p G H G y t p s s s s a i u                     u u u u u u u u u u u u u u                   p r u H K J H H H H H H G y 2 ",
"2 r t y u y r r t t t t t t t r                     r r r r r r r r r r r r r r r                 t r r u i u u u u u i u y r 2 ",
"2 2 2 2 2 2 2 2 2 2 2 2 2 2 2 2 2                 2 2 2 2 2 2 2 2 2 2 2 2 2 2 2 2 2             2 2 2 2 2 2 2 2 2 2 2 2 2 2 2 2 "
};
