/* XPM */
static char *xpm_[] = {
/* columns rows colors chars-per-pixel */
"32 32 4 1 ",
"  c black",
". c #1E0901",
"X c #464646",
"o c #FFF9BD",
/* pixels */
"                                ",
"ooXXXXXooo XXXXXXXXXXXXXXXXXXXX ",
"oXXXXXXXXX XXXXXXXXXXXXXXXXXXXX ",
"oXXXXXXXXX XXXXXXXXXXXXXXXXXXXo ",
"oooooXXXXX XXXXXXXXXXXXXXoooooo ",
"                                ",
"               ooooooXXXXXXXXooo",
"               XXXXXXXXXXXXXoooo",
"               XXXXXXXXXXXXooooo",
"               oXXXXXXXXXooooooo",
"                                ",
"ooo oooXXXXXXXXXXXXXXXX     XXX ",
"ooo XXXXXXXXXXXXXXXXooo      XXX",
"ooo XXXXXXXXXXXXooooooo       XX",
"ooo XXXXXXXXXXXXXXXXXXo      XX ",
"                   X            ",
"                    X           ",
"                   ooooooooooooX",
"                   oooooooooooXX",
"                   oooooooooooXX",
"                 o oooooooooXXXX",
"                                ",
"ooooXXX XXXXXXXXXXXXXXXXooooooo ",
"oooXXXX XXXXXXXXXXXXXXXXXXXXXXX ",
"ooXXXXX XXXXXXXXXXXXXXXXXXXXXXX ",
"oooXXXX ooooooXXXXXXXXXXXXXXXXX ",
"                                ",
" oooXoXXXXoo         X          ",
" ooooXXXXooo                    ",
" oooooXXoooo                    ",
" oooooXooooo ..                 ",
"                                "
};
