/* XPM */
static char *xpm_[] = {
/* columns rows colors chars-per-pixel */
"64 64 46 1 ",
"  c black",
". c #020304",
"X c #020305",
"o c #020406",
"O c #030507",
"+ c #030508",
"@ c #040609",
"# c #05080B",
"$ c #05080D",
"% c #05090E",
"& c #06090E",
"* c #060A0E",
"= c #010A10",
"- c #070B11",
"; c #090C11",
": c #090F17",
"> c #090F18",
", c #03131E",
"< c #0A1018",
"1 c #0A111A",
"2 c #0B121B",
"3 c #0F141C",
"4 c #10161F",
"5 c #0E1723",
"6 c #0E1724",
"7 c #0F1927",
"8 c #131921",
"9 c #141B23",
"0 c #111B29",
"q c #111C2B",
"w c #131F2F",
"e c #052132",
"r c #052337",
"t c #042438",
"y c #152130",
"u c #152131",
"i c #1A2534",
"p c #1D2939",
"a c #222D3B",
"s c #073C5E",
"d c #093B5B",
"f c #253141",
"g c #0A4164",
"h c #084166",
"j c #0D6DAB",
"k c #0E78BC",
/* pixels */
"uuuuuuuuuuuuuuuuuuuuuuuuuuuuuuuuuuuuuuuuuuuuuuuuuuuuuuuuuuuuuuuu",
"puuuupggfpppppuuppppppppppupggggggggggggggggppfffffffffppppfggpu",
"uupuuggkggggggppggggggggggpgkkkkkkkkkkkkkkkkgpgggggggggggggggggu",
"uuupggkkggggggppggggggggggpgkkkkkkkkkkkkkkkkgfggggggggggggggkkgu",
"uuuggkggggggggppgggggsggggpgkkkkkkkkkkkkkkkkgfggggggggggggggkkgu",
"upggkkggggggggppggddggggggpgkkkkkkkkkkkkkkkkgfgkggggggggggggkkgu",
"uggkggggggggggppggddggggggpgkkkkkkkkkkjkkkkkggkkggggggggggggkkgu",
"uggkggggggggggppgdddgtgggdpgkkkkkkkjjkkkkkkkgggkggggggggggggkkgu",
"ufggggggggggggppggttggggggpgkkkkkkkjjkkkkkkkgpgggggggdggggkkkkgu",
"ufggggggggdgggffggttgggggfufgkkkkkjjjkgkkkjkgfggggddggggggkkkkgu",
"uggkkkkjjkkkkgggggkkk,f01q7quppppup46upuupppuggkkkjjkkkkkkkkkkgu",
"uggkkkkjjkkkkggggkkkt,& q2wwwwwwwu0:1wwu    wfgkkjjjkgkkkjkkkggu",
"upggggdddgtgggipgg;--&&&&1-0w0wwqq1www&qq2wq wfgggtrggggggggggpu",
"uuppppp9tgggggfpuw    &&o1uuwwwwqqwww&&&&u1u  wupgrrggpuuuppppuu",
"upgggggrrkkkkggfwquq&&&owu q-w0qqqw+&&&&&&1qw  wgrkkk,gu2pddggpu",
"upggggrgkktkkgg3> wuq&wwq   w-ww11w&&&&&&&10w  wggkkt,,&u6ggggpu",
"upggggggg,,,tk9u w1>110u     -ww11qww&&&&qwwww  wp,,,,:&&4ggggpu",
"upggggg,,,;,,,2  01111q0w   www111w&ww+076w1www   &,,,,,;4ggggpu",
"upggggg,,,;&&&1 00w-wq-u11 w0wqwww&+++>111wwwwww   u,,,,gpggggpu",
"ufggggdgg,-&   qw-wwwyuq--&qqwww&&&++++111wwwww12  qu,kkdpggggpu",
"uggkggkkgg&   ww-ww w-w0ww0q--ww&&&&&&&-q21&7u2wqq   9kkgpggggpu",
"uggkkkktt2   wwwww   w-wwwqq7w1qww&&&&qyuw&&&&y1ww1  1gggpggggpu",
"upggggg91   wwquw     -wwww1211wuqq-wwqw&&&&&&&>wwww quu14ggggpu",
"upggppgp   ww11u6w   wwwwww11www1111qwww&&&&&&&1wwwwq   upggggpu",
"ugkkggggw  www6-9qu w0wwww1www&w1&>>7wwqww&&&&wwwwwww   qpggggpu",
"ugkkggkgw  ww660o--&wwwwwwwww&&&&q>qy2%1uqw&00q1wwwqw   ufggggfu",
"ugkkgfggw  ww0ow-uw6w--wwww&&&&&&$>y1www>11111wwwwwww   ufggggfu",
"ugkkgufpw wwwo-w qow6wwwwww&&&&&&+%qwwww111>11wwwwwwww  qpggggfu",
"ugkkgww  wwww-w   ;+0wwwwq7ww&&&&11wwwwwwww>ww1+wq2wqqw  yggggfu",
"ugkkgw   wwwwq      wwww1>qwww&q1qww&ww1wqqwww&&-&w2www  yggggfu",
"ugkkgw   wqqw6     -wwwwqqq1&>>uqww&&&&w1www&&&&&&&1www  qggkgfu",
"ugkkgq   wqqo0w   6wwwwww111>>1qw&&&&&&&1www&&&&&&&1www  uggggfu",
"upddpu   qqq-1oo q7wwwwww110q001w++$&&&&1wq7yw-&&&wwwww   ufffpu",
"uuiipu   w11q0--&-+o9www1wwuO1u1qqq&&&&ww1>7wwq&wwqwwww   pgggpu",
"uiddg5   q21uwu-00--ywwwwwq-++O11www&wwqwqqq2%11wqwwwww  wgkkggu",
"uprrgg   1wuq-;q2 q-y7www&&+&&&o11%1>qwwww11111>wwwwwww  wkkkkgu",
"uprrga   www&&&&   u-qyww&&&&& o++1%>wwqww11wwwqww11www  ugkkkgu",
"u4ggg,u  w&&&&&     -wwwqww&ooo&&&&17qw111www&ww1wqqwww  qgkkggu",
"upgg,,,;u &&&&&&   w-w1:wwww &&&&&&1qqwwwwww&&&&w1wwwww  uggggfu",
"up,,,,,>&  q&o&&w -0uuqww11>1u&&&&wqqqw1ww&$&&&&&1wwqw   qggggpu",
"uu;;;--O   ww&w--oqu u-q0&&:1qq&w7qw11wwww&&&&&&&>qww   ugggggpu",
"uigg5,-&   111ww07q   q:w0ww111#1www11wwwqww&&&&wqqww  wggggggfu",
"1ggkk5gy   2110qu0     -00w-11::w-w20ww+1w1wq&ww9qqu4  wskkkkggu",
"uggggsgqw   00uw>>q   quq-wwquq-ww11qw&&&&1&2>www21q   ugkkkkggu",
"ughhgshwfpw  qww-22q qqu-ww w--0w q-&&&&&&+%1>www11   wuggggggpu",
"ugkkkjhpttu0  w2y2+--yuqww   w-w   wo&&&&&-3y7ww%1  &ufrfaaffppu",
"ugkkkkhagggu   w2wuq&w-+w     -     +w&&&-qqwwwww  &,,,gtgggggfu",
"ugkkkkgfgggg1   wwq&&&&y>w   w0w   wquw&ququwwww  &;,,,,tgggkggu",
"ugkkkkgfgggtgu   &+&&&&o1ww w&uuw 101111wwwwwww  &,,,,,,rgggkkgu",
"ugkkkkgfgggggg&   &+&&&&1--&wwq-+&wwo11&wqqwww   ug,,,,gggggkggu",
"ugkkkkgpgggg,,,;& &+&-&uwww0w--ww0woo&&q1w11w   uggg,ggdggkkggpu",
"ugkkkkgpgggg,,==&&&1&0qqwwwwwwwww&&&&&&&1wwww  wgtttegggggkgguuu",
"ugkkkkgpgggdgg,,,+4 1wwwwwwwwwwww&&&&&&&1www   wgrrregggkkggpuuu",
"ugkkkkgpgrrgggg,gr:  www                www    wfgggdggrrgguuuuu",
"ugkkkkgpggggttteggpw                          wupppppppfggpuuuuu",
"uggkkkgpggggrtteggpuuuuw        w12    wwwwwwwpgffppggggggggggpu",
"upfgkkgfgggggggdgg5rgkkgpwwuquqpgrr99gfgggggggggggpgkkkkkkkkkggu",
"upfgkkgfggggggggggpgkkkggpppppfgkkggdggrrgggggggggfgkkkkkkkkkkgu",
"uggkkkgfggggggggggfgkkggggggggggggggggggggggggggggfgkkkkkkkkkkgu",
"ugkkkkgfggggggggggfgkkggggggggggggggggggggggggggggfgkkkkkkkkkkgu",
"uggkkkgfggggggggggpgkkggggggggggggggggggggggggggggfgkkkkkkkkkkgu",
"ufggkggfggggggggggpgggggggggggggggggggggggggggggggpgkkkkkkkkkggu",
"upfgggppffffffaappupggfppppppppppppppppppppppfffffppggggggggggpu",
"uuuuuuuuuuuuuuuuuuuuuuuuuuuuuuuuuuuuuuuuuuuuuuuuuuuuuuuuuuuuuuuu"
};
