/* XPM */
static char *xpm_[] = {
/* columns rows colors chars-per-pixel */
"64 64 211 2 ",
"   c #0D0E0F",
".  c #2D241D",
"X  c #352D1C",
"o  c #392A1F",
"O  c #151E24",
"+  c #1B2826",
"@  c #16262F",
"#  c #052335",
"$  c #0F2E37",
"%  c #052539",
"&  c #0F333F",
"*  c #183536",
"=  c #2E2E2D",
"-  c #3F2F23",
";  c #36362B",
":  c #213D32",
">  c #373939",
",  c #41321E",
"<  c #403328",
"1  c #513621",
"2  c #5A3D28",
"3  c #1F413D",
"4  c #2F472F",
"5  c #22443B",
"6  c #354738",
"7  c #365236",
"8  c #3A5638",
"9  c #3F603F",
"0  c #4A4E1C",
"q  c #5B5D19",
"w  c #655718",
"e  c #6B6A1B",
"r  c #766816",
"t  c #62432D",
"y  c #684A2B",
"u  c #794826",
"i  c #6E4B32",
"p  c #745230",
"a  c #556628",
"s  c #486436",
"d  c #526D37",
"f  c #577133",
"g  c #58743A",
"h  c #667929",
"j  c #717B27",
"k  c #657E38",
"l  c #052B42",
"z  c #052F49",
"x  c #0F3542",
"c  c #06324D",
"v  c #153243",
"b  c #153B4A",
"n  c #063452",
"m  c #093753",
"M  c #073959",
"N  c #133F50",
"B  c #083E60",
"V  c #124155",
"C  c #14475A",
"Z  c #1B4C58",
"A  c #395D48",
"S  c #255155",
"D  c #345954",
"F  c #3C6045",
"G  c #3A634F",
"H  c #396452",
"J  c #3D6B55",
"K  c #094164",
"L  c #08466C",
"P  c #144961",
"I  c #124D68",
"U  c #064B75",
"Y  c #0A507B",
"T  c #155672",
"R  c #3D796E",
"E  c #745640",
"W  c #466A46",
"Q  c #4E7347",
"!  c #537544",
"~  c #5A7946",
"^  c #517E52",
"/  c #617F42",
"(  c #91791A",
")  c #A27C1B",
"_  c #824D27",
"`  c #88522C",
"'  c #9A5D27",
"]  c #965629",
"[  c #93582F",
"{  c #9B592A",
"}  c #8D5D3B",
"|  c #9C6128",
" . c #96643F",
".. c #9A6A3D",
"X. c #A6602F",
"o. c #A9662D",
"O. c #BB7E28",
"+. c #AC6431",
"@. c #A76639",
"#. c #AF6938",
"$. c #B26F36",
"%. c #AD7831",
"&. c #A66E46",
"*. c #B06F40",
"=. c #B17245",
"-. c #B57A47",
";. c #B3774D",
":. c #B87E52",
">. c #798A2B",
",. c #6B8538",
"<. c #728736",
"1. c #728A3D",
"2. c #7A9539",
"3. c #3A807E",
"4. c #55865B",
"5. c #668847",
"6. c #78A357",
"7. c #528C6B",
"8. c #569374",
"9. c #599B7B",
"0. c #649B6B",
"q. c #639F73",
"w. c #76AF6B",
"e. c #69AA77",
"r. c #8D901E",
"t. c #B9871D",
"y. c #AD9B11",
"u. c #9FA519",
"i. c #A7AC19",
"p. c #B4AF12",
"a. c #B5BA1A",
"s. c #89992B",
"d. c #879B32",
"f. c #91903C",
"g. c #BF832D",
"h. c #BE8B2A",
"j. c #B39C23",
"k. c #BD8535",
"l. c #9AA829",
"z. c #93AA36",
"x. c #A2AD23",
"c. c #A9B627",
"v. c #B1B52E",
"b. c #C1991B",
"n. c #C4BC0A",
"m. c #C6B81B",
"M. c #D4B117",
"N. c #E3BD1B",
"B. c #C38E22",
"V. c #C38D2A",
"C. c #C79429",
"Z. c #C08C37",
"A. c #D1AA2C",
"S. c #BEC219",
"D. c #BDCB29",
"F. c #ADC73B",
"G. c #B3CD3B",
"H. c #BDD334",
"J. c #BAD33A",
"K. c #CCC50A",
"L. c #D6CA09",
"P. c #DBD40A",
"I. c #C6C815",
"U. c #D3C915",
"Y. c #D6D514",
"T. c #EACF0E",
"R. c #E9D608",
"E. c #F4DB0D",
"W. c #E8C715",
"Q. c #E7D511",
"!. c #DDE11A",
"~. c #E9E109",
"^. c #E3E416",
"/. c #C6D52D",
"(. c #CAD72A",
"). c #D1DC24",
"_. c #C4D935",
"`. c #DAE223",
"'. c #88A946",
"]. c #8CB350",
"[. c #8AB758",
"{. c #A3BF41",
"}. c #84B761",
"|. c #C38E45",
" X c #9AC353",
".X c #A5C747",
"XX c #8CC26A",
"oX c #085583",
"OX c #085A8C",
"+X c #0A649C",
"@X c #166891",
"#X c #18719C",
"$X c #367F8E",
"%X c #0B67A0",
"&X c #0D6BA4",
"*X c #0D6DAB",
"=X c #1675A6",
"-X c #0E73B2",
";X c #0B7CBD",
":X c #1079B8",
">X c #0B7EC1",
",X c #3C8C8F",
"<X c #1583B9",
"1X c #3D98A0",
"2X c #47948B",
"3X c #55A48C",
"4X c #58AC96",
"5X c #0D81C5",
"6X c #0F86CB",
"7X c #128FD8",
"8X c #1292DC",
/* pixels */
"% % % % % % # # % % % % % % % $ $ $ 3 : 4 4 5 5 5 * : * $ 3 5 * 4 + 3 $ 4 3 : : : * * $ $ % % % % # % % % % % % % % % % % % % % ",
"% % % % % l m M z l l z l v $ * 3 3 3 3 7 8 5 5 5 5 4 5 S Q d ,.>.,.W W ,.s d s ,.9 F F 7 % c c c c c c c c c l z l l c m n l % ",
"% % % % # n oXOXL M M V V V 5 s d Q ,.2.,.,.,.,.,.s >.h 8.w.w.0.6.6.0.6.{.6.6.6.].0.q.3.F l K U U U U U U L K M M M M L OXoXc % ",
"% % % l n U +X+XU K K P C Z 3 s d Q ,.1.s.d.x.l.2.,.r.,.9.w..Xe. X[.w.w. X}.[.[.w.e.4X,XH z U OXOXOXOXOXoXU L K K K K U *X+XM % ",
"% % # n oX+XoXU L P P Z Z F s h ,.,.,.,.d.d.x.x.s.,.>.,.6.2Xe.}.e.e.e.w.2X2Xe.w.1X1X1X<XK z U OXOXOXOXoXU L K K K K K Y *X+XM % ",
"% l n U +X+XU K K P P P P F f 7 A 5.K ,.Q Q d.,.,.>.>.9 7.w.[. XG.G./.9..XG.w.w.[.XX4X3Xg d Y +XoXY oXY L K K K K K K Y &X+XM % ",
"% m oX+XY U K K K K P P P G 7 >.>.2.d.x.S.S.c.S.c.x.u.i.{.F.G..X.X.X.X.X(.H.H.H.H.G.XX[.g d +X+XY L L L L K K K K K K U +X+XM % ",
"% M OX+XU B B B K K B K G n l a d 5.z.d.S.c.I.P.S.c.S.S.{.{.)./.H.H./.).(.H.H.H.).J.XX[.Q d OX+XU M K K K M K K K K U OX*X+XM % ",
"% z L U K K K K K K K K K d a s.l.x.S.z.S.S.S.P.c.S.a.a.'.[.J._.H.H././.H.H.H.H.).J.XX[.5.s K U K K B K K K K K K L +X-X;X+Xn # ",
"% z L Y Y Y Y Y Y U Y Y Y 5.a s.l.z.c.z.D.c.F.S.c.a.K.S.G.J._.).H./.H..XH.H.H.H./.G.XX[.g a K U Y Y Y Y Y Y Y Y Y OX-X<X;X+XM # ",
"% m OX*X&X*X*X*X*X*X*X*X*X4.d l.6.].G.6.D.{.H.!.(.D.L.Y.Y.J.`.^._.H._.^.`.`.^.~.`._._.G.2.s.z.8.8.8.9.*X&X*X*X*X*X-X;X5X>X+XM # ",
"% n oX&X+X+X+X+X+X+X+X+X+X4.s.>.c.D.D.D.D.D.~.^.~.~.~.~.^.^.~.^.^.^.!.!.!.`.G.G././.F.F.c.x.4.7.8.%X+X+X+X+X+X%X+X+X+X+X+XoXn # ",
"% % n K K M M M n M V V V g f r.i.x.S.S.S.K.K.P.I.P.P.P.L.R.~.~.Y.Y.Y.Y.P.Y.P.S.P.S.2.>.,.a c K M M M n M M M M M M M M M n l % ",
"% % l % z % % z n M M V g g f u.i.i.S.K.P.P.P.~.K.P.P.P.n.L.P.P.S.S.K.K.S.S.S.S.S.S.u.2.d a & V z c M M M n l # % % l l l l % % ",
"% % n M M M M K OX@X@X@X#X4.5.u.i.x.S.i.L.p.K.P.p.L.P.L.n.n.L.L.P.P.L.L.P.S.S.i.S.c.2.2.4.Q U U U U +X&X+XoXn % % % n M M n l % ",
"% z M L K K K U +X=X@X#X=Xq.5.s.c.i.S.p.K.p.L.R.L.K.P.P.n.n.R.L.K.K.S.K.D.D.i.i.S.c.].z.4.4.Y Y oXOX&X-X-XOXm % % l M K L M l % ",
"% z M K K K K L U T V T #X0.5.s.x.x.K.p.L.n.T.R.N.L.T.R.L.M.T.R.M.M.b.T.N.y.p.p.a.2.2.2.J L L L L U U Y Y L z # # l M L B M z % ",
"% z K K K K K K L N x N %X8.6.s.s.i.y.y.b.A.T.N.W.W.T.E.M.N.T.N.M.M.N.W.M.b.n.p.>.,.d.G W G ~ G H H H K B B M m l z M B K M l % ",
"% % M K K K K K B N & N %X7.^ g e r r.| V.M.N.T.E.E.E.E.E.E.E.E.T.T.W.W.M.V.b.j.w e s.5.d.2.d.~ k H G B K U OXoXn l M L K M l % ",
"% z L Y Y Y Y L L M l M $X2XJ W 0 w ' $.Z.M.N.N.W.W.E.W.E.E.E.E.E.N.N.M.A.Z.V.) w 0 s H ~ k H A H K K K B Y *X%XM l M K K M z % ",
"% m OX*X&X&X*X+XU M l M +X=XT N = , ` V.O.Z.C.A.|.A.A.A.A.A.A.A.A.|.|.k.V.O.k.%.w @ m K K L K L L B K B K Y -X+XM l M L K M l % ",
"% n oX+X+X+X+XOXK c l n oXOXI b O o i o.O.O.g.k.*.;.:.;.:.-.:.;.Z.Z.g.g.Z.@. .i ; @ c M M M M m M M M M M L OXoXm l M K K B z % ",
"% l n M M K M n c l % % m n z % # + < t [ +.#.#.#.#.$.#.$.$.#.#.g.g.g.g.Z. .t = @ % l l l l l l l l l l l z n n l l M K K M l % ",
"% z M M % % n M M M M M M M M M M c l < i ` ` ` ` ` ` ` ] ] ` _ ` ` ` ` [ p 1 = @ l m m l l m M M M M M M M M n l l M K L M l % ",
"% M +X+XM c oX%X%X%X%X%X%X%X+X%X+XoXn @ - - - < < < , < < < , < < , < < < 1 t t = n OXOXn n OX&X&X%X%X+X+X+X%XoXm l M B B B l % ",
"# K :X-XK n OX*X*X-X;X;X-X-X:X;X-XOXn @ > > ; < < < < < < < o < < o . O o 1 _ ` 2 6 oXoXn M %X6X6X>X>X>X>X>X>X%XM l B L L B z % ",
"# K :X:XK l K Y U OX-X-XOXOX-X-XOXL v > E  . . .} } } } } } ` ` ` t o . 2 _ ] ] _ t > v # M &X6X>X>X;X;X>X>X>X%XM z L oXoXL z % ",
"# K :X:XK l M K K L +X+XU L +X+XL v > i &.:.:.:.;.*.*.*.=.*.#.+.+.] 2 1 t _ ] { { _ 1 . @ M &X6X>X;X;X;X;X;X>X%XM z U OXOXU n % ",
"# K :X:XK % M K K K U U L K U L v > E &.;.:.:.:.=.=.=.=.=.*.#.X.+.X.[ u 1 1 ` X.{ ] _ 2 . m &X6X>X;X;X;X;X;X>X%XM z U OXOXU n # ",
"# K :X;XK l n K K K B K K K M v > i &.:.|.|.:.;.=.=.=.=.=.*.#.*.#.#.#.[ 2 2 ] X.{ { { _ 1 > oX&X;X>X;X;X;X;X>X+XM z U OXOXU c % ",
"% K :X<XK % M L K K K L K M % = E &.;.|.W.N.k.;.=.=.=.=.=.=.*.*.*.*.#.X.[ [ X.+.X.X.{ ] _ t > K &X5X>X;X;X;X>X+XM z U OXOXU c % ",
"# M +X+XM l n M M M M M m v . 2  .:.:.|.N.N.k.=.*.=.=.&. .} } } } } ` ` ` [ X.+.+.X.{ ] { _ 1 = Y +X-X;X;X;X>X+XM z K Y U B z # ",
"% z M M l % % l l l l % O . 1 ` &.:.:.:.Z.%.=.*.=.=.*. .t - - - < < o < < 2 ] +.+.X.{ ] ] ] _ 2 = M %X>X>X>X>X&XM @ l z z z l % ",
"% % % l l z z l z l l #   . o.g.;.:.;.;.=.*.*.=.=.&. .i o + X < < < < < < 2 u ] X.X.{ { ] ] { u . % %X>X>X>X>X-XM l n M M n l % ",
"% l c M M M M M M M M c O ( U.W.A.;.;.=.=.*.=.=.=. .2 .   . i } } } ` ` ` u 2 t [ +.X.X.{ ] { u . v *X8X8X8X8X-XB n oX*X*XoXn # ",
"% z M L K L L P P P P b @ ( W.W.|.;.=.=.=.=.=.&. .i .     . i } } } [ [ +.[ t t [ +.+.X.{ ] ] u o v @X>X-X-X>X+XM M %X>X>X%XM # ",
"% l M L L K K C P I P V @ <  .$.:.;.=.=.=.=.=. .t o         . < < < < t [ X.[ [ X.+.+.X.{ ] ] u o O m B B B B M l M +X>X>X+Xm % ",
"% l M K K K K K P P C N @ , ` #.;.;.=.=.=.=.=. .t o         . - < < < t [ +.+.+.+.+.+.X.{ ] ] u < O % l l v l l l m oX%X+XoXn % ",
"% l M P P P P G H H H A @ < ` +.#.#.*.=.=.=.=.&. .i .     . i } } }  . .X.+.+.+.+.+.+.X.{ ] ] u o @ c M M B M M M B U Y oXB z % ",
"% l m V V V V G A A A 8 @ , ` X.+.+.*.=.=.=.=.*. .i .     . i } } } }  .X.+.+.+.X.+.X.X.{ ] ] u o @ m B B B B B B B B B B M l % ",
"% % l & & & x 7 6 8 8 7 O < _ X.X.+.*.=.=.-.$...y -         . - < < < t [ +.+.+.+.X.] { ] ] ] u < @ n B B B B M B B M B B M v % ",
"% l m M M n 7 % z n c l O < u { X.+.#.$.*.=.-...y -         . - < < < t [ X.[ [ X.X.{ ] ] ] ] u o @ B Y oXY oXoXoXoXY oXoXB c % ",
"% n oX%X%XoXn d Q ^ ^ ! a < u { X.+.+.#.+.$.$.-...p .     . p } } } [ [ X.[ t t [ X.{ ] ] ] ] u o v OX*X*X*X*X*X*X*X*X*X*XOXm % ",
"% M +X5X5X+Xn d ~ 7.^ ~ q < u { X.+.o.o.o.h.k.k.k.%.2 =   . y } } } ` ` ` _ 2 t [ X.{ ] ] ] ] u o v OX+X+X+X%X%X+X+X+X&X%XoXn % ",
"% M %X5X5X+XM d ~ ^ ^ ! q , u { { | | X.o.g.g.k.Z.k. .i o @ - < < < < < < 2 _ [ { { ] ] ] ] ] u < @ c M M M M M M M M M M n l % ",
"% M +X>X5X+XM f j 5./ d a o u { ] ' | ' o.g.g.Z.Z.k.=. .t - - < o < < < < t [ +.{ ] ] ] ] ] { u < O l c z n c z z c c c z l l % ",
"# M +X>X>X+Xm j m.a.1.d e - u { ] { X.X.g.+.+.#.*.=.=.&. .} } } ` ` ` ` ` ] X.X.{ ] ] ] ] ] { u - @ B B oXB oXB B oXB oXB B z % ",
"% M +X>X>X+Xd j m.m.1.W a e ( ) t.t.X.X.o.B.B.C.C.C.C.*.=.#.*.*.#.+.+.+.X.X.X.X.{ ] ] ] ] ] _ 2 = v U +XOXOXOXOXoXoXoXOX&XoXn % ",
"# M +X<X<X@XM f 5.1./ ! ! v = 2 _ { { { X.B.B.B.B.V.C.#.#.#.#.#.+.+.+.X.{ { { { ] ] ] ] { _ 1 = v B oXOXOXOXOXoXB B Y oX%X+Xn % ",
"# M +X<X<X#XD j ^ ~ ~ / k D < = t _ ] { X.B.B.B.B.B.B.X.X.X.+.+.+.+.X.X.{ ] ] ] ] ] ] ] _ 2 = l M B oXoXoXoXoXoXB U B oX+XoXn % ",
"% M +X<X<X0.f.m.5.! ! 1.U.A.D v = 1 _ { { t.t.t.t.t.t.{ { X.X.+.+.X.X.{ { ] { ] ] { { _ 1 = v M B B B B B Y B B B U +X+XU n l % ",
"% M +X<X:X0.f.a.<./ ! 5.U.v.D B % = 2 u u ) ) ) ) ) ) u u _ ` ` ` ` u u u u u u u u _ t = l B K B Y B B Y B B B oXoX+XoXn # % % ",
"% M +X<X<X=XA j ~ Q Q / <.D C B M v = . r r r r r r r r r r r r , < , o o o o o o o o = v M B B B Y B B B B B Y +X+XB n l % % % ",
"% M +X5X5X+XA 8 A W W W D D P P D A ; = O q q q q q q O O O O O O O O O O O O O O O O O c M B M M B M B M B B B OXoXB # # # % % ",
"# M +X5X5X+XM & B P P / Q.m.~ / U.U.6 @ # 0 a a a 0 a # # # # # # # # # % % # % # # # # l l l l l l l l l l l z m n l # # # % % ",
"% c oX*X:X+XM x C I I / P.M.~ ! U.U.7 $ n g g d a a s # # v 6 6 N n z l l l l l l z c c c c c c c z l l M B M M m B B B B M l % ",
"# l c U *X%XM z L Y L P D D I P D D 3 N oX8.8.4.d a a % % ; A.m.$XOXL B M B B M B B U U Y U U U Y B z M +X-X&X+X+X*X-X>X*XOXm % ",
"% l c L *X%XM z U oXU L B B P / J P v V +X3X2X'.f.j a l l S p.m.$X+XoXB B B B B B L Y oXoXoXOXOXOXU z B :X8X6X>X>X>X7X7X>X*XB @ ",
"# n oX*X;X%XM z U OXoXU K B G E.Y.J z M R ,XR l.Q.K.~ m M V D D Y U B B B L B B K L L L L U oXOXOXU z B :X8X>X>X>X>X>X>X>X%XM # ",
"# M +X;X>X%XM z U OXOXoXY L H ~.Y.H z k 0.=XT ~ Y.U./ G H H G G B B B L L B B L K K K B B L oXOXOXL z B :X8X>X>X>X:X>X>X>X%XM # ",
"% n oX*X:X%XM z U OXOXOXoXY L H D B h L.).e.T S / / P G G G G G B B B B B B B L B L B B B L oXOXOXU c B :X7X>X>X>X>X>X>X>X%XB # ",
"% z B oX+XoXn z L U U U U L B M M n f U.U.4.L M M M B M B M B M B B B B B B M B M M B M M B L U U B l M +X-X*X%X+X%X+X%X%XoXn % ",
"% l z n M n l l z z n c c n z l l l % h k m z l z l l l l l l l l l l l l l l l z l l l z z z n n z l l M B M M B M M M M n l % ",
"% % % # % # % % % # # % # % % % % % % % # # % % % % % % % % % l % % % % % % % l % % % % % % % # % % % % # # # # # # # # # % % % "
};
