/* XPM */
static char *xpm_[] = {
/* columns rows colors chars-per-pixel */
"64 64 16 1 ",
"  c #094165",
". c #083959",
"X c #052B43",
"o c #052439",
"O c #093F62",
"+ c #084D78",
"@ c #0A649C",
"# c #085788",
"$ c #0C7CBE",
"% c #063452",
"& c #09466C",
"* c #05304B",
"= c #0C6CA8",
"- c #0F76B5",
"; c #0F82C6",
": c #1290D9",
/* pixels */
"oooooooooooooooooooooooooooooooooooooooooooooooooooooooooooooooo",
"XooooX%.*XXXXXooXXXXXXXXXXoX.OO...........O.XX*********XXXX*%%Xo",
"ooooo%##&....%XX%........%X.@-=@@@@@@@@@@=-@.X ++++++&O....&##%o",
"oooX%&@@+    .XX.        .XO-:;;$;$$;$$;$;:$O*+######+&   O+=@.o",
"ooo%#@#+&    .XX.        .X.=;;;$$$$$$$$$;:-O*+#####+&    O+=@.o",
"oX%&@@+OO    .XX.        .X.@$;;$$$$$$$$$;:-O*+@#+#+&O   OO+=@.o",
"o%#@#+ O     .XX.        .X.@$$;$$$$$$$$$;:-O.@=+&&&     OO+=@.o",
"o.#@+OOOOOO  .XX.  OOOO  .X.@$$;$$$$$$$$$;:-O%#@+OOOOOOOO +#=@.o",
"o*&+ OOOOOOOO.XX.OOOOOOOO.X.@$$;$$$$$$-$$;:-OX + OOOOOOOO+@--@.o",
"o*&++++++++++&**&++++++++&*.@;;;;;;;;;;;;;:-OX ++++++++++#-$$@.o",
"o%#==========#%%#========#%.=::::::::::::::-O%#===========-$$@.o",
"o%#@=@@@@@@=@#%%#@=@@@@@@#*%#--------------#%%#@=@@@@@@@=@@@@#%o",
"oX%...O......%XX%....O...%XX%OOOOOO OO   OO.XX%.......O......%Xo",
"ooXXXXX*%....%*XXXXXXXX*%........*oX%%XoX********%...%XoooXXXXoo",
"oX%....&#@@@@#&........&#@@@@@@@@+*%##%X +++++++++@=@#%ooX%..%Xo",
"oX.    +@=@@-=+O       +@===@=@==#..@#.*&##+#+#+##@--#%ooX.  .Xo",
"oX.    &+&O&==+O       &+++++++++&OO+&*XO&&&&&&&&++++&*ooX.  .Xo",
"oX.  OO O.X.@=+OO       O OOOOOO O   .XX.  O OOOOOO OO.%XX.  .Xo",
"oX.OOOOO .X.@=+OO       OOOOOOOOO    .XX.         OOO&##%X.  .Xo",
"o*&+++++&.X.@=+O                     .XX.            +=@.X.  .Xo",
"o%#====@+.X.@=+O                     .XX.           O+==.X.  .Xo",
"o%#@@@@#&*X%##&......................%XX%............&##%X.  .Xo",
"oX%....%*XoX%%*XXXXX*XXXXXXXXXXXXXX*XXooXXXXXXXXXXXXX*%%XX.  .Xo",
"oX..XX%..........%XooooooooooooooooooX%.**%%XX%........%XX.  .Xo",
"o.@@.%#@=@@@@@@@=#%oooooooooooooooooo%##&&##%%#===@@@@@#%X.  .Xo",
"o $$ %#==-$$--$$-#.XXXXXXXXXXXooXXXXXO@@++=@..=;;;$$$;$@.XO&&O*o",
"o $$OX&++#--##--#+O..........%XX%....O++&+=@..=;;$$$$$;@.*&##&*o",
"o -$ X.OO+@@++@@+O           .XX.     OOO+=@..=;$$$$$$$@.*+##+*o",
"o -$ X. O&++&&++&O           .XX.     OOO+=@..=;$$$$$$$@.*+##+*o",
"o $$ X.   OO  OO            &.XX.      OO+=@..=;$$$$$$;@.*+##+*o",
"o $$ X.                      .XX.O     OO+=@..=;$$$$$$$@.*+##+*o",
"o.@@.X%......................%X*&+&O   OO+=@..=;$$$$$$;@.X ++ *o",
"oX..XoXXXXXXXXXXXXXXXXXXXXXXXXo.@@+OO  OO+=@..=;$$$$$$$@.oX***Xo",
"ooXXXXXXXXXXX*%.%*oX..*XXX***XoO=-#+ OO&+#=@..=;;;;;;;;=.X%..%Xo",
"oX%..........&#@+OX.@=&..O&++ X.=;-@+OO+@=-@.O-::::::::-O%#==#%o",
"oX.         O+=-=+*O$;#OO&###+*%#-$-# O+=$$@.%@-------$@..@;;@.o",
"oX.         O+=$-@%O$;#OO&###+**&#--@+ +=$-@.X%OOOOOOOO.X.@$$@.o",
"oX.         O+@==#%O-;#OO&+##+*X.+@=@#&+=$-@.X%%*XXXXXXXX.#@@#%o",
"oX.          &+++&XO-;#OO&+##+*X.&+#==++=$-@.%##&........O&++ *o",
"oX%..............%X $;#OO&###&*X.OO+@@++=$-@.%#@+OO      OOOO.Xo",
"ooXXXXXXXXXXXXXXXXo $;#OO&##+OXX.OO ++ +=$-@.*&+&OOOOOOOOOOOO.Xo",
"oX%..%XX******XXXXo $;#OO&++&.X*&++++++#-$$@.* ++++++++++++++&*o",
"o%#==#%X ++++&O..%X $;#OO && .X.@--====--$$@.%#==============#.o",
"o.@;;@.*&####+&  .X -;#OO && .X%#==@@=@@@@@+*%#@=@@@@@@@@@@@=#%o",
"o.@;;@.XO&&&&&   .X -;#OO&++&.XX%..O......%*XX%..............%Xo",
"o.@$$@.XO& OO    .X -;#OO&++&.XoXXXXXXXXX*%...%**************XXo",
"o.@$;@.*&+&OO    .X -;#OO && .XX%........&#@=@+++++++++++++++ *o",
"o.@$$@.*+#&O     .X -;#OO    .XX%OO     O+@--=##+#######+#+#@#%o",
"o.@$;@.*+#&O     .X -;#OO    .XoX*O      &#@@#+&&+######+&&+=@.o",
"o.@$$@.*&+&      .X -;#OO    .XooX.      &++++&OO&+####+& +#@#%o",
"o.@$;@.XO&       .X -;#OO    .XooX.       &&&& OO &&&&&&O+@@&%Xo",
"o.@$$@.X.        .X $;#OO    .XooX.                   O&+#@#%ooo",
"o.@$;@.X.        .X $;#OO    .XooX.                   O+@@&%Xooo",
"o.@;;@.X.        .X.@=&......%XooX%....................&##%ooooo",
"o.@;;@.X.        .XX..*XXXX*XXXoooXXXXXXXXXXXXXXXXXXXXX*%%Xooooo",
"o%#=$@.XO&       .XX%..%XooooooX%.*XXXXXXX********XX.O....OOO%Xo",
"oX*+=@.*&+&O     .X%#@@#%oooooo%##&......O&++++++ X.@-=@@=--=#%o",
"oX%+=@.*+#+&    &OX.@$-#.XXXXXXO#@+      &+######+*O$:;$$;::;=.o",
"o%#=-@.*+##+&OO&+&*.@-#&O......O++&       &&&+###+*O-:;$$$;;;@.o",
"o.@$;@.*+###+& &+&*.@=+O         O         OO&###+*O-:;$$$$$;@.o",
"o%#=$@.*+####+& &OX.@=+O                     &###+*O$:;$$$$$;@.o",
"o* #@#%* ++++&O..%X%##&......................O&++ X.@-=@@@@@@#%o",
"oX*%.%XX*******XXXoX%.*XXXXXXXXXXXXXXXXXXXXXX*****XX.O.....O.%Xo",
"oooooooooooooooooooooooooooooooooooooooooooooooooooooooooooooooo"
};
