/* XPM */
static char *xpm_[] = {
/* columns rows colors chars-per-pixel */
"64 42 141 2 ",
"   c #121E2C",
".  c #15212F",
"X  c #162231",
"o  c #1A2634",
"O  c #1C2936",
"+  c #1E2A39",
"@  c #212B37",
"#  c #212E3C",
"$  c #25313E",
"%  c #28323E",
"&  c #263241",
"*  c #2A3644",
"=  c #2C3946",
"-  c #2E3A49",
";  c #303A46",
":  c #323E4C",
">  c #34414E",
",  c #39434F",
"<  c #364251",
"1  c #394654",
"2  c #3C4956",
"3  c #3A4758",
"4  c #3E4A59",
"5  c #404A56",
"6  c #404C5A",
"7  c #404C5C",
"8  c #404D5D",
"9  c #414D5D",
"0  c #414F5C",
"q  c #424E5C",
"w  c #434F5D",
"e  c #414E5E",
"r  c #424E5E",
"t  c #424F5F",
"y  c #434F5F",
"u  c #414D5C",
"i  c #43515E",
"p  c #44505E",
"a  c #45515F",
"s  c #44525F",
"d  c #45515E",
"f  c #435060",
"g  c #445060",
"h  c #445161",
"j  c #455161",
"k  c #465260",
"l  c #475361",
"z  c #455262",
"x  c #465262",
"c  c #465363",
"v  c #475363",
"b  c #465461",
"n  c #475562",
"m  c #475465",
"M  c #465261",
"N  c #485460",
"B  c #485462",
"V  c #495563",
"C  c #485663",
"Z  c #4B5763",
"A  c #485464",
"S  c #485565",
"D  c #495565",
"F  c #4A5664",
"G  c #4B5765",
"H  c #485566",
"J  c #495666",
"K  c #495667",
"L  c #4A5666",
"P  c #4A5767",
"I  c #4B5767",
"U  c #4A5664",
"Y  c #4A5865",
"T  c #4B5966",
"R  c #4D5965",
"E  c #4C5866",
"W  c #4D5967",
"Q  c #4C5A67",
"!  c #4C5866",
"~  c #4A5768",
"^  c #4B5868",
"/  c #4C5868",
"(  c #4C5969",
")  c #4D5969",
"_  c #4E5A68",
"`  c #4F5B69",
"'  c #4C596A",
"]  c #4E5A6A",
"[  c #4E5B6B",
"{  c #4F5B6B",
"}  c #4E5A69",
"|  c #505A66",
" . c #515D69",
".. c #505C6A",
"X. c #515D6B",
"o. c #505C6C",
"O. c #505D6D",
"+. c #515D6D",
"@. c #515F6C",
"#. c #525E6C",
"$. c #535F6D",
"%. c #505D6E",
"&. c #525E6E",
"*. c #535F6F",
"=. c #515D6C",
"-. c #52606D",
";. c #54606C",
":. c #54606E",
">. c #55616F",
",. c #54626F",
"<. c #55616E",
"1. c #546070",
"2. c #546171",
"3. c #556171",
"4. c #566270",
"5. c #576371",
"6. c #556272",
"7. c #566272",
"8. c #576373",
"9. c #556171",
"0. c #586472",
"q. c #596573",
"w. c #586474",
"e. c #596774",
"r. c #5A6674",
"t. c #5B6777",
"y. c #5A6675",
"u. c #5C6876",
"i. c #5D6977",
"p. c #5C6876",
"a. c #5D6B78",
"s. c #5F6B7B",
"d. c #5D6A79",
"f. c #616B77",
"g. c #606C7A",
"h. c #626D79",
"j. c #67727E",
"k. c #637080",
"l. c #697583",
"z. c #6B7785",
"x. c #6B7785",
/* pixels */
": y ~ / +.| F : I a V V F a > | t.: 5 F F < z m H %.%.] : j m ~ L L A - A f.7 : ~ K 7 : ~ ' H 8.~ g : ' a V Z I 1 5 I V F 7.~ 4 ",
"& y +.j F I I > a V a w > + # 6 s.: 4 F 1.1 : %.' A ' I 7 3 ' y 7 : * & : f.m - K ~ K - j ] ~ %.x ~ : ~ V w , ; # 1 V V j / m ~ ",
"X * < 7 1 3 q.= % : & o O # * w | - @ : : & O : 7 3 : 8.3 + : - @ @ @ @ r r r X : 3 &   - 7 7 : K ' + : : # @ # @ X * 4 3 : ~ %.",
"o & X & @ ; 2 ; F V X.> X./ = * A : : - 3 - & o @ & * 7 - 7 ~ %.7 3 7.: & 1 5 : * - 3 & * o & & : 3 : ~ V I : q.2 o @ O & & 3 1 ",
". 4 H - 3 D D & d d <.1 5 +.O O # # V 5 { : * ] : : K m : 3 7 ' k : q.= o # @ 1 g x K & m 7 * g %.3 * m r +.: W 4 # m 3 - e ' 3 ",
"& m H 3 & 1 w @ # 1 6 # > V X * X X 5 3 1.3 : ' m * : r * o : 7 ; # ' * # $   : j x x - ~ ' - - 7 3 X * : 3 o D 4 : T ' * : 3 3 ",
"= 7 %.4 : V k # % $ X # - a % - 5 @ o : 1 : 2 k { : x m : & & o o = 5 : % 1 ;   * 3 : : 7 3.: 8 K 3   * * @ # : 6 < e 2.- e m 3 ",
"* 8 H 3 5 D *.= o $ O # p a * 4 *.1 r r H - 1 h z : ~ &.7 O & & o 1 I ; : +.k : m x 7 - y ' : ' ~ ' & & & o ; m 2 > e ' : ' K ' ",
"o 3 *.1 % a +.* 1 6 6 * 6 R * 2 2.4 z H t.: = V | O 4 | 3 ; 5 h - : *.; 1 V V 2 / / m & r 8.& : 4 T - 4 w 1 % ;.2 * w 8.& 1 e m ",
"+ - w - > a j % 2 6 V > : 4 * 6 H & : : : : & 1 6 & w V < - w w r & 5 : > j 2 % 1 - 1 & : g * : C i + C 1 V * 2 > % 1 m = 3 z 3 ",
"& : * < 1 1 > % > = = = = > # > : : : - 1 & - - - : 6 2 & ; 1 & = - < # * > : > : - : & : : - 3 4 > = , * * - - * * < : - < 3 < ",
": t./ 8.T n : * 0.x.> Z V 0.a V %.' t.8.o.5 ] +.>.q.j 6 # j l.V 2 | <.I V ` ` R k.*.F j &.{ 8.{ 4 = 1 i.a.: +./ 7.4 t./ 2.' z : ",
"+ - 1 & # X . % 2 T % - a R # + 4 y 3 4 R > # 1 * * X X X 3 A 1 # 6 a < . < w 4 3 y z + : : - @ . . > 4 j + 1 w 8 = - > & # X X ",
"& 3 7 4 & w 1 : 1 X.- * : = % # + : - : >.> : 6 6 & > 6 ; 2 V 5 # ; < * O + * : - ~ z * z 9 - * 4 > 1 4 / & - - > & e 4 3 * e < ",
"- H z %.1 V ` + # > = w > R * # : O * 1 > * a V X.a 6 r.* o : - 4 5 4 w o > * # : 1 - : ' ' ' 3 ,.4 . > - - m 3 ' 3 m m %.< %.~ ",
"+ 1 3 *.* 6 R X % . + a 6 >.* 2 8.w < a 5.> * 2 / > ; >.# # o X 2 w I 5 = *.R ; y %.z & 4 9 I & @.> o O   : z e ' # 3 4 %.& h ~ ",
"X X # # O : a o > # . > < T > < b n # , 2 # . # # # # j & # * o * : r 7 : 7 %.* = 2 >   O # # o 4 < O > + O , 2 n X O + % X 1 n ",
"o # % O * , a - 4 @.# $ > > > 4 C n 2 a.,.> # $ @ @ 1 w : : o.: @ : 3 * 3 m ' : q.0.a X = % o - 4 4 & n a O = 1 > X & * X * w / ",
"o * % % # a R * 4 -.3 @.C e.* > n C * 4 Q > O > ; o 1 *.- 1 ' h h +.1.7 * r 2.* 2 a a O & - @ - -.< > 4 Q 2 <.Q 0.O * = & * ~ w ",
"% V  .>.: T R > 4 ,.$ 3 4 C > * Q Q # 4 Y > 2 Q *.5 : *.3 7 o.1 ; w 7 5 & 7 2.* 2 V a - 0.X.F - @.4 4 C T $ s 1 V = | R 7.: m F ",
". > * - % = & O * > & * O * $ > > % % 2 > $ % > * ; & : + * - * & * # - * - : # > : - + ; & : # > * & = > # - O : O : = > & & - ",
"= V 6 / 2 6 V n -.Y Y > Y b C Q s 2 > s a.> 4 4 W 3 w k H m { ' 5 5 o.7 ' [ ' * 5 t.j < V V 5 2 T s 4 @.T n > @.w I I *.> : ' w ",
"@ d / 7.* 1 F w C b Q < 2 C 4 4 > O @ 4 ,.> 1 4 +.5 ; D m m o.m w : ' w h : & X : q.j = I V | * 4 n 4 @.4 C > s a a 5 * o 1 F ' ",
". > 1 ; o + : w < 3 e.= $ > * O # # = 4 Q > # 4 3 O O * r : : 1.7 @ : ; # O & & 4 w a X : 3 ; o & 3 4 < n ,.O - > * o & + X : - ",
"* 1 * 6 $ $ X + $ - 3 - C T Q < T @.= = p > < > , > O O o & & 3 ; 4 / R w w 7.1 & 3 4 : : : 7 o & o $ % > > > / R R > 0.a > : w ",
"; p 2 ;.$ , ( > 3 m / - < 2 ,.2 2 ,.O o O @ i 4 @.> & ;.1 : H ' < : 5 I F ; *.- X + o 3 m A k @ m j * 6 R a * j 5 >.: a Z : I ' ",
"@ d a V ; p R 6 # 3 i + # > 1 + = T O $ @ o 2 4 T 1 , C [ & * h - o * 1 - + [ - + &   : 7 I V : h [ : % 6 1   & > 1 X a 2 * I F ",
"o a : 1 > 6 Q 6 1 +.R # # $ X $ > i # > 4 o o > , > 4 4 / : ' *.< o # + o * 7 < * 4 - X & : : : w 1.< 4 R 6 + % # X # 1 5   - : ",
"= h.s s > , s 6 w j X.= O # # + 2 i > 2 @., 4 s T - 1 i F < ~ [ 6 . % # o < R : - [ ' : F F 1 - w ~ : / R | X @ # O - F 2 < +.1 ",
"= j.s ;.% > e.4 # 6 X.- 1 i n $ 4 ,.> 1 ,.< 4 i ,.1 $ T 7.+ y y 2 - F V 1 * X.2 3 ~ h : / F F % 3 8.* 1 a I - a V 4 & | j 1 1./ ",
"% ;.% > % > 2 > * 2 a % > 4 i > > 4 % > 4 & > - - - = , i & 3 y : * 6 2 1 * a = : 4 3 & < * 1 @ : j = > 2 5 O w 1 j & , < & 1 3 ",
"= p.> , 2 2 > % > 1 1 : 1 > & 4 , = = > , - > - 1 , 1 1 * - 1 1 > > 1 & > 4 ; * - 3 = - : < < 1 1 : * 1 1 1 : 2 * = : 1 2 1 1 - ",
", x.| R d.o.%.3 w.o.o.| x : : 1.z.: H ' 3.7 g %.' 6.k.%.8 %.%.~ R V 2 # V x.V 1 X.>.F 1 ,.` m k.2.~ e 2.R | F w * w >.X.F t.[ F ",
"@ 5 5 5 3 4 *.& & : & @ X O & y ' & * 7 y + + 3 e e : %.: # : - % X . # 6 a 1 @ 2 6 : X - 4 t 8 t K + < : % o o X # 1 6 w 1 m j ",
"o w % ; & 1 H - 7 r r & | 7 : : ' : - * : & & + - & : ' 3 : 8 f - 1 V 1 > n 6 % = % : O & # - & m y * e a 1 - I : # o & : & F y ",
"o | : # ; 2 3 - I r 3., F &.o @ - - y : ' - * : & * : 3 * m ~ ~ a 6 i.* X * * 1 1 a a X < - & < 3 - 3 [ a X.1 t.5 + 4 & & 3 3 - ",
"; j.5.5 : A ' O : 3 { & 5 I o & X + m 7 %.3 3 w.h - t %.- & : H 1 * >.* # X . 2 j I 6 * *.%.- 8 [ y o 3 y m # | 2 : | | * 4 2.9 ",
";  .| 5 & 3 3 O O + @ O ; r @ & - o & 3 ~ : : ' H # 3 3 & X & & X % a & # = O @ : h 6 2 8 ' * = 3 - X + o # o 2 2 1 7 X.* - 3 - ",
", f.| 5 m %.6.# & * O & 7 g & 7 %.* * 3 : - 8 f m 3 %.%.3 + & & + , a > > >.1 # : 5 : : 8 [ : 8.*.~ X * * X ; w 3 2 r D : 8.1.' ",
"% f.| ; * 7 ' - - - - @ g D & 3 %.3 %.%.k.: : m m & 3 %.: & : : O 1 X.* : R p 6 t.7.h = y *.& < y m & - = = & o.1 = A o.& 3 A H ",
"% ;.<., ; w | : m ' %.: 7 g : r %.: 3 3 7 : - m h * 9 H 4 4 %.%.2 > Z > 2 R 2 : i 1 4 * 2 +.* 1 m 9 : o./ F - A : = 5 | & 9 ~ 7 ",
"@ ; % % ; 5 1 @ - & : & & & + - : - - & * & & * - & : 9 * & - & : # - O $ : : = % & = # & - # : : 1 & : & : # = * # & ; * 1 : : "
};
