/* XPM */
static char *xpm_[] = {
/* columns rows colors chars-per-pixel */
"64 64 213 2 ",
"   c #0D0E0F",
".  c #32310D",
"X  c #2D241D",
"o  c #33291C",
"O  c #392B1F",
"+  c #151E24",
"@  c #16262F",
"#  c #182528",
"$  c #052335",
"%  c #0C2734",
"&  c #052539",
"*  c #0B2A39",
"=  c #132D34",
"-  c #193838",
";  c #252C22",
":  c #2E2E2D",
">  c #3F2F23",
",  c #2A3928",
"<  c #253F35",
"1  c #353734",
"2  c #44381C",
"3  c #403328",
"4  c #513621",
"5  c #5A3D28",
"6  c #1E413D",
"7  c #374A2A",
"8  c #3D522D",
"9  c #2A463B",
"0  c #334639",
"q  c #395638",
"w  c #47491C",
"e  c #5A4F16",
"r  c #655019",
"t  c #65571B",
"y  c #646A1C",
"u  c #4B502E",
"i  c #475A34",
"p  c #62432D",
"a  c #794826",
"s  c #715826",
"d  c #6E4B32",
"f  c #57692A",
"g  c #576D31",
"h  c #536E38",
"j  c #56733C",
"k  c #66752A",
"l  c #657C34",
"z  c #627C3A",
"x  c #052B42",
"c  c #082E42",
"v  c #052F49",
"b  c #0C3142",
"n  c #06324D",
"m  c #083148",
"M  c #163444",
"N  c #063452",
"B  c #093753",
"V  c #0C3B55",
"C  c #073959",
"Z  c #0C3D58",
"A  c #103B51",
"S  c #083E60",
"D  c #1C4549",
"F  c #0D415E",
"G  c #16475A",
"H  c #274C45",
"J  c #214B4E",
"K  c #27514E",
"L  c #2D544C",
"P  c #3A5D43",
"I  c #395E48",
"U  c #204D51",
"Y  c #2A5856",
"T  c #22535B",
"R  c #345952",
"E  c #365D59",
"W  c #3E6145",
"Q  c #3B644D",
"!  c #3A6451",
"~  c #3A6855",
"^  c #396C5D",
"/  c #094164",
"(  c #08466C",
")  c #0E4A6A",
"_  c #134862",
"`  c #185469",
"'  c #064B75",
"]  c #0D4E70",
"[  c #0A507B",
"{  c #0F577D",
"}  c #195D77",
"|  c #215962",
" . c #19617A",
".. c #28646B",
"X. c #3B7367",
"o. c #216779",
"O. c #397870",
"+. c #3A7C7A",
"@. c #745640",
"#. c #40674D",
"$. c #496649",
"%. c #456A4C",
"&. c #547745",
"*. c #5C7B41",
"=. c #486B51",
"-. c #47775A",
";. c #417360",
":. c #897316",
">. c #824D27",
",. c #88522C",
"<. c #965629",
"1. c #93582F",
"2. c #9B592A",
"3. c #8D5D3B",
"4. c #976726",
"5. c #846730",
"6. c #96643F",
"7. c #9D6D3B",
"8. c #A6602F",
"9. c #A46F28",
"0. c #A87329",
"q. c #BD7C2C",
"w. c #AC6431",
"e. c #A76639",
"r. c #AF6938",
"t. c #B47639",
"y. c #A66E46",
"u. c #B06F40",
"i. c #B17245",
"p. c #B57A46",
"a. c #B3774D",
"s. c #B87E52",
"d. c #7F871B",
"f. c #7A8825",
"g. c #718A37",
"h. c #3B817E",
"j. c #548459",
"k. c #628343",
"l. c #6E954F",
"z. c #428379",
"x. c #579473",
"c. c #649A68",
"v. c #5EA37D",
"b. c #74AF6F",
"n. c #67A878",
"m. c #8C9018",
"M. c #A39F16",
"N. c #8C8A29",
"B. c #82922B",
"V. c #9B9427",
"C. c #9C9A36",
"Z. c #91903C",
"A. c #B48328",
"S. c #BB8137",
"D. c #9AA727",
"F. c #9BB031",
"G. c #ACB027",
"H. c #C19718",
"J. c #E2B81F",
"K. c #C68C26",
"L. c #CA9732",
"P. c #DDAF25",
"I. c #D5A42D",
"U. c #DEB024",
"Y. c #E1B720",
"T. c #BE8849",
"R. c #B98051",
"E. c #8BB75A",
"W. c #81B566",
"Q. c #C28C46",
"!. c #8FC266",
"~. c #085583",
"^. c #085A8C",
"/. c #1B6B8E",
"(. c #0A649B",
"). c #0E699E",
"_. c #116595",
"`. c #126A9B",
"'. c #28768B",
"]. c #367F8E",
"[. c #257893",
"{. c #0B67A0",
"}. c #0D6BA4",
"|. c #0D6DAB",
" X c #1775A8",
".X c #0E73B2",
"XX c #0B7CBD",
"oX c #147BB5",
"OX c #1079B8",
"+X c #0B7EC1",
"@X c #3D8789",
"#X c #2F8093",
"$X c #3C9397",
"%X c #3D989D",
"&X c #0E80BF",
"*X c #1482BA",
"=X c #2889A8",
"-X c #3395AB",
";X c #448A85",
":X c #45948F",
">X c #549D84",
",X c #419493",
"<X c #449A9B",
"1X c #58A387",
"2X c #56A895",
"3X c #70B683",
"4X c #4BA6A4",
"5X c #43A3AB",
"6X c #41A5B0",
"7X c #0D81C5",
"8X c #0F86CB",
"9X c #1189CF",
"0X c #1292DC",
/* pixels */
"& & & & & & & & & * * & & & 8 8 7 q * * < < & * * * 9 6 $ $ $ * % $ $ $ * = * % , 6 $ % % * 9 6 $ $ $ $ & & & & & & & & & & & & ",
"& & & & & x A V b 9 9 x x x 8 8 7 q b b 9 9 x c b * 6 9 Z F F K K Z C C Z Z Z K F C F B * * 6 H b n n n n n v v x x v v N N x & ",
"& & & & $ N { ^.) K K Z F q f i P I I &.C C C C C H % N _. X`.'.'.`.`.`.'.'.(.(.h.@X@X+.F 9 / ' ' ' ' ' ' ( S C C C C ( ^.~.N & ",
"& & & x N ] (.).../ / _ _ Q f g I ! ! ! ! ! ! ! / C 8 Q $X6X-X7X+X*X*XOX-X=X+X+X$X%X6X:X/ v ^ O.O.O.^.^.~.[ ( / / / S [ |.(.C & ",
"& & $ N ~.(.~.] ( ! Q ~ ! K q q I ! / / Q ! ! ~ / C 8 I @X%X7X%X$X$X$X=XXXXXXX$X:X<X6X$X! q ~ X.O.O.^.~.' ( / / / / / [ |.(.C & ",
"& c N ' (.(.] _ F Q ! %.%.C k k g.k./ ! Q #.#.#.~ j q W +.$X<Xn.$X$X:XoX$X$X$Xn.$X%X6X$X! k X.h.O.X.X.X.( F / / / / / [ {.(.C & ",
"& B ~._.{ ] Y Y ! ! Q Q ~ h f.k j %./ ! #.#.! #.! l q W +.$Xn.n.$X$X$X$Xv.>X>X$Xv.1X4X$XF q h.h.^ ~ ~ ~ / / / / / F C [ {.(.C & ",
"& C ^.`.) Z Y Y Q Q Q &.k.g.k f j %.*.*.*.*.&.*.G F f j h.:X1Xv.:X$Xv.b.v.>Xv.$Xb.b.6X$XF N h.h.^ Q / / / / / F / / ' ^.|.(.C & ",
"& n ( ' / Y F F G Q %.&.&.W g i j *.*.j k.*.&.k.G Z f j z.,X-X1X:X<Xv.v.$Xb.b.b.>X1X0X*XG b ~ ^ ! Q / / S / / / C ' (..XOX(.N & ",
"& n / [ [ [ X.X.^ l.j.;.;._ i k g.l.X.-...-.[ [ [ %.H K `.-X8X%X%X1X2X=X2XW.b.%X<X<X5X$XI i Y ..[ [ [ { [ [ [ [ [ ^..X+XXX(.N & ",
"& N ^.|.}.|.@X@Xx.x.#Xz.z.h.g.g.l.c.@X{.;X;Xc.c.x.j.W W @X5X3X3X1X4X4X5X!.W.2X4X4X4X4X@XQ W ^.}.|.|.#X[.|.|.|.|.|..XXX7XXX(.C & ",
"& N ~.{.).h.h.h.@Xh.z.c.h.g.D.h j.c.c.c.c.z.c.c.x.j.W i h.@X>Xx.:X$X$Xn.E.E.n.b.E.:X:Xh.h h  .(.{.(.'.'.(.(.(.{.{.(.(.(.(.~.N & ",
"& x N C C Q I I W P g.j W f.m.k B.g.g.D.z j j g.*.f.k g P g.*.g.Q g.g.g.&.D.D.G.G.h ! h q q N F C C B C C C C C C C C C C N x & ",
"& & x * b * 8 q q Q q P j W q f.f.g f.k y m.y y f m.f y 7 y f y 7 f y f B.D.M.M.G.m.f.q q q q q v n C C C N & & & & x v v & & & ",
"& x N F F B W ! O.h.(.h.h.l.k.f.B.g.g.8 y y y y w w w w w w w w w w . 8 F.F.B.d.D.F.F.^ ^ ^ ^ ^ ' [ (.{.{.~.n & & * N C C N v & ",
"& x C / / Y Y ..`.`.(.h.@Xb.l.k.g.Q q i e r :.:.t t t y s t t t t t t y l.F.B.D.F.j.X.X.O.X.O.X.X.O.}..X.X^.N & & x C / / C x & ",
"& c C / / / / ) ' ' %.=.x.;XX.Q g.j f :.:.0.4.4.,.4.4.4.,.4.4.4.,.<.9.4.2.H.m.m.B.] ' ~ &.&.~ ~ ~ ^ [ [ [ ( v & & x C ( S C x & ",
"& v C / / / F F S C 9 K h.@X^ g.g.k e r 9.r.K.A.K.K.K.K.q.q.K.K.q.q.H.K.K.H.M.y i A F / &.&.! ! S / / S S S C B x x C / ( C v & ",
"& x C F F / / / / C * G `.@X^ j f o p <.t.L.I.P.Y.Y.Y.Y.P.P.Y.Y.U.U.J.P.K.t.A.s o u h / ! ! ! ! / / / S S ' ^.~.N x C / / C x & ",
"& n ( [ [ [ { ' ( B b Z ).@XX.q w X ,.r.t.K.I.P.P.P.P.P.P.P.P.P.U.U.P.I.S.t.t.,.O y j | Y Y / / / / / / S [ |.{.C x C / ( C x & ",
"& B ^.|.|.}.|.(.' C & C '.#X..N + O ,.r.r.u.t.Q.Q.Q.Q.Q.Q.Q.Q.Q.Q.Q.Q.S.r.r.i.3.2 , L / _ / / S Y Y / / S ~..X{.C x C / / C v & ",
"& N ~.(.(.(.(.^./ n x B ~.^.) n + w 5.1.8.w.r.i.u.a.a.a.a.a.a.a.a.i.r.r.r.e.6.d 3 @ n Z Z Z Z C K K C C C ( ^.~.N v C / / C x & ",
"& x N C C C C N n x & * B A M * $ w t p 1.w.r.r.r.r.r.r.r.r.r.r.r.r.r.r.u.6.p : @ & & x x x x x x x x x x v N N x x C / / C v & ",
"& v C C & x N C C C C C C C C Z C D - 3 d ,.,.,.,.,.,.,.,.,.,.,.,.,.,.,.1.@.4 : @ x B B x x B Z C C C C C C B N x x S / / C x & ",
"& C (.(.C N ~.{.{.{.).).(.(.(.{./.[ N @ 3 3 3 3 3 > > > 3 3 > > > > > > > 4 p p : V ^.^.N N ^.}.}.{.{.(.{.(.(.~.N x C S S S x & ",
"$ S XX.XS N ^.|.|..XOXoX.X.XOXXXOX/.J , u 0 3 3 3 3 3 3 3 3 > > > > X # > 4 a ,.5 1 ~.~.N C }.9X7X+X+X+X+X+X+X{.C x S ( ( S v & ",
"$ / OXOX/ v S { { ^. X X^.^..X.X^.| 0 u s 6.6.6.3.3.3.3.3.3.,.,.,.p O X 5 a <.<.>.p 1 M & C |.7X+X+XXXXXXX+X+X{.C v ( ~.~.( v & ",
"$ / OXOXS x C / Z ] /.[.' ' (.(.| H u s R.T.T.R.a.i.u.u.i.u.r.w.8.1.5 4 p ,.<.2.2.>.4 X @ C }.7X+X+XXXXXXXXX+X{.C v ' ^.^.' N & ",
"$ / OXOX/ * C S S ` ' ' S / ' ( 0 u s T.T.T.T.R.i.i.i.i.i.u.r.w.w.8.1.a 4 4 ,.8.2.<.>.5 ; B }.8X+XXXXXXXXXXX+X{.C v ' ^.^.' N & ",
"$ / OXOXS x C / / S T T | T C - 1 ,.R.T.L.T.R.a.i.i.i.i.i.u.r.r.r.r.r.1.5 5 1.8.2.2.2.>.4 1 ~.|.XX+XXXXXXXXX+X{.C v ' ^.^.' v & ",
"$ S XXXX/ x C S / / T T T D * : @.p.T.L.P.I.S.i.i.i.i.i.i.i.u.u.i.r.r.8.1.1.8.w.8.8.2.<.>.p 1 / }.+X+XXXXXXX+X(.C v ' ^.^.' n & ",
"& C (.(.C x N C C U U U J 0 2 d y.R.T.T.I.L.S.u.u.i.i.y.6.3.3.3.3.3.,.,.,.1.8.w.w.8.2.<.2.>.4 : [ {..XXXXXXX+X{.C v / ' ' S v & ",
"& v C C v & * x x 6 - < ; 2 r 4.y.R.s.s.p.K.p.u.i.u.u.6.5 3 3 3 3 3 > > 3 p 1.w.w.8.2.<.<.<.>.5 : C (.XX+X+XOX{.C & x v v v x & ",
"& & & v x x v x c x 6 - . 2 ,.q.a.s.a.a.i.t.t.i.i.y.6.d O + O 3 3 3 > > 3 p a 1.8.8.2.2.<.<.2.a X & (.8X8X+X8X}.C x N C C N x & ",
"& x N C C C Z Z Z C G H X r N.I.Q.a.a.i.i.u.i.i.i.6.5 X   X d 3.3.3.,.,.,.a 5 p 1.w.8.8.2.<.2.a X M |.0X0X0X0X.XS N ~.}.}.~.N & ",
"& v C / / / / ( ) G _ D @ 5 S.I.Q.a.i.i.i.i.i.y.6.d X     X p 1.3.3.1.1.8.1.p p 1.w.w.8.2.<.<.a O M /.OXOXOXOX(.N C {.+X+X{.C & ",
"& x C / / / / / / / ( B @ 3 7.S.s.a.i.i.i.i.i.6.p O         X 3 3 3 > p 1.8.,.1.8.w.w.8.2.<.<.a O + N S S S S C x C (.+XOX(.C & ",
"& v C / ( F F / / / / V @ > 1.t.i.a.i.i.i.i.i.6.p 3         X 3 3 3 > p 1.w.w.w.w.w.w.8.2.<.<.a > + & x v x x x x C ^.{.{.~.N & ",
"& v C / / / / / / ( / B @ > ,.w.r.r.u.i.i.i.i.y.6.d X     X d 3.3.3.6.6.w.w.w.w.w.w.w.8.2.<.<.a > @ v S C C C S B S ' ' ~.S v & ",
"& x N Z V G G C C C Z n @ > ,.8.w.w.u.i.i.i.i.r.6.d X     X d 3.3.3.3.6.8.w.w.w.8.w.8.8.2.<.<.a > @ N S S S S S S S S S S C x & ",
"& & * x x - M c x x x x + > >.8.w.w.u.i.i.i.i.6.p >         X 3 3 3 3 p 1.w.w.w.w.8.2.2.<.<.<.a > @ B S S S S S S / S S S B v & ",
"& x N C G N x x v N N x @ > a 2.8.w.r.u.u.u.i.6.p >         X 3 3 3 3 p 1.8.1.1.8.8.2.<.<.<.<.a > @ S [ ~.[ [ [ [ ~.[ [ ~.) v & ",
"& N ~.).).o.D 6 T ' [ S @ > a 2.8.w.w.r.w.r.u.y.6.d X     X p 3.3.3.1.1.8.1.p p 1.8.2.<.<.<.<.a > b ^.|.|.|.|.|.|.|.|.|.|.^.B & ",
"$ C {.7X7X'.U D | ~.~.( @ > a 2.8.8.8.8.8.w.u.i.u.6.5 ;   X d 3.3.3.,.,.,.>.5 p 1.8.2.<.<.<.<.a > M ~.{.{.{.{.(.(.{.(.{.{.~.N & ",
"$ C (.7X=X[.D 6 T | | S @ > a 2.2.2.2.2.8.r.u.i.i.y.6.d > # > 3 3 3 1 3 3 5 >.1.2.2.<.<.<.<.<.a > @ n C C C C C C C C B C N x & ",
"$ C (.&X=X[.U 9 $.=.Y B @ O a 2.<.2.2.2.8.w.r.u.u.i.i.6.5 > > > > > > > 3 p 1.w.2.<.<.<.<.<.2.a > + x n v v v v v N N v v x x & ",
"& C (.&XXX[.U i V.Z.! N @ O a 2.<.2.8.8.w.w.w.r.u.i.i.y.6.3.3.3.,.,.,.,.,.1.8.8.2.<.<.<.<.<.2.a > @ S ' ' ' ' ' ' ( ' ' ' S v & ",
"$ C ).&XXX'.L f V.Z.E Z - > p >.<.2.8.8.w.w.w.e.r.u.u.u.u.u.u.t.r.r.w.w.w.8.8.8.2.<.<.<.<.<.>.5 : M ' ^.^.^.^.^.~.~.~.~.(.~.N & ",
"& C (.&X*X[.H H E E G F G < : 5 >.2.2.2.8.w.w.w.w.r.r.r.r.r.r.r.w.w.w.8.2.2.<.<.<.<.<.<.2.>.4 : c S ~.^.^.^.^.~.' S S ~.}.(.N $ ",
"$ C (.7X+X[.R 0 ' ` ` T E R 1 : p >.<.2.8.8.8.8.8.8.8.8.8.8.w.w.w.w.8.8.2.<.<.<.<.<.<.<.>.5 : x C S ~.~.~.^.~.[ ' S ' ~.(.~.N $ ",
"& C (.7X+X].C.V.=.E G E C.C.$.H : 4 >.<.2.2.2.2.2.2.2.2.2.8.8.w.w.8.8.2.2.<.<.<.<.2.2.>.4 : M S S ' S ( [ S ' S S ' (.(.' N x & ",
"& C (.XX+X@XC.V.$.T / E C.C.$.J & : 5 a >.a a a a a a a a >.,.,.,.,.a a a a a a a a a p : x S S S S S S S S S S [ ~.(.~.N & & & ",
"& C (.7XXX[.$.i L T T %.$.$.E T K 0 : 2 2 2 3 O > O O 2 2 3 O 3 3 3 3 O > O O o > O O : M C S S ( S S S S S S ' (._.' N x & & & ",
"$ C ).7X7X'.D 6 J T T =.$.$.Y R =.$.: # X X + + # + # ; X + + # + + + + + + + + + + + + N B C C S S C C S S S S ^.~.N $ $ & & & ",
"$ C (.7X7X(.D 6 J T / E C.C.$.=.Z.N.0 = $ $ $ $ $ $ = $ $ $ $ $ $ $ $ $ & & $ $ $ $ $ $ x x x x x c x x c x & v N N x $ & $ & & ",
"& n ~.|.OX(.T 6 T Y / E C.C.$.$.Z.N.0 * D D J J & & & < - 0 u 0 A C x & x x x x x v n n N v N n N v x x C S C S N S S S S V x & ",
"& x n ' |./.G M ( [ ( T =.=._ _ R R M N o.'.'.o.N & & < < u V.Z.].^.( Z S S S C S S ' ' ' ' ' [ [ S c C (..X}.{.(.|..XOX|.^.V $ ",
"& & n ' |.).F m ' ~.` ` / / / / ` G x U [.=X X+.$.u 0 M 6 i V.C.;X(.~.S S S S S S ( ~.~.~.~.^.^.^.' v S OX0X8X+X+X+X0X0X+X|.C $ ",
"& N ~.|.XX).C m ' ^. .` / / / ( } ` c G /.=Xo.=.C.V.$.U U L $.=.| [ ) S ) S S S S ( ( ( S ' ~.^.^.' v S OX0X+X+X+X+X+X+X+X{.C & ",
"& C (.XX+X).C v ' ^.^.~.' ( / ( [ ) m C [.[.| =.Z.Z.E T T T T S S S S S S S ( S ( S S S S ' ~.^.^.( v S OX0X+XOXOX+X+X+X+X}.C $ ",
"& n ~.{.OX{.C v ' ^.^.^.~.[ ( ( ( F x C [.[...Y E E G T T T T S S S S S S S S ] S S S S S ( ~.^.^.' n S OX0X+X+X+X+X+X+X+X{.C $ ",
"& v / ~.(.~.N v / ' ' ' ' ( C Z C N x D  ./.( C C C G G G C C C S S S S S S S S C S S S S S S ' ' S x S (..X|.{.{.(.{.{.}.~.N $ ",
"& & n N B N x x v n n n n N v x v x & & n B m x M - x c b v b M M x v x x x x x x x x x v n v n n v x x C S C C C C C C C N x & ",
"& & & & & & & & & & & & & & & & & & & & * * & & - = & * * & & = = & & & & & & & & & x & & & & & & & & & $ $ $ $ $ $ & $ $ & & & "
};
