/* XPM */
static char *xpm_[] = {
/* columns rows colors chars-per-pixel */
"64 64 85 1 ",
"  c #073A5A",
". c #042438",
"X c #094164",
"o c #094266",
"O c #073858",
"+ c #062940",
"@ c #094062",
"# c #052336",
"$ c #063452",
"% c #0B7CBD",
"& c #085583",
"* c #052C44",
"= c #965629",
"- c #0A659D",
"; c #0A507B",
": c #052B42",
"> c #08466C",
", c #085A8C",
"< c #B17245",
"1 c #A6602F",
"2 c #AC6431",
"3 c #9B592A",
"4 c #05253A",
"5 c #0B67A0",
"6 c #052F49",
"7 c #083E60",
"8 c #0D6DAB",
"9 c #88522C",
"0 c #06324D",
"q c #064C76",
"w c #3F2F23",
"e c #0B7EC1",
"r c #0A6299",
"t c #AF6938",
"y c #074A73",
"u c #403328",
"i c #151E24",
"p c #1079B8",
"a c #093753",
"s c #794826",
"d c #392A1F",
"f c #B06F40",
"g c #2D241D",
"h c #93582F",
"j c #8D5D3B",
"k c #62432D",
"l c #0D6BA4",
"z c #0D0E0F",
"x c #16262F",
"c c #072131",
"v c #0E83C7",
"b c #153243",
"n c #96643F",
"m c #0E73B2",
"M c #0D80C3",
"N c #DDAF25",
"B c #824D27",
"V c #355C59",
"C c #B3774D",
"Z c #2E2E2D",
"A c #91903C",
"S c #345651",
"D c #5A3D28",
"F c #C28C46",
"G c #128FD8",
"H c #6E4B32",
"J c #513621",
"K c #B87E52",
"L c #BC7B2C",
"P c #1292DC",
"I c #A66E46",
"U c #174960",
"Y c #BA8038",
"T c #0F86CB",
"R c #373939",
"E c #1B618B",
"W c #93872C",
"Q c #334336",
"! c #D5A32F",
"~ c #745640",
"^ c #D29F2A",
"/ c #367F8E",
"( c #324A3E",
") c #164255",
"_ c #A76639",
/* pixels */
"444444..44444444444444444444.###############444......4444444..44",
"44444:aO6****:44:********:4*O77           7O*+600000006****6a$:4",
"4444#$&,>O   $::$        $+Orml55--------lmrO*Xqqqqqq>7   O>,&$.",
"444+$yr-qXXoo ** ooooooooO:7mGTMeeeeeeee%TPp@6y,,,,,&;>XXX@;8- .",
"44#$&r&q>XXoo ** ooXXXXooO: lvvMe%%%%%%%%vPp@6y,,,,&q>oXXX@;8- .",
"4:$yrry@@XXXo ** oXXXXXXoO:Or%MM%%%%%%%%%vGp70;r&;&;>@XXX@@;lr .",
".a&r&yo@XXXXo ** oXXXXXXoO:Or%MM%%%%%%%%%vGp7arl;>>>oXXXX@7;lr .",
".O,-y7@@@@@XXO**OXX@@@@XXO:OrpMM%%%%%%%%%vGp7$,ry7@@@@@@@oy,8r .",
"46>qo7@@@@@@@O**O@@@@@@@@O+Or%MM%%%%%%%%%vGp@*oyo@@@@@@@7yrmprO.",
"46o;;;;;;;;;;>66>;;;;;;;;o6 5vTTvvvvvvvvvTPp7*o;;;;;;;;;;,me%rO#",
".a,8888888888,$$,88888888,$ 8GGGGGGGGGGGGPPm7$,8888888888mpee- #",
".$&55-------5&$$&55-55555&$armppppppppppppp,a0&55------55----&$.",
"4:$     OOOOO$::$        $:*O@@XXXX@77@@@77a++$  OOOOO       $:4",
"44+:::+6$OOOO$6*:::+ccccc###ccccccc#0$+4*660000660O  $+#.4+::+44",
"4:$  OOo,-rrr,oOO  6iziiiiiiiiiiiiz4;&$*Xqqqqqqyy;rl5&$##+$  $:4",
"4* ooXXqrlr5m8;Xo@ObgddwwuwuwwwwddgREE0:>&&&&&&&&,lmm,a#.* oo *4",
"4* ooXX>qy7yl8;XoO#gk999999999999BB9n~gc yy>>>>>>y;;;>6#.* oo *4",
"4* XX@@X@O+O-8;7abgJhfLLLLLLLLLLLLLLt=Jgba7XX@@@@@@@@7 $:* oo *4",
"4*O@@@@@XO+O-8;acgkh_Y^NNNNNNNNNNNN^Y_hkgcaoXXXXXX@@@y,&$: oo *4",
"46>;;;;q>O: 58;0ig9tfY^NNNNNNNNNNNN^Yft9di$ooXXXXXXX@;85 :Ooo *4",
".a,88l8rqO+ 58;$id9ttfYFFFFFFFFFFFFYttfjwxaooooooooX@;m5 :Ooo *4",
".$&----,o0+$&,>6igHh12tf<CCCCCCCC<ftt_nHux0   OOOOOOO>,&$: oo *4",
"4:$O  O$6+4+$$64cxukh2ttttttttttttttfnkZx4+:**::::::+6$$+* oo *4",
"4*OO++$      O   a+uH999999999999999h~JZx:aa:+a       O$:* oo *4",
". rrO0&5555555-55&$xuuwwwwwwwwwwwwwuuJkkZa,,$$,ll55----&$:OXX *4",
"#XppX$,88m%pmmp%m,axRRuuuuuuuuwwwdgidJB9DQ&&$ lTvMeeeee5 *7>>764",
"#XppX*o;;,mm,,mm,>bR~nnnjjjjjj999kdgDB==BkRb4 lvMe%%%ee5 6>&&>64",
"#XppX+O@@yrryyrr>bRHIKKKC<<<<ft22hDJkB=33BJgx lve%%%%%e5 6y,,q0.",
"#XppX+OX@oqqooq>bR~ICKKK<<<<<ft221hsJJ913=BDgalve%%%%%e5 6y,,q0.",
"#XppX+OooX@Xo@ObRHIKFFKC<<<<<fttttthDDh1333BJR&lpe%%%%e- 6y,,q0.",
"#Xp%X+OooXXooO4Z~ICF!!Y<<<<<<<fffft1hh12113=BkRolMe%%%e- 6q,,q0.",
"# -- +$    OabgDnKKF!^Yff<<Injjjjj999h12213=3BJZ;5m%%%e- *XqqX64",
"4*  *4+****4igJ9IKKKYY<f<<<nkwwwuuwwukh2213===BDZ 5%%%%- 4*666+4",
"44+:*******.zg9LCKCC<ff<<InHdiduuuwwuDsh1133==3sg4-TTvTl +$  $:4",
"4:$        6iJW!FCC<<f<<<nDgzgHjjj999sDkh2113=3sgb8PPPPm7$&ll&$.",
"4* ooooooooaxDY!FC<<<<<InHgzzgHjjjhh1hkkh2213==sdbEppppraO5MM5 #",
"4* ooXXXXooaxunYKC<<<<<nkdzzzzguuuukh1hh12213==sdxaX@@@O+Or%%rO.",
"4* ooXXXXooaxw9t<C<<<<<nkdzzzzgwuuukh22222213==swi4::+++: ,55&$.",
"4* ooooooooaxw92ttf<<<<InHgzzgHjjjnn122222213==sdx0 OOOO @yq;o64",
"4:$ O      0xw9122f<<<<fnHgzzgHjjjjn122212113==sdxaoXXXXX@@@@O*4",
"44+:::*****+iwB112f<<<<nkdzzzzgwuuukh2222133===sdxaXX@@@@@@@@O*4",
"4:$  $:+600*xws312tfff<nkdzzzzgwuuukh1hh113====sdxo;;;;;;;;;;>64",
".$&55&$*oqq@xws3122t2tfInHgzzgHjjjhh1hkkh13====sdb,8888888888,a.",
"# 5MM5 6>&&>xws3111112f<<nDgzgHjjj999BDkh13====sdb&55------55&$.",
"# 5MM5 *7>y7xws333331tf<<InHdiduuuuuuDBh33=====swx0          $:4",
"# -ee- bSVUaxds3==3312tff<<nkuuuwwwuukh23=====3swx:0666660066*+4",
"# -ee-OQWAV$xds3=311222tf<<Injjj99999h113=====3sdx7qqyyyyyyqyX64",
"# -ee-OQWAVO4ZkB=311222_tffffffft22211113=====BDZbq,,,,,&&&&r&$.",
"# -ee-ObVVU7ObZDB33312222ttttttt22213333====3BJZb@;,,,,&q>>;lrO.",
"# -eelS(qq>UVSRZkB=311111111112222113=======BDZ+ >;&&&&qooy&r&a.",
"# -ee/AWVoXVAASbZJB333333333311221133====33BJZb @o>>>>>o@yrry$:4",
"# -ee/AWS77VAAVO+ZDssssssssssB9999ssssssssskZ: ooXXXXXXoq&r&$#44",
"# -eelS()XXUSSU7ObZdddwddddddwwwwwwddddddddZb @oooXXXX@q-ry$+444",
"# 5MM-O+OXXUSSUUVSZiiiiiiiiiiiiiiiiiiiiiiiix0       OOO>,&$c#444",
"# 5MM-O+OXXVAASVAWQccccc######cccc#######cc#+**::***:++6a$+##.44",
".$&8p5 *7>oVAASSAWQ+$  $+4444bQ()O6******600000006+:O7  O 7@7a:4",
"4+0y85 6>;>UVVUUVSb$&55&$#.4.QWA/,>      7yqqqqqqX*Orml--lmp8,a.",
"4+0y85 6q&q>X7Xo>7* 5%mESQb*:(WA/rqXXooXX>;&&&,,,y6@pPT%%vGGTl #",
".$&8p5 6y,&qo7@>;>6 -m,VAWSOO)SV;q>XXXXXXo>>>y&,,y6@pPv%%evvM5 #",
".Or%e5 6y,,&q>o>;>6 58;SAAVXooX@@@XXXXXXXXX@@>&,,y6@pPv%%%%ee5 #",
".$&lp5 6q,,,&;>o>7* 58;UVVUoooXXXXXoooooooXXX>&,,y6@pPT%eeeeM5 #",
"46X&r&$6Xqqqq>7  $+$&,>OOO                   7>qqX*Orml----55&$.",
"4+6$O$:+6000006**+4:$a6**********************66006+*O7       $:4",
"444...444....4444444..4444444444444444444444444..444#########.44"
};
