/* XPM */
static char *xpm_[] = {
/* columns rows colors chars-per-pixel */
"64 64 208 2 ",
"   c #0D0E0F",
".  c #2D241D",
"X  c #392A1F",
"o  c #151E24",
"O  c #16262F",
"+  c #1B2A2A",
"@  c #052335",
"#  c #0E2B34",
"$  c #052539",
"%  c #0E2E39",
"&  c #0F333F",
"*  c #143339",
"=  c #2E2E2D",
"-  c #3F2F23",
";  c #36362B",
":  c #373939",
">  c #453825",
",  c #403328",
"<  c #513621",
"1  c #5A3D28",
"2  c #374528",
"3  c #374D2C",
"4  c #2C4836",
"5  c #334638",
"6  c #365236",
"7  c #3B5636",
"8  c #55481A",
"9  c #52551A",
"0  c #6C5B1B",
"q  c #686617",
"w  c #777214",
"e  c #514F29",
"r  c #445A36",
"t  c #62432D",
"y  c #684A2B",
"u  c #794826",
"i  c #73542B",
"p  c #6E4B32",
"a  c #56682A",
"s  c #4E6835",
"d  c #536C37",
"f  c #59773B",
"g  c #59763C",
"h  c #677728",
"j  c #052B42",
"k  c #052F49",
"l  c #0D3343",
"z  c #06324D",
"x  c #153243",
"c  c #143A4A",
"v  c #063452",
"b  c #093753",
"n  c #0E3B54",
"m  c #073959",
"M  c #103B51",
"N  c #083E60",
"B  c #0F425D",
"V  c #134255",
"C  c #184959",
"Z  c #234945",
"A  c #29524D",
"S  c #3A5D44",
"D  c #385E49",
"F  c #295959",
"G  c #355A55",
"H  c #39624E",
"J  c #3A6552",
"K  c #396A5A",
"L  c #094164",
"P  c #08466C",
"I  c #0F4A69",
"U  c #104764",
"Y  c #154961",
"T  c #064B75",
"R  c #0E4E70",
"E  c #0A507B",
"W  c #0E5579",
"Q  c #145776",
"!  c #215861",
"~  c #336C67",
"^  c #745640",
"/  c #456949",
"(  c #537645",
")  c #5D7541",
"_  c #5C7A45",
"`  c #4D7B55",
"'  c #617E42",
"]  c #457C6A",
"[  c #867A15",
"{  c #91781F",
"}  c #A97F1B",
"|  c #824D27",
" . c #895B22",
".. c #88522C",
"X. c #965629",
"o. c #93582F",
"O. c #9B592A",
"+. c #8D5D3B",
"@. c #886A2B",
"#. c #9A6A25",
"$. c #96643F",
"%. c #9A6A3D",
"&. c #A6602F",
"*. c #A8632E",
"=. c #A67725",
"-. c #AC6431",
";. c #A76639",
":. c #AF6938",
">. c #B47A30",
",. c #A66E46",
"<. c #B06F40",
"1. c #B17245",
"2. c #B3774D",
"3. c #B87E52",
"4. c #79831C",
"5. c #768729",
"6. c #6B863A",
"7. c #788D30",
"8. c #7A9337",
"9. c #59824D",
"0. c #548358",
"q. c #6D9049",
"w. c #76A45C",
"e. c #57916D",
"r. c #649865",
"t. c #5CA37F",
"y. c #7BB266",
"u. c #76B06A",
"i. c #6FAE73",
"p. c #948D12",
"a. c #959917",
"s. c #AA841D",
"d. c #AD9116",
"f. c #9BA219",
"g. c #B4B20F",
"h. c #A5AA18",
"j. c #ABB31E",
"k. c #B3BB1E",
"l. c #899828",
"z. c #94933A",
"x. c #B6892B",
"c. c #A99C23",
"v. c #BB8439",
"b. c #9BA726",
"n. c #93A42C",
"m. c #92AB39",
"M. c #A2AE23",
"N. c #A8B526",
"B. c #A7A330",
"V. c #A2BC3D",
"C. c #D0A41B",
"Z. c #E2B91F",
"A. c #C48927",
"S. c #C99528",
"D. c #C18D39",
"F. c #C89632",
"G. c #DDAF25",
"H. c #D2A328",
"J. c #DDB225",
"K. c #CEA037",
"L. c #E1B720",
"P. c #BDCE2F",
"I. c #B3CC3A",
"U. c #BDD235",
"Y. c #C2C417",
"T. c #C3D32F",
"R. c #C4D834",
"E. c #D5E026",
"W. c #87AA4D",
"Q. c #95B84A",
"!. c #8AB455",
"~. c #93BD54",
"^. c #B0A342",
"/. c #C28C46",
"(. c #C79641",
"). c #9FC44A",
"_. c #98C255",
"`. c #A6C848",
"'. c #ABCE4A",
"]. c #8CC36B",
"[. c #085583",
"{. c #085A8C",
"}. c #0A649C",
"|. c #196A90",
" X c #136A98",
".X c #297588",
"XX c #367F8E",
"oX c #0B67A0",
"OX c #0D6BA4",
"+X c #0D6DAB",
"@X c #1675A9",
"#X c #0E73B2",
"$X c #0B7CBD",
"%X c #177CB3",
"&X c #1079B8",
"*X c #0B7EC1",
"=X c #3D8786",
"-X c #1984B7",
";X c #1381BD",
":X c #3391A1",
">X c #589D80",
",X c #459590",
"<X c #5AAA8F",
"1X c #48A5A7",
"2X c #0D81C5",
"3X c #0F86CB",
"4X c #128FD8",
"5X c #1292DC",
/* pixels */
"$ $ $ $ $ $ @ @ $ $ $ $ % % % % 3 7 3 # h h a a a $ $ $ @ # # 3 # @ * # * + 3 3 3 @ @ $ $ $ $ @ $ $ @ $ $ $ $ $ $ $ $ $ $ $ $ $ ",
"$ $ $ $ $ j b m k j j k x l % % 3 7 7 a h 4.a d s a a a Z V C D 6.f f f f C S / / C m m j $ z z z z z z z z z j j j j j b v j $ ",
"$ $ $ $ @ v [.{.P m m m m v % 7 V V m 6.d ( f f d f h f |.,X=Xr.w.r.e.e.r.e.}. X X@X#X}.m j L T T T T T T P m m m m m P {.[.v $ ",
"$ $ $ j v T }.}.T L L L L m j l f 9.6._ M.n.n.n.9.C 7 / t.1X<Xt.u.y.>Xt.u.:Xt.u.u.i.<X&XL z T {.{.{.{.{.[.E P L P L L E +X}.m $ ",
"$ $ @ v [.}.[.T P L L Y Y V l 6 7.l.9.( N.n.n.n.6.V 7 s e.:X:X'._.!.u.u.t.t._.).u.u.<X$XL z T {.{.{.{.[.T P L L L L L E +X}.m $ ",
"$ j v T }.}.T L L L L Y Y B l 6 7.8.6.8.M.n.b.b.8.S 7 / r.-X-X_._._.u.t.y.y.).I.u.u.<X2Xm z T }.[.E [.T P L L L L L L E OX}.m $ ",
"$ b [.}.E T L L L L L Y Y B * 5.l.8.( n.N.n.n.8.H 6.% V  Xt._.u.).).u.u.~.u._.u.<X<X<X>X( d }.oXE P P P L L L L L L m E oX}.m $ ",
"$ m {.}.T N N N L L L L L m 7 h f 9.( 6.n.N.k.j.9.5.4.l.r._.I.I.P.P.I.P.~.y.y.).`.).].!.( d {.}.T N L L L L L L L L T {.+X}.m $ ",
"$ k P T L L L L L L C Y C A r 5.j.M.n.l.n.n.l.l.g 7.l.l.r._._.I.U.U.I.I.y.,X_.I.I.).].>XL j L T L L L L L L L L m T }.#X&X}.v $ ",
"$ k P E T E E E T T Q Q Q ! r 5.N.n.8.I.q.8.0.0.0.6.s d W.).].I.I.U.U._.y.1X_.I.).].].>XL k L E E E E E E E E E E {.#X$X$X}.m $ ",
"$ b {.+X+X+X+X+X+X+X@X@X:XQ S l.V.!.!.!.).w.Q.Q.!.N.b.M.P.).R.R.R.R.'.'.U.'.E.R._.].].t.( s 0.+X+X+X+X+X+X+X+X+X+X&X&X2X*X}.m @ ",
"$ z [.oXoX}.}.}.}.}.}.}.oX~ d 5.m.Q.m.w.V.V.I.Q.W.I.M.h.V.).U.P.T.U.y._.).T.I._.y.>X>X0.( d 0.oX}.}.}.}.}.}.}.}.}.}.}.}.}.[.z $ ",
"$ k z m B m m m v m m v L z 4.l.M.h.M.n.5.Y.Y.j.n.j.a.f.5.k.k.k.N.k.n.j.f / 7.h.b.n.l.7.6 6 v m m m b m m b m m m m m m m v j $ ",
"$ $ $ j k $ $ z z m m V V b s h.h.h.h.f.q g.g.g.p.h.a.a.p.g.g.g.f.g.a.a.S s 4.f.f.b.5.5.6 7 z z z z m m m v j $ $ $ j j j j $ $ ",
"$ $ m m L v m L {.}.}. X X|.9.f.b.M.j.4.q p.p.a.p.w 4.p.p.a.p.d.4.w w 4.` ` s l.l.m.m.0.E E T T T E }.oXoX[.z $ $ $ v m m v j $ ",
"$ k m L L L L T }.OX}. X@Xr.0.l.M.M.h.h.d.f.p.p.0 [ [ w [ 0 p.[ [ [ w w r.w.5.5.q.q.0.0.0.0.[.[.[.{.OX#X#X{.b $ $ j m P L m j $ ",
"$ k m L L L L P T T N T OXe.W.7.n.l.w p.s.C.#.{ ..#.s.d.=.*.=.s.=.s.} s.x.d.p.a f 9.0.( q.8.K P P T E E E P z @ $ j m L L m j $ ",
"$ k m L L L L L N m & M  X#X0.6.5.5.q < =.F.S.A.A.A.C.H.C.>.A.C.S.S.S.S.A.=.d.[ h f ( L H J D L L L L L L m m v j j m P L m k $ ",
"$ k b L L L L L L m & V  X+X` f q w { o.S.H.G.G.L.L.L.L.G.G.Z.Z.G.G.Z.J.v.;.d.s.0 9 d P N L L L L L m L L T {.[.v j m L P m j $ ",
"$ k P E E E E T P b & n  X@X0.d q q =.:.>.A.H.G.G.J.J.J.G.G.G.G.G.G.J.H.v.>.S.s.w 9 d L L L L L L L L L L E +XoXm j m L L m j $ ",
"$ b {.+XOXOX+X}.T m j m oX=X] S 8 X ..:.:.:.D./././././././././.D././.>.:.A.v.>.0 O m L L L P L L L L L L E #XoXm j m L P m j $ ",
"$ v [.}.}.}.}.{.L z j v [.{.Y l + . p =.>.x.:.<.1.2.2.2.2.2.2.2.2.<.1.:.:.;.%.i > O z H D D v m b m m m m P {.[.v j m P L m j $ ",
"$ j v m m m m z k j $ j v v l % O O , @.=.A.:.:.:.:.:.:.:.:.:.:.:.:.:.:.1.$.y ; + $ $ 6 6 6 j j j j j j j z z v j j m L P m j $ ",
"$ j m m $ j v m m m m m m m m m b v $ > p ..............................o.^ < = + j b m j j b m m m m m m m b v j j m L L m k $ ",
"$ m }.}.m z [.oXoXoXoXoXOXOX}.oX X[.V 2 e t , - - - - - - - - - , , , , , < t t = b {.{.v v {.OXOXoXoX}.oX}.}.[.v j m L L m j $ ",
"$ L &X&XL v {.+X+X#X$X$X#X#X%X%X@X{.M 2 e r , , , , , , , - - - , X . o X < | ..1 5 [.[.v m OX3X2X2X*X*X*X*X*XoXm j m P P N z $ ",
"@ L &X&XL j L E T {.#X#X{.{.@X%X{.P 5 : ^ $.$.$.+.+.+.+.+.+.....| t X . 1 | X.X.| t : x @ m OX2X2X*X$X$X$X*X*XoXm k P [.[.P k $ ",
"@ L &X&XN j m L N P }. XR R .X.XF x : @.v.(./.3.2.1.1.1.1.<.:.-.-.X.1 < t | X.O.O.| < . O m OX3X*X$X$X$X$X$X*XoXm z T {.{.T z $ ",
"@ L &X&XL $ m L L L T W U U ! ! 6 : ^ v.^.(.(./.1.1.1.1.1.<.:.-.-.&.o.u < < ..&.O.o.| 1 . b OX2X*X$X$X$X$X$X*XoXm k T {.{.T z $ ",
"@ L &X$XL j b P L L N L N F m c : p ,./.K.K.(.2.1.1.1.1.1.<.:.:.:.:.:.o.1 1 X.&.O.O.O.| < : [.OX$X*X$X$X$X$X*X}.m k T {.{.T z $ ",
"@ L &X$XL j m L L L L L L m 3 0 %.v.(.K.G.J.F.v.D.D.1.1.1.1.<.<.<.<.:.&.o.o.&.-.&.&.O.X.u t : L OX2X*X$X$X$X*X}.m z T {.{.T z $ ",
"@ m }.}.m $ v m m m N m b x 8 0 x.F./.(.J.G.F.:.:.1.1.,.$.+.+.+.+.+.......o.&.-.-.&.O.O.O.| < = E }.#X$X$X*X*X}.m j L T T L k $ ",
"$ j m m k $ j j j j j $ o . 0 =.v.(.3.(.F.F.D.1.1.1.1.+.1 - - - , , - - , t X.&.-.&.O.X.X.X.| 1 = N oX*X*X*X*XoXm $ j k k k j @ ",
"$ $ j j j j j j k j k $   8 =.S.F.F./.H.H.A.v.1.1.,.$.p - o - , , , - , , 1 u o.&.&.O.O.X.X.X.u . $ oX*X*X*X*X@Xm j v m m v j $ ",
"$ j b m m m m m m m m l o < c.J.K././.v.v.v.2.,.1.$.1 .   . p +.+.+.......u 1 t o.-.&.&.O.X.O.u . x +X5X5X5X5X#XN v [.+X+X[.v $ ",
"$ j m L L P L L L P L c + 1 S.J.K.(.1.1.1.1.,.v.%....     . p o.+.+.o.o.&.o.t t o.-.-.&.O.X.X.u X x |.&X&X&X&X}.n m oX*X*XoXm @ ",
"$ j m P L L L L L L L n + , >.F.(./.,.1.1.1.1.$.y X         . , , , , t o.&.o.o.&.-.-.&.X.X.X.u X O v N N N N m j b }.*X*X}.b $ ",
"$ k m L P L L L L L L m O 8 #.>.v.2.1.1.1.1.1.$.y -         . , , , , t o.-.-.-.-.-.-.&.O.X.X.u , o $ j k k j j j m {.oX}.[.v $ ",
"$ j m L L L L P L L L b O , ..-.:.:.v.v.v.1.1.,.$.p .     . p +.+.+.$.$.&.-.-.-.-.-.-.&.O.X.X.u X O z N b m m N m N E T [.N k @ ",
"$ j b m m m m m m m m z O , ..&.-.-.<.1.1.1.1.:.$.p .     . p +.+.+.+.$.&.-.-.-.&.-.&.&.O.X.X.u X o v N N N N N N N N N N m j $ ",
"$ $ j j j j j j j j k j o - | &.*.-.<.1.1.1.1.$.t X         . X , , , t o.-.-.-.-.&.X.O.X.X.X.u , O v N N N N N N N m N N m x $ ",
"$ j v m m v % l x v z j O - u O.&.-.:.<.<.<.1.$.t X         . , , , , t o.&.o.o.&.&.O.X.X.X.X.u X O N [.[.T [.[.[.[.E [.[.N k $ ",
"$ b [.oXoX[.b l U T T N O - u O.&.-.-.:.-.:.<.,.$.p .     . p +.+.+.o.o.&.o.t t o.&.O.X.X.X.X.u X x {.+X+X+X+X+X+X+X+X+X+X{.b $ ",
"$ m oX;X;X XA Z ! [.[.P O - u O.&.&.&.&.&.-.<.1.<.$.1 =   . p +.+.+.......| 1 t o.&.O.X.X.X.X.u X x [.oXoX}.}.}. X}.}.oXoX[.v $ ",
"@ m oX*X2X XA 4 F P T N O - u O.O.O.O.O.&.:.<.1.1.,.$.p X o - , , , , , , 1 | o.O.O.X.X.X.X.X.u , O z m m N m m m m m m m v j $ ",
"@ m oX*X$X.XN x G G Y b O - u O.X.X.O.O.&.-.:.<.<.1.1.$.t , , , - - - , , t o.-.O.X.X.X.X.X.O.u , o j z v v k k k v v v k j j $ ",
"@ m }.*X*XoXD a c.B.F v O - u #.X.O.&.&.-.-.-.:.<.1.1.,.$.+.+.+...........o.&.&.O.X.X.X.X.X.O.u - O N N T N [.N N [.N [.N N k $ ",
"@ m }.*X*X}.S a c.B.G v @ = y | O.O.&.&.-.-.-.;.:.<.<.<.<.:.<.:.:.-.-.-.&.&.&.&.O.X.X.X.X.X.| 1 = x T }.{.{.{.{.[.[.[.[.+X[.v $ ",
"@ m OX*X$X}.S r ) _ N N M x t i #.O.O.O.&.-.-.-.-.:.:.:.:.:.:.:.-.-.-.&.O.O.X.X.X.X.X.X.O.| < = x N [.{.{.{.{.[.T N T [.OX}.b $ ",
"@ m }.*X$X,X) d ~ K K ` ' G e e i | X.O.&.&.&.&.&.*.*.&.&.&.-.-.-.-.&.&.O.X.X.X.X.X.X.X.| 1 = j m N [.[.{.{.[.T P N N [.}.[.b @ ",
"$ m }.&X;XXXB.c._ / N G z.z.G x = < | X.O.O.O.O.#.*.O.O.O.&.&.-.-.&.&.X.O.X.X.X.X.O.O.| < = x N N N N N E N T N N T }.}.N v j $ ",
"$ m  X2X&XXXB.c.) H N G z.z._ S 3 e 1 u u u | u  . . .u u | ........u u u u u u u u | t = j N N N T N N N N N N [.[.}.[.m @ $ $ ",
"@ m }.&X2XOX) d / / N Y G G / D S r = - X X > - 8 8 8 X X , , X , , X X - - . - - X X = x m N N T N N N N N N T }.}.T v j $ $ $ ",
"@ m OX*X*XXXA 4 F N N Y A G / / _ g = o o o o X o o o o o o o o o o o o o o o o o o o o z m m m N N m N m N N N {.[.v @ $ $ $ $ ",
"@ m oX*X*X}.n % m N F ( z.B._ _ B.c.a 3 2 O @ @ 2 3 3 3 @ @ @ @ @ @ @ @ $ $ @ $ @ @ @ @ j j j j j j j j j j $ k b v $ $ $ $ $ $ ",
"$ v [.+X%XoXm k N N N J z.z.) ) B.c.5 % z m m v 3 3 3 3 @ x 5 5 c m j j j j j j j k k k z z v v v z j j m N N m m m N N N m j $ ",
"$ j z T +XoXN k T [.N Y G G / ` _ ) x b [.oXoX[.S 3 3 3 @ : z.z.XX{.N N N N N m N N T T T T T T E N k m }.#XOX}.}.+X#X&X+X{.n $ ",
"$ j z P +X}.m k E [.E P Y N / G K G k m oX*X&X] ) a r 7 6 s c.z.XX}.[.N N N N N N T [.[.[.[.{.{.{.T k N &X5X3X*X*X*X5X5X*X+Xm @ ",
"@ v [.+X&XoXm k T {.[.T N F F F ~ N k m }.@X{.G B.c.) D m M F G E E N N N P N N N N P P P T [.{.{.T k N &X4X3X*X&X*X*X*X*XoXm $ ",
"@ m }.*X*XoXm k N }.{.[.[.N U R Q L Z A .X@XQ G B.B._ J L L N N N N N I N N N P I N N N N P [.{.{.P k N &X5X*X&X*X&X*X*X*XoXm @ ",
"$ v [.oX&XoXm k T {.{.{.[.[.P N P N j m oX+XQ Y _ _ / / N N N N N N N N P N P N N N P N N P [.{.{.T z N &X4X*X*X*X*X*X*X*XoXm $ ",
"$ k N [.}.[.v k N T T T T N N N m v j v [.{.P A A A A N m N N N N N N N N m m N m m N m m N P T T N j m }.#X+XoXoXoXoXoXoX[.b $ ",
"$ j z v v v j j k v z z z b z j j j $ j v b k j j x k j : 4 Z j j j j j k j k x j j j j k k k z k k j j m N m m m m m m m b j $ ",
"$ $ $ $ $ $ $ $ $ $ $ $ $ $ $ $ $ $ $ $ $ $ $ $ $ $ $ j $ $ $ $ $ $ $ $ $ $ $ $ $ j $ $ $ $ $ $ $ j $ $ @ @ @ @ @ @ @ @ @ $ $ $ "
};
