/* XPM */
static char *xpm_[] = {
/* columns rows colors chars-per-pixel */
"64 64 191 2 ",
"   c #000000",
".  c #030609",
"X  c #06090E",
"o  c gray4",
"O  c #070B11",
"+  c #090D12",
"@  c #090F18",
"#  c #0E1116",
"$  c #03131E",
"%  c #0A111A",
"&  c #10161E",
"*  c #17191B",
"=  c #1D371B",
"-  c #23271E",
";  c #0C1723",
":  c #091B27",
">  c #0E1A26",
",  c #131A23",
"<  c #131F2E",
"1  c #0C1D30",
"2  c #14212E",
"3  c #1A222B",
"4  c #052337",
"5  c #0A2232",
"6  c #072438",
"7  c #152131",
"8  c #1B2533",
"9  c #1E2936",
"0  c #12273D",
"q  c #1D2939",
"w  c #282925",
"e  c #2B3128",
"r  c #252C36",
"t  c #29343A",
"y  c #3B3737",
"u  c #473E3A",
"i  c #284E17",
"p  c #3B771F",
"a  c #1E4022",
"s  c #324E2F",
"d  c #336622",
"f  c #317B35",
"g  c #4C423E",
"h  c #0D2D4C",
"j  c #112B47",
"k  c #11364A",
"l  c #0C3757",
"z  c #0A3C5B",
"x  c #253141",
"c  c #363B44",
"v  c #0B3D62",
"b  c #0C3E75",
"n  c #0E485F",
"m  c #1A425A",
"M  c #3D454B",
"N  c #1D6045",
"B  c #1D725F",
"V  c #236E44",
"C  c #0A4164",
"Z  c #0A436F",
"A  c #1A4662",
"S  c #0A427F",
"D  c #0B5572",
"F  c #2C4C63",
"G  c #375468",
"H  c #0A6371",
"J  c #3C6C7B",
"K  c #297772",
"L  c #48474B",
"P  c #4C4F4D",
"I  c #514C4E",
"U  c #585855",
"Y  c #675A52",
"T  c #475D6C",
"R  c #4D5A70",
"E  c #526772",
"W  c #656A6F",
"Q  c #786A63",
"!  c #747779",
"~  c #816E64",
"^  c #937D74",
"/  c #3D8131",
"(  c #428824",
")  c #4A9527",
"_  c #509B2A",
"`  c #4DA125",
"'  c #50A627",
"]  c #51A826",
"[  c #368679",
"{  c #61874F",
"}  c #71AA57",
"|  c #4C8A66",
" . c #519C78",
".. c #6FA768",
"X. c #988379",
"o. c #84B26E",
"O. c #8BC572",
"+. c #92CF76",
"@. c #9CDC7D",
"#. c #074A93",
"$. c #05509D",
"%. c #195A9E",
"&. c #106A8C",
"*. c #0C7796",
"=. c #286C99",
"-. c #227A90",
";. c #3A759C",
":. c #0454A8",
">. c #095BAE",
",. c #035BB5",
"<. c #025FBC",
"1. c #0868A8",
"2. c #0D6DAB",
"3. c #1C6DA0",
"4. c #037AA7",
"5. c #1872AC",
"6. c #0F75B7",
"7. c #007FB0",
"8. c #0E78BC",
"9. c #1073B1",
"0. c #3176A4",
"q. c #596F8E",
"w. c #4B7C8B",
"e. c #0160C3",
"r. c #0165CC",
"t. c #0683A8",
"y. c #1A84A6",
"u. c #0087B5",
"i. c #078BB7",
"p. c #018EBD",
"a. c #2787A1",
"s. c #3290AF",
"d. c #42859A",
"f. c #77858D",
"g. c #668997",
"h. c #709298",
"j. c #5190AB",
"k. c #6E94AE",
"l. c #74A4B4",
"z. c #0092C3",
"x. c #0096C8",
"c. c #0099CB",
"v. c #838485",
"b. c #8E999A",
"n. c #A48D83",
"m. c #A69188",
"M. c #B59A8D",
"N. c #B79C91",
"B. c #A9A19B",
"V. c #8997A0",
"C. c #96A3AB",
"Z. c #8BAAB9",
"A. c #99B5BE",
"S. c #A6A8A9",
"D. c #B7ADA6",
"F. c #B1B3B0",
"G. c #C1A598",
"H. c #C4A699",
"J. c #D0AF9F",
"K. c #C0AAA1",
"L. c #D0AFA0",
"P. c #CCB2A6",
"I. c #CFB8AD",
"U. c #D2B1A2",
"Y. c #D7B8A9",
"T. c #DCB9AA",
"R. c #C7BDB7",
"E. c #E3BFAE",
"W. c #A1E381",
"Q. c #CDC4BF",
"!. c #E5C0AF",
"~. c #E0C0B0",
"^. c #ECC5B4",
"/. c #F1C9B7",
"(. c #F5CCBA",
"). c #F9CFBC",
"_. c #FCD1BE",
"`. c #A7BAC6",
"'. c #B9BEC1",
"]. c #BAC3C8",
"[. c #C8C4C3",
"{. c #CBCDCE",
"}. c #D3D4D3",
"|. c #D8D6D5",
" X c gray87",
".X c #FFD4C1",
"XX c #E2DEDC",
"oX c #E4E4E3",
"OX c #ECECEC",
"+X c #F5F5F5",
"@X c #FEFEFE",
/* pixels */
"7 7 7 7 7 7 7 7 7 7 7 7 7 7 7 7 7 7 7 7 7 7 7 7 7 7 7 7 8 7 7 7 7 7 7 7 7 7 7 7 7 7 7 7 7 7 7 7 7 7 9 I P 9 7 7 7 7 7 7 7 7 7 7 ",
"q 7 7 7 7 q C C x q q q q q 7 7 q 8 q q q q q q q 9 M c C C C C C C C C C C C C C C C C q q x x x x M X.N.Q c q q q q x C C q 7 ",
"7 7 q 7 7 C C 8.C C C C C C q q C C C C C C C C C T  XV.6.8.y.r.8.8.8.8.8.8.8.8.8.6.8.8.C q C C C C l m.(.U.F C C C C C C C C 7 ",
"7 7 7 q C C 8.8.C C C C C C q q C C C C C C C C C C.@X].3.5.5.6.5.9.6.8.8.8.8.8.0.g.5.8.C x C C C C C T /.!.F C C C C C 8.8.C 7 ",
"7 7 7 C C 8.C C C C C C C C q q C C C C C l C C m ].@XoX`.].{.].].`.C.k.d.5.6.3.].oX;.8.C x C C C C C F !.^.G C C C C C 8.8.C 7 ",
"7 q C C 8.8.C C C C C C C C q q C C z z C C C C F XX@X@X@X@X@X@X@X@X@X+XOX|.`.C.+XOX;.8.C x C 8.C C C G !.^.G C C C C C 8.8.C 7 ",
"7 C C 8.C C C C C C C C C C q q C C z z C C C C T OX@X@X@X@X@XOX}.Q.[.{.|.OX@X@X@XoX;.8.C C 8.8.C C C G ~.!.F C C C C C 8.8.C 7 ",
"7 C C 8.C C C C C C C C C C q q C z l z C 4 C C E +X@X@X@XOXR.I.E.^.(.(.^.E.R.XX@XoX=.8.C C C 8.C C C G /.T.F C C C C C 8.8.C 7 ",
"7 x C C C C C C C C C C C C q q C C 6 4 C C C C f.@X@X@X+XD.!._..X.X.X.X.X.X_.E.XX|.=.r.C q C C C C z T ).P.A C C C 8.8.8.8.C 7 ",
"7 x C C C C C C C C z C C C x x C C 4 4 C C C n C.@X@X@XQ.T..X!.Y..X_..X.X_.Y.(.R.'.=.i.C x C C C C z E ).H.m C C C 8.8.8.8.C 7 ",
"7 C C 8.8.8.8.2.2.8.8.8.8.C C C C C 8.8.8.$ x 8 S.@X@X@XD.^._._.)..X)..X.X_.E._.I.B.r 9 7 C C 8.8.8.1.f.).S.9.8.8.8.8.8.8.8.C 7 ",
"7 C C 8.8.8.8.2.2.8.8.8.8.C C C C 8.8.8.4 $ O # {.@X@X@XD.^..X.X.X).H.H.H.~..X.XP.v.    7 x C 8.8.2.1.V.).v.8.8.8.2.8.8.8.C C 7 ",
"7 q C C C C z z z C 6 C C C 8 q C C + + @ = g U  X@X@X@X|.J._._..X.X/.T.~..X.X/.[.! < <   < x C C C 5 n._.W C C C C C C C C q 7 ",
"7 7 q q q q q , 4 C C C C C x q 2 2   - { +.@.o.OX@X@X@X@X{.T.(..X.X.X.X.X.X^.I.oXW % <     < 7 q C j N./.G q 7 7 7 q q q q 7 7 ",
"7 q C C C C C 4 4 8.8.8.8.C C x 2 2 M O.W.W.@.o.}.+X@X@X@X@XXXR.I.Y.T.T.U.K.R.OXOXM @ < <     < C 4 0.^.P.2 C 7 % q z z C C q 7 ",
"7 q C C C C 4 C 8.8.6 8.8.C C % # s +.W.W.W.@.@.o.F.@X@X@X@X@X@XOXXX|.}.|.OX@X@XoXw % < <     < C C g._.n.$ $ X 7 , C C C C q 7 ",
"7 q C C C C C C C $ $ $ 4 8., < 3 O.@.W.W.W.@.+.W.o.h.].}.OX@X@X@X@X@X@X@X@X+XoXS.s 7 7 < <     7 t N.(.U $ + X X & C C C C q 7 ",
"7 q C C C C v ; $ $ + $ $ ; % X { @.@.@.W.W...K +.@.[ i.i.s.j.l.Z.A.A.A.Z.l.j.s.&...t ; 7 8 r w g m.).G.3 $ $ $ + & C C C C q 7 ",
"7 q C C C C C $ $ $ + X X X % - } @.W.@.W.W...t. .@. .z.c.c.c.p.p.p.p.p.x.x.x.c.a.O.[ 4.*.n.L.E.(.).J.I $ $ $ $ C q C C C C q 7 ",
"7 x C C C C z C C $ X X       a _ ' } o.+.+.| p.a.O. .p.c.c.c.c.c.c.c.c.c.c.c.x.K } K p.i.B.E.J.M.Q - < 7 $ 8.8.z q C C C C q 7 ",
"7 C C 8.C C 8.8.C C X       < d ' ' ' ) _ ) N u.t./ B z.c.c.c.c.c.c.c.c.c.c.c.x.V ) = 6 k t r r , <       , 8.8.C q C C C C q 7 ",
"7 C C 8.8.8.8.4 4 %       < < d ' ' ' ] ] ) p &.p.N t.x.c.x.c.c.c.c.c.c.c.c.c.p.V d # o X X < @ < < @     @ C C C q C C C C q 7 ",
"7 q C C C C C > %       < < 2 d ' ' ] ' ] ` _ B x.&.p.c.c.c.c.c.c.c.c.c.c.c.c.u.a * X X X X X @ < < < <   < < 7 % & C C C C q 7 ",
"7 q C C q q C q       < < % % s ` ' ] ] ] / V H c.*.u.c.c.c.c.c.c.c.c.c.c.c.c.t.% X X X X X X % < < < < 7       < q C C C C q 7 ",
"7 C 8.8.C C C C <     < < 7 ; = _ ' ' ' ] ) *.4.u.t.4.c.c.c.c.c.c.c.c.c.c.c.c.*.7 < O X X X < < 7 < < < <       < q C C C C q 7 ",
"7 C 8.8.C C 8.C <     < < ; % 8 p ] ' ' ] ( t.i.w.D.d.x.c.c.c.c.c.c.c.z.c.c.c.H 7 < < X < > < % < < < < <       7 x C C C C x 7 ",
"7 C 8.8.C x C C <     < < > . 7 = ) ] ' ] / t.c.g._.B.p.c.c.c.c.c.c.*.J -.z.c.D @ % % @ @ % < < < < < < <       < x C C C C x 7 ",
"7 C 8.8.C 7 x q <   7 < < . O <   a / ' ] f u.c.a.~.!.a.c.c.c.c.c.i.! T.m.-.c.C % % % @ % % < < 7 < < < 7 <     < q C C C C x 7 ",
"7 C 8.8.C 7 <     < < < < O <       1 i ( V p.c.p.b._.h.z.c.c.c.c.*.P._.U.w.p.k < < < @ < < % . < < % < < < <     < C C C C x 7 ",
"7 C 8.8.C <       < < < < <             8 k z.c.c.d.^.P.y.c.c.c.z.g._.D.w.a.i.2 < < < < < < X X X X < % < < <     < C C C C x 7 ",
"7 C 8.8.C 7       < < < < ;           O 2 k x.c.c.i.b._.b.i.c.x.d.~.E.d.z.c.4.9 % < < < O X X X X X O % < < <     < C C 8.C x 7 ",
"7 C 8.8.C >       < < > . , <       , 2 2 l 4.x.c.c.a.~.).b.a.g.Y._.h.z.c.c.*.+ % < < < X X X X X X X % < 7 <     < C C C C x 7 ",
"7 q z z q <       < < < O % .     < < < < l ,.1.2.7.u.w.!._.^._.).v.4.u.t.4.b X @ 7 < ; < < X X X X < < < < <       7 x x x q 7 ",
"7 7 8 8 q 7       < @ % < 7 O X . O   . < h e.r.e.<.<.>.q.D.!.H.q.%.<.<.<.e.#.7 < @ @ < < < < O 7 < < 7 < 7 <       q C C C q 7 ",
"7 8 z z C &       < % % < 7 < O < < X O < 0 $.r.r.r.e.r.r.>.%.>.e.r.r.r.r.r.,.0 7 < < < @ O @ @ < < < < < < <     < C 8.8.C C 7 ",
"7 q 4 4 C C       @ < < < X O < @   < X < ; h ,.r.r.,.>.,.,.,.,.,.:.:.#.$.,.e.l < < @ @ @ @ % @ < < < < < 7 <     < 8.8.8.8.C 7 ",
"7 q 4 4 C x       < < < X X X X       < X < < #.r.e.l ; > > $ $ @ # ; + 6 <.r.S < 7 @ @ < < < < < < @ @ < < <     2 C 8.8.8.C 7 ",
"7 ; C v C $ 7     < X X X X X           O < < Z r.r.b X   . . o X X X @ 1 #.r.$.; @ 7 < < X < < @ < < 1 7 < 7     < C 8.8.C C 7 ",
"7 q C C $ $ $ + <   X X X X . X       < O 7 @ h e.r.#.7   X X X X X X @ < b r.<.j 7 < < X X X X 7 @ 7 < < < <     < C C C C x 7 ",
"7 q $ $ $ $ $ + X     < X . X X <   X < < < 7 j <.r.:.; % < X X X X < < > h e.r.v < X X X X X X X @ 7 < < <       < C C C C q 7 ",
"7 7 # o + + + .       < < X < O X . < <   < O 0 >.r.,.1 % < < X 7 < > < @ < <.r.#.< o o X X X X X @ < < <       7 C C C C C q 7 ",
"7 8 C C $ $ + o       % % % < < < > <       < ; >.r.e.h @ % % . @ 7 7 < @ & S %.F , < 7 X X X X < > < < <     < C C C C C C x 7 ",
"% C C r.8.$ C 2       % % @ < < < <           @ b e.,.6 % % @ @ 7 + < @ < < y H.H.r @ 7 < X < < ; < < < %     < z 8.8.8.8.C C 7 ",
"7 C C C C C C 2 <       < ; < 7 @ + <       < 7 < R q.w < < < X 1 7 @ @ < 7 * J.E.w @ X @ @ < 7 7 @ % <       7 C 8.8.8.8.C C 7 ",
"7 C C C C z C 5 x q <     < < < O % % 7   < < < # N./.u < O X < 7   < X X X # N./.y . X @ @ < < < % %       < 7 C C C C C C q 7 ",
"7 C 8.8.8.2.C q 4 4 7 <     < % < % . X X < < < < N.(.u   < X <       < . X + n.(.u X @ < < < 7 X @     X < x 4 x r r x x q q 7 ",
"7 C 8.8.8.8.C x C C C 7       < % 7 < < X < O . < M.(.u     X           . < X X.(.g 7 < < 7 < < <     X $ $ ; v 4 C C C C C x 7 ",
"7 C 8.8.8.8.C x C C C C %       < < < X X X X < * G./.y   < < 7       < < < < ^ (.I < 1 < < < <     X + $ $ $ : 4 C C C 8.C C 7 ",
"7 C 8.8.8.8.C x C C C 4 C 7       X . O X X X . , L.E.e 7 X < < < . @ > % @ @ ^ ^.L < < 7 < <     X $ $ $ $ $ $ 4 C C C 8.8.C 7 ",
"7 C 8.8.8.8.C x C C C C C C X       X   X X X X e E.E.w < < < O . X 7 < X @ # ^ ^.L < 7 < <       7 C $ $ $ $ C C C C C 8.C C 7 ",
"7 C 8.8.8.8.C q C C C C $ $ $ + X   X . X X X < c E.U.r 7 O O 7 < > 7 .   X + n.^.c % % <       7 C C C $ v C z C C 8.8.C C q 7 ",
"7 C 8.8.8.8.C q C C C C $ $ X O X X X % X < 7 < I (.H.9 < < < < 7 X X X X X # M.T.r < < <     < C 4 4 4 5 C C C C C 8.C C 7 7 7 ",
"7 C 8.8.8.8.C q C C C z C C $ $ $ . %   % < < < Y .Xm.7 7 < < < < X X X X X * L.G.8 < <       < C 4 4 4 4 C C C 8.8.C C q 7 7 7 ",
"7 C 8.8.8.8.C q C 4 4 C C C C $ C 4 %     < < < Y .X~                       e ^.n.< <         2 x C C C z C C 4 4 C C 7 7 7 7 7 ",
"7 C 8.8.8.8.C q C C C C 4 4 4 4 C C q <         Q .XY                     * Y (.Q           7 7 q q q q q q q x C C q 7 7 7 7 7 ",
"7 C C 8.8.8.C q C C C C 4 4 4 4 C C q 7 7 7 r P m.E.g           < % %   L F.B.E.Q r < < 7 2 q C x x q q C C C C C C C C C C q 7 ",
"7 q x C 8.8.C x C C C C C C C z C C & 4 C 6.k.|.D.P.F.M 2 7 2 q C 4 5 , W +X|.R.[.G C C C C C C C C q C 8.8.8.8.8.8.8.8.8.C C 7 ",
"7 q x C 8.8.C x C C C C C C C C C C q C 8.6.Z.+XOXoX XL q q x C 8.8.C C m ! S.F.! m C C C C C C C C x C 8.8.8.8.8.8.8.8.8.8.C 7 ",
"7 C C 8.8.8.C x C C C C C C C C C C x C 8.8.A E ! ! T C C C C C C C C C 5     1 n C C C C C C C C C x C 8.8.8.8.8.8.8.8.8.8.C 7 ",
"7 C 8.8.8.8.C x C C C C C C C C C C x C 8.8.C :   : C C C C C C C C C C ;       $ j C C C C C C C C x C 8.8.8.8.8.8.8.8.8.8.C 7 ",
"7 C C 8.8.8.C x C C C C C C C C C C q C 8.8.C $   . : l C C C C C C C C l 5 X     X l C C C C C C C x C 8.8.8.8.8.8.8.8.8.8.C 7 ",
"7 x C C 8.C C x C C C C C C C C C C q C C C z ;         5 C C C C C C C C C l 5 ; 5 C C C C C C C C q C 8.8.8.8.8.8.8.8.8.C C 7 ",
"7 q x C C C q q x x x x x x t 0 q q 7 q C C x 9 * .       q q q q q q q q q 9 9 q q q q q x x x x x q q C C C C C C C C C C q 7 ",
"7 7 7 7 7 7 7 7 7 7 7 7 7 7 7 7 7 7 7 7 7 2 7 7 2 2 # . # 2 7 7 7 7 7 7 7 7 7 7 7 7 7 7 7 7 7 7 7 7 7 7 7 7 7 7 7 7 7 7 7 7 7 7 "
};
