/* XPM */
static char *xpm_[] = {
/* columns rows colors chars-per-pixel */
"64 64 229 2 ",
"   c #052439",
".  c #112E39",
"X  c #052B43",
"o  c #082748",
"O  c #05304B",
"+  c #183C4A",
"@  c #07275A",
"#  c #063452",
"$  c #0A3854",
"%  c #083959",
"&  c #1A3E54",
"*  c #0A1F7E",
"=  c #09256D",
"-  c #093F62",
";  c #093967",
":  c #0A3876",
">  c #583953",
",  c #164358",
"<  c #224A5E",
"1  c #094165",
"2  c #09466C",
"3  c #0F496C",
"4  c #1A4963",
"5  c #134C6D",
"6  c #1D4D6A",
"7  c #1B536B",
"8  c #0D4C71",
"9  c #084D78",
"0  c #144E72",
"q  c #155577",
"w  c #2B5468",
"e  c #265C77",
"r  c #1F637B",
"t  c #23657E",
"y  c #554F50",
"u  c #62445F",
"i  c #546A4F",
"p  c #D72118",
"a  c #D32E27",
"s  c #C15136",
"d  c #688E7A",
"f  c #7AA16D",
"g  c #72A47D",
"h  c #959B3B",
"j  c #B8AF27",
"k  c #ACAA31",
"l  c #EC8F11",
"z  c #E79817",
"x  c #E9AC14",
"c  c #EBB211",
"v  c #E39028",
"b  c #DBB222",
"n  c #E7A926",
"m  c #E4B925",
"M  c #FCDB0C",
"N  c #F3CA19",
"B  c #ECD116",
"V  c #F7D612",
"C  c #CAC432",
"Z  c #E4C225",
"A  c #E8D224",
"S  c #A3B654",
"D  c #DDCF47",
"F  c #0B1E8D",
"G  c #0F2D8E",
"H  c #0B3985",
"J  c #0B2397",
"K  c #103595",
"L  c #0D1CB9",
"P  c #0C29AB",
"I  c #0F34AC",
"U  c #0D26B7",
"Y  c #0E5087",
"T  c #085688",
"R  c #085788",
"E  c #095190",
"W  c #1C6083",
"Q  c #0A649C",
"!  c #1A6B99",
"~  c #236C8B",
"^  c #366584",
"/  c #32758F",
"(  c #2B7894",
")  c #0C42A5",
"_  c #0E54AB",
"`  c #0B63AA",
"'  c #0C6CA8",
"]  c #1470A6",
"[  c #0F6DB8",
"{  c #0F76B5",
"}  c #0C7CBE",
"|  c #187BB3",
" . c #117BB9",
".. c #227AA7",
"X. c #247DB4",
"o. c #52778F",
"O. c #69748D",
"+. c #6F77BF",
"@. c #0E1CCA",
"#. c #0F19D4",
"$. c #0E1BDA",
"%. c #111CD9",
"&. c #0D22C6",
"*. c #172BCD",
"=. c #2233DA",
"-. c #0F1AE3",
";. c #0E16E8",
":. c #111AE2",
">. c #1419EA",
",. c #1418EC",
"<. c #0D0FFC",
"1. c #0F14F5",
"2. c #0F12FF",
"3. c #1114F7",
"4. c #171AF2",
"5. c #1013FA",
"6. c #1522E9",
"7. c #262AEC",
"8. c #3435E7",
"9. c #2E5CCF",
"0. c #0F7FC0",
"q. c #3161D1",
"w. c #3B47E8",
"e. c #6B71D5",
"r. c #4B50E3",
"t. c #5769E6",
"y. c #7172E2",
"u. c #A37697",
"i. c #2F819B",
"p. c #388599",
"a. c #1C82B5",
"s. c #378CA4",
"d. c #328AB0",
"f. c #4D849A",
"g. c #678599",
"h. c #58A39E",
"j. c #4A9CA9",
"k. c #5793A7",
"l. c #508CB3",
"z. c #7693A7",
"x. c #6693B2",
"c. c #51A4B5",
"v. c #6BAAB7",
"b. c #0F82C6",
"n. c #1282C4",
"m. c #1A8CC9",
"M. c #1290D9",
"N. c #1C99DC",
"B. c #2892C6",
"V. c #329CC9",
"C. c #2497D0",
"Z. c #3BA2C6",
"A. c #32A8DB",
"S. c #4598CA",
"D. c #7781D2",
"F. c #51AFCD",
"G. c #66A8CF",
"H. c #73A9CC",
"J. c #67B9C8",
"K. c #6CBED4",
"L. c #5396F0",
"P. c #7E94E3",
"I. c #6DBBF9",
"U. c #5DC6D4",
"Y. c #67C2D7",
"T. c #7BD2DC",
"R. c #57C8E3",
"E. c #5DD5EE",
"W. c #69D6E6",
"Q. c #72D7EA",
"!. c #7AE3F4",
"~. c #B484A2",
"^. c #9AA8A7",
"/. c #8AA5B6",
"(. c #94AAB6",
"). c #C7A4B9",
"_. c #B7D1B9",
"`. c #878DD9",
"'. c #83AEC5",
"]. c #91B3C6",
"[. c #A9BBC5",
"{. c #AFB0DC",
"}. c #8688E7",
"|. c #9A9BE4",
" X c #A2A3E8",
".X c #B7B8E5",
"XX c #D0B5C4",
"oX c #91CCD8",
"OX c #B4C5CA",
"+X c #A8C7D6",
"@X c #ABC8D6",
"#X c #B7D1DD",
"$X c #87DBE3",
"%X c #9BDFE5",
"&X c #B0CBE4",
"*X c #AAD6E5",
"=X c #B5D6E5",
"-X c #B7DFF3",
";X c #86E1EC",
":X c #8AE8F7",
">X c #99F2F9",
",X c #A9EDF4",
"<X c #A9EDF7",
"1X c #B7E6FA",
"2X c #B8F4FA",
"3X c #CAC3CE",
"4X c #C5CDD7",
"5X c #C7D3D9",
"6X c #E0CFD7",
"7X c #C5C6EB",
"8X c #C7DCE7",
"9X c #D8DEE4",
"0X c #E8DFE5",
"qX c #C9E5EC",
"wX c #D5E2E9",
"eX c #D1E5F3",
"rX c #C8F6FB",
"tX c #D8F6FA",
"yX c #E7E9EA",
"uX c #F0EFEE",
"iX c #E5EBF4",
"pX c #EDF2F3",
"aX c #E5F4F9",
"sX c #ECF6FA",
"dX c #F3F5F5",
"fX c #F8F8F7",
"gX c #F2F6FA",
"hX c #F5F9FB",
"jX c #FEFEFE",
/* pixels */
"                                                                                                                                ",
"X         X # % O X X X X X     X X X X X X X X X X   X % 1 1 $ % % % % % % % % % % 1 % X X O O O O O O O O O   X X X O # # X   ",
"          # R R 2 % % % % # X X O % % % % % % % % % X % Q { ' Q Q Q Q Q Q Q Q Q Q ' { Q % X 1 9 9 9 9 9 9 2 - % % % % 2 R R #   ",
"      X # 2 Q Q 9 1 1 1 1 % X X % 1 1 1 1 1 1 1 1 %   1 { M.b.b.} b.} } b.} } b.} b.M.} 1 O 9 R R R R R R 9 2 1 1 1 1 9 ' Q %   ",
"      # R Q R 9 2 1 1 1 1 % X X % 1 1 1 1 1 1 1 1 % X % ' b.b.b.} } } } } } } } } b.M.{ 1 O 9 R R R R R 9 2 1 1 1 1 1 9 ' Q %   ",
"  X # 2 Q Q 9 - - 1 1 1 1 % X X % 1 1 1 1 1 1 1 1 % X % Q a.b.n.} } } } } } } } b.m.M.{ 1 O 9 Q R 9 R 9 2 - 1 1 1 - - 9 ' Q %   ",
"  # R Q R 9 1 - 1 1 1 1 1 % X X % 1 1 1 1 1 1 1 1 % X % Q } } s.} } } } } 0.} } a.A.N.{ - $ Q ' 9 2 2 2 1 1 1 1 1 - 1 9 ' Q %   ",
"  % R Q 9 - - - - - - 1 1 % X X % 1 1 - - 0 0 1 1 % X % Q } a.g } } } } } a.} } m.E.N.{ 1 $ R Q 9 - - - - - - - - 1 9 R ' Q %   ",
"  O 2 9 1 - - - - - - - - % X X % 1 - 1 - ( p.- - % X % Q } s.S  .a.0.0.} B.Z.0.A.!.N.B.W X 1 9 1 - - - - - - - - 9 Q { { Q %   ",
"  O 2 9 9 9 9 9 9 9 9 9 9 2 O O 2 9 9 9 9 s.F.9 9 8 7 % Q b.s.C d.a.b.b.b.C.E.C.R.>XC.R.~ X 1 9 9 9 9 9 9 9 9 9 9 R { } } Q %   ",
"  # R ' ' ' ' ' ' ' ' ' ' R # # R ' ' V.| Z.:X| ' F.i.$ ' B.h.A j.j.M.M.M.N.:XQ.:X2XE.!.q # R ' ' ' ' ' ' ' ' ' ' ' { } } Q %   ",
"  # R Q ' Q Q Q Q Q Q ' Q R # # R Q ' Z.U.d.>XZ.U.Q.7 $ R d f V f f { { { { Q.2X2X2X>XK.# # R Q ' Q Q Q Q Q Q Q ' Q Q Q Q R O   ",
"  X # % % % - % % % % % % # X X # % % r $Xk.qX>X2Xk.  X # h k M k h 1 1 - - c.tXsXtXrXU.s.t # % % % % % % % 1 % % % % % % # X   ",
"    X X X X X O # % % % % # O X X X X O v.wXaXaX@X7 r i.7 j B M B j . X % e Y.tXsXhXaX>XQ.7 O O O O % % % # X       X X X X     ",
"  X # % % % % 2 R Q Q Q Q R 2 % % % % q k.sXsXsX+XY.:XR...C A v V b + # ! W.2XsXgXsXsX%X( 9 9 9 9 9 Q ' Q R #     X # % % # X   ",
"  X % 1 1 1 1 9 Q ' Q Q { ' 9 - 1 q j.;XqXgXjXsXaXrXY.a.^ Z n a c m y % Q ..$XsXsXhXaX;Xi.9 R 9 R R Q { { R #     X % 1 1 % X   ",
"  X % 1 1 1 1 2 9 2 - 2 ' ' 9 - 1 W Y.%XaXsXhXgXrXY.q 9 u z l p x z > - 9 r %XaXgXhXsX2XQ.~ 2 2 2 9 9 9 9 2 O     X % 1 1 % X   ",
"  X % 1 1 - - 1 - % X % Q ' 9 - 1 2 3 t #XiXsXsX2X~ 1 1 > m l p x N i 1 2 c.<X2XsXsX1XK.( 5 1 1 1 1 1 1 - 1 % O X X % 1 1 % X   ",
"  X % - - - - - 1 % X % Q ' 9 - - 1 0 J.<X<XiXsXrXp.1 % i V x s B M h % r U.j.T.rXrXI.q.2 - 1 1 1 1 - - 1 2 R R # X % 1 1 % X   ",
"  O 2 9 9 9 9 9 2 % X % Q ' 9 - 1 1 i.U.L.I.tX2X<XK.2 1 d D A Z A D ^.1 8 5 $ oXT.>XL.6.: 1 1 1 1 1 1 1 1 9 ' Q % X % 1 1 % X   ",
"  # R ' ' ' ' Q 9 % X % Q ' 9 - 1 ; q q =.q.oXH.( J.q 5 OXOX_._._.OX8Xe 1 % 7 T.~ U.9.;.H - ; 1 1 1 1 1 1 9 ' ' % X % 1 1 % X   ",
"  # R Q Q Q Q R 2 O X # R R 2 % % % % ; -.I c.f.$ - - g.wX#X1X1X-X&XwXz.% # / j.% t K ;.: % % % % % % % % 2 R R # X % 1 1 % X   ",
"  X O % % % % # O X   X # # O X X X X @ :.F s.t     & 4XqX=X1X1X1X*XeX5X& X w , X X J -.@ X X X   X X X X O # # X X % 1 1 % X   ",
"  X % % X X # % % % % % % % % % % # X @ :.* + .     /.dX1X*X1X1X1X=X5XpXO.X # % O % #.@.o X # % % % % % % % % # X X % 1 1 % X   ",
"  % Q Q % # R Q ' Q Q Q Q Q Q Q ' R # @ -.L o     w yXuX5X=X=X=X#XwXgXjX4X4 R R H &.>.I # # R ' ' ' Q Q Q Q Q R # X % 1 1 % X   ",
"  1 } } 1 # R ' ' { } } { { } } { R % X L 2.@.J G [.jXfXfXyXqX*X[.OXyXjXjX/._ U %.;._ ` $ $ ' b.b.b.} } } b.} Q % X 1 2 2 - O   ",
"  1 } } - X 2 9 9 R { { R R { { ! W 5 % : #.3.,.}.fXjXjXjXwX+X'.o.z.g.6XjXdX`.=.P Y X.l.- % ] n.b.} } } } } b.Q % O 2 R R 2 O   ",
"  1 { } 1 X % 1 - 9 Q Q 9 9 Q Q / o.o.5 1 : K D.gXjXjXjXyXg./.x.o.O.O.(.pXjXfX5X/.].=Xl.6 w X.m.} } } } } } } Q % O 9 R R 9 O   ",
"  1 { } 1 X % 1 - 2 9 9 2 2 9 9 ^ [././.z.g.[.pXjXjXjXuX/.g.].#X3X~.u.u.4XjXjXjXjXfX9X+X9XyX#XF.} } } } } } } Q % O 9 R R 9 O   ",
"  1 } } 1 X % 1 1 1 - - 1 1 - - 6 8X9XuXhXjXjXjXjXjXjX5XO.[.=XiXjX6XXXu.3XjXjXjXjXjXjXjXjX9X'.S.a.} } } } } b.Q % O 9 R R 9 O   ",
"  1 } } 1 X % 1 1 1 1 1 1 1 1 1 1 ].jXjXjXjXjXjXjXjXfX9X5XdXqXsXjXjX0X).yXfXjXjXjXjXjXjXjXfXhX8XS.} } } } } } Q % O 9 R R 9 O   ",
"  % Q Q % X # % % % % % % % % % % o.jXjXjXjXjXjXjXjXfXuXuXdX&X9XjXjXfXuXuXfXjXjXjXjXjXjXjXjX=XS.} } } } } } b.Q % X 1 9 9 1 O   ",
"  X % % X   X X X X X X X X X X X < 5XjXjXjXjXjXjXjXjXfXjXpXP.}.jXjXfXuXdXjXjXjXjXjXjXjXjX[.X.0.0.0.0.0.0.} } ` #   X O O O X   ",
"    X X X X X X X X X X X O O % # < OXjXjXjXjXjXjXjXjXjXjX8Xt.8.iXjXjXjXjXjXjXjXjXjXjXjX5Xg.d.b.0.0.0.0.b.b.0.' % X # % % # X   ",
"  X # % % % % % % % % % % 2 R Q 9 5 (.fXjXjXjXjXjXjXjXjXiXe.w.2.}.pXdXjXjXjXjXjXjXjXjXjXyX(.X.M.M.M.M.M.M.M.M.{ 1 # R ' ' R #   ",
"  X % 1 1 1 1 1 1 1 1 1 1 9 ' { ' q (.jXjXjXjXjXjXjXjXjXy.r.7.2.7.{..XjXjXjXjXjXjXjXjXjX[.4 Q { { { [ 0.{ { 0.Q % % Q b.b.Q %   ",
"  X % 1 1 1 1 1 1 1 1 1 - 9 ' } { Q e 9XjXjXjXjXjXjXjX X4.w.4.5.<.r.e.7XjXjXjXjXjXjXhX@X5 X O 1 ; - - - - - - % X % Q } } Q %   ",
"  X % 1 1 1 1 1 1 1 1 1 1 9 Q ' ' R $ e =XhXjXdXdXfX|.7.3.7.3.5.<.1.%.8.7XjXjXjXjX8XG.] % X # # O X X X X X X X X % R Q Q R #   ",
"  X % 1 1 1 1 1 1 1 1 1 1 2 9 9 9 2 o - | S.x.+. Xy.4.<.2.3.2.2.<.<.2.<.8. XgXjXjXeXH.! % # R R 2 % % % % % % % % - 2 9 9 1 O   ",
"  X # % % % % % % % % % % % % % % # X 1 { } Y *.>.2.<.<.2.2.2.2.2.2.2.2.<.,.t.`.].G.a.Q % # R Q 9 - - 1 1 1 1 1 1 - - - - % X   ",
"    X X X X X X X X X X X X X X X X   1 } n.E :.2.2.2.2.2.2.2.2.2.2.2.2.2.2.<.$.` a.{ ` % O 2 9 2 1 1 % 1 1 1 % - - - - - % X   ",
"  X # % % # X X O O O O O O X X X X   1 } n.E :.2.2.2.2.2.2.2.2.2.2.2.2.2.2.2.-.[ } } Q % O 1 9 9 9 9 9 9 9 9 9 9 9 9 9 9 2 O   ",
"  # R ' ' R # X 1 9 9 9 9 2 1 % % # X 1 0.b.E $.2.2.2.2.2.2.2.2.2.2.2.2.2.5.5.6.[ } } Q % # R ' ' ' ' ' ' ' ' ' ' ' ' ' ' R %   ",
"  % Q b.b.Q % O 2 R R R R 9 2 1 1 % X 1 { n.E :.2.2.2.2.2.2.2.2.2.2.2.2.2.2.2.>.Q Q Q 9 O # R Q ' Q Q Q Q Q Q Q Q Q Q Q ' R #   ",
"  % Q b.b.Q % X 1 2 2 2 2 2 1 1 1 % X 1 { b.E -.2.2.2.2.2.2.2.2.2.2.2.2.2.2.5.%.; O # O X X # % % % % % % % % % % % % % % # X   ",
"  % Q } } Q % X 1 2 1 % 1 1 1 1 1 % X 1 { 0.E $.5.5.2.2.2.2.2.2.2.2.2.2.2.2.2.@.o O # % % % # O O O O O O O O O O O O O O X X   ",
"  % Q } b.Q % O 2 9 2 1 1 1 1 1 1 % X 1 { b.R &.5.<.2.2.2.2.2.1.2.2.2.2.2.2.2.L % 2 R Q ' Q 9 9 9 9 9 9 9 9 9 9 9 9 9 9 9 1 O   ",
"  % Q } } Q % O 9 R 2 % 1 1 1 1 1 % X 1 { b.E &.2.2.2.2.2.2.2.2.2.2.2.2.2.2.2.U ; 9 Q { { ' R R 9 R R R R R R R 9 R 9 R Q R #   ",
"  % Q } b.Q % O 9 R 2 % 1 1 1 1 1 % X 1 { b.R U <.2.2.2.2.2.2.2.2.2.2.2.2.2.2.P 1 2 R Q Q R 9 2 2 9 R R R R R R 9 2 2 9 ' Q %   ",
"  % Q } } Q % O 2 9 2 1 1 1 1 1 1 % X 1 { b.R P 2.2.2.2.2.2.2.2.2.2.2.2.2.2.2.K 1 2 9 9 9 9 2 1 1 2 9 R R R R 9 2 1 9 R Q R O   ",
"  % Q } b.Q % X 1 2 1 1 1 1 1 1 1 % X 1 { b.R K 2.2.2.2.2.2.2.2.2.2.2.2.2.2.3.H 1 1 2 2 2 2 1 1 % 1 2 2 2 2 2 2 1 9 Q Q 2 # X   ",
"  % Q } } Q % X % 1 1 1 1 1 1 1 1 % X 1 } b.R H 1.2.2.2.2.2.2.2.2.2.2.2.2.2.;.: 1 1 1 1 1 1 1 1 1 1 1 1 1 1 - 2 9 R Q R #       ",
"  % Q } b.Q % X % 1 1 1 1 1 1 1 1 % X 1 } b.R : -.2.2.2.2.2.2.2.2.2.2.2.2.2.$.; 1 1 1 1 1 1 1 1 1 1 1 1 1 1 1 9 Q Q 2 # X       ",
"  % Q b.b.Q % X % 1 1 1 1 1 1 1 1 % X % Q ' 2 % P 2.<.<.2.2.2.2.2.2.2.2.2.2.U % % % % % % % % % % % % % % % % 2 R R #           ",
"  % Q b.b.Q % X % 1 1 1 1 1 1 1 1 % X X % % O X O J ;.<.2.<.2.2.2.2.2.2.1.@.= X X X X X X   X X X X X X X X X O # # X           ",
"  # R ' } Q % X 1 2 1 1 1 1 1 1 1 % X X # % % # X   @ F @.;.1.2.2.2.;.#.J #   X X X O O O O O O O O X X % 1 % % % % % 1 1 # X   ",
"  X O 9 ' Q % O 2 9 2 1 1 1 1 1 1 % X # R Q Q R #       o @ = G ) ) H ; $ % % % % - 2 9 9 9 9 9 9 1 X % Q { ' Q Q ' { { ' R #   ",
"  X # 9 ' Q % O 9 R 9 2 1 1 1 1 2 - X % Q } { R % X X X o X X - R ` 9 1 1 1 1 1 1 2 9 R R R R R R 9 O 1 } M.b.} } b.M.M.b.' %   ",
"  # R ' { Q % O 9 R R 9 2 1 - 2 9 2 O % Q { R 2 1 % % % # % % - 9 9 2 1 1 1 1 1 1 1 2 2 2 9 R R R 9 O % { M.b.} } } b.b.b.Q %   ",
"  % Q } b.Q % O 9 R R R 9 2 1 2 9 2 O % Q ' 9 - 1 1 1 1 ; - 1 1 1 1 1 1 1 1 1 1 1 1 1 - - 2 R R R 9 O 1 { M.b.} } } } } b.Q %   ",
"  # R ' } Q % O 9 R R R R 9 2 1 2 - X % Q ' 9 - 1 1 1 1 1 1 1 1 1 1 1 1 1 1 1 1 1 1 1 1 1 2 R R R 9 O 1 } M.b.} } } } } b.Q %   ",
"  O 1 R Q R # O 1 9 9 9 9 2 % % % # X # R R 2 % % % % % % % % % % % % % % % % % % % % % % - 2 9 9 1 X % Q { ' Q Q Q Q Q Q R #   ",
"  X O # % # X X O O O O O O O X X X   X # % O X X X X X X X X X X X X X X X X X X X X X X O O O O O X X % 1 % % % % % 1 % # X   ",
"                                                                                                                                "
};
