/* XPM */
static char *xpm_[] = {
/* columns rows colors chars-per-pixel */
"64 64 29 1 ",
"  c #010000",
". c #052438",
"X c #0A4164",
"o c #070708",
"O c #073A5A",
"+ c #052D46",
"@ c #141415",
"# c #0C7EC0",
"$ c #0B649B",
"% c #2D2D2D",
"& c #084D78",
"* c #085888",
"= c gray12",
"- c #252626",
"; c #063350",
": c #414142",
"> c #181818",
", c #080E12",
"< c #39393A",
"1 c #083856",
"2 c #062A40",
"3 c #08466C",
"4 c gray20",
"5 c #041B29",
"6 c #0C6CA8",
"7 c #0A3E5F",
"8 c #0F74B2",
"9 c #2D4757",
"0 c #118FD9",
/* pixels */
"................................................................",
".2...211+++++2222+++++++++.+177OOOOOOOOOOO71+2+;;;;;;;++++++1;2.",
".....;**31OOO;22;OOOOOOOO;21$86$$$$$$$$$$68$1+X&&&&&&37OOO13**;.",
"...2;3$$&XXXXO++OXXXXXXXXO2780############0#X+&******&3XXXX&6$O.",
"...;*$*&3XXXXO++OXXXXXXXXO2O6#############0#X+&*****&3XXXXX&6$O.",
".2;3$$&7XXXXXO++OXXXX77XX12O$##############$71*$*&*&3XXXXX7&6$O.",
".1*$*&XXXXXXXO++OXX79::9XO21$#####8#8#8##8*9:9$6&333XXXXXX7&6$O.",
".1*$&77XXXXXXO++1XX7:::9XO2O$############69<<9$$&77XXXXXXX&*6$O.",
".+3&X77XXXXXX1++1XX7::7XXO+O$############69<%;3&X777XXX77&$88$O.",
".+3&&&&&&&&&&3++3&X9:<1;;+.2&$$$$*$*$*$$6$9<2+3&&&&&&&&&&*8##$O.",
".1*6666666668*;1*$9::<-5@,,,5555555555.299:<2;*666666666688##$O.",
".;*$6$$$$$$$$*;;**9::<->o         o o  @4::<%1*$6$$$$$$$$$$$$*;.",
".2;OOOOOOOOOO;22;O::::<%@              @4:::<<OOOOOOOOO7OOOOO;2.",
".222222+;O111;+2..<:::<-,             o@4::<<%5.+;1OO;2...22222.",
".2;OO113*$$$$*3;5=4::<-@o             o@4::4=,o5O*$66*;..2;OO;2.",
".+OXXXX&$6$$8632@>4::4>o              o>4::4@  ,;&$88*1..+OXXO+.",
".+OXXXX3&37&6$+,o>4::4>oooooooooooooooo>4::4@  o,.3*&3+..+OXXO+.",
".+OXXXXXX12;&35 o@4::<->>@>>>>>>>>>>@>>-<::4>o   ,.1777;2+OXXO+.",
".+1XXXXXXO+..5o o>4::<<4444444444444444<:::4>o    ,51&**;2OXXO+.",
".+3&&&&&31.5o   o@4::::::::::::::::::::::::4>o     ,.36$O21XXO+.",
".1*6666$&;5o    o@%<:::::::::::::::::::::::4>o      o+$6721XXO+.",
".;*$$$$*7.,     o@%<:<<4<4<<<4<<4<<<4<4<<::4>o       53&;2OXXO+.",
".2;1OOO+5,      o@%<:<->>@>@>>>>>>>>@>>-<::4>o       o5..+OXXO+.",
".+1122;2,       o@%<:4>oooooooooooooooo>4::4>o         o5+OXXO+.",
".O$$1;*&5       o@%<<%@o              o@%<:4>o         o5+OXXO+.",
".X##X1$*5       o@%<<%@o              o@%<:4>o         ,5+7337+.",
".X#8X+375       o@%<<%>,oooooooooooooo,>%<<%>o         o5;3**3+.",
".X8#X.+.,       o@%<<%->>@@@@@@@@@@@@>>-4<<%@o         o5+&**&;.",
".X8#X55,        o@%<44%%%%%%%%%%%%%%%%%44<<%@o          o53**&;.",
".X##X5o         o@%444<<<<<<<<<<<<<<<<<<<<<%@o           5X**&;.",
".X##X5o         o@-4%4<<<<<<<<<<<<<<<<<<<<4-@o           53**&;.",
".O$$O5o         o@-%%%%%%%%%%%%%%%%%%%%44<4-@o           ,O&&X+.",
".+OO+5o         o@-%4%=>>@@@@@@@@@@@@>>-4<4-@o           ,.;;+2.",
"..22+.,         o@-%%->,oooooooooooooo,>%44-@o           ,+OO;2.",
".2;OO+,         o@-%4-@o              o@-44-@o           5&66*;.",
".+OX3;,         o@-%%-@o              o@-%%-@o           5$##$O.",
".+OXX;,         o@-%4->,oooooooooooooo,>-%4-@o           5*##$O.",
".+OXX15,        o@-%%%=>@@@@@@@@@@@@@>>=%4%-@o           5&66*;.",
".+OXX71.,       o@-%%%%----------------%%%4-@o           ,O&&X+.",
".2;OOO7+,       o@=%%%%4%4%%%%%%%%%%%%%%%%%-@o          ,5;XX1+.",
".2222++.,       o@=%%%%%%%%%%%%%%%%%%%%%%%%-@o         ,.;OXX1+.",
".2;OO125,       o@-%-----============-----%=@o         57&&&&3+.",
".;*66*15,       o@-%%-=>@@@@@@@@@@@@@@>=-%%-@o         5*8666*1.",
".O$##6O55,o     o@=--->@oooooooooooooo@>---=@o        o5&$$$$*;.",
".O$##$O2+.,     o@=---@o             oo@---=@o       o5.;OOOO;2.",
".O$##$O+X7.,    o@>=-=@,o            o,@=-==@o     o,.+;;+++++2.",
".O$##$O+3&O.,   o@====>@,oooooooooooo,@>==-=@,     ,;3&&&&&&&X+.",
".O$##$O;&*&15,  ,@======>@@>>>>>>>>>@>======@,   o,2&***&*&*$*;.",
".O$##$O;&*371., ,>=========-------------====@,   ,;&****&33&6$O.",
".O$##$O+3&3XX15,,@========--------------====>,  ,.3*&**&3X&*$*1.",
".O$##$O+73XXX712@@>========------------=-===>, ,.1X33333X&$$3;2.",
".O$##$O21XXXXXX1.>>========>=>=>=>=>=>======@, ,;3XXXXX3&*$*;...",
".O$##$O21XXXXXX712>@=====>@@@@@@@@@@@@>=====@o ,;3XXXXX&$$3;2...",
".O$##$O21XXXXXXXX15@@>>>@,,,,,,,ooo,o,,@>>>@,oo5+OOO1113**;.....",
".O$##$O21XXXXXXXXO25,ooooo            oo,,,ooo5.2+++222+1;2.....",
".;*6#$O+73XXXXXXXO+....5,oooooo,55,,,,,,@55555+;;+2217OO1O7X712.",
".2;&6$O+3&3XXXXXX12;&$$&+555555+&&7++;;;;1X333&&&X+1$86$$6886*1.",
".2;&6$O+&*&3XXXX37+O$#8*7++++++O$$&XXXXXX3&******&+X#0####0006O.",
".;*6#$O+&**&3XX3&3+O$8*&7OOOOOOX&&3XXXXXXX333&***&+X80#######$O.",
".1$##$O+&***&3X3&3+O$6&7XXXXXXXXXXXXXXXXXXXXX3***&+X80#######$O.",
".;*6#$O+&****&3X37+O$6&XXXXXXXXXXXXXXXXXXXXXX3***&+X#0#######6O.",
".+X*$*;+X&&&&37OO;2;**31OOOOOOOOOOOOOOOOOOOOO73&&X+1$86$$$$$$*;.",
".2+;1;22+;;;;;+++2.2;1+++++++++++++++++++++++++;;+2+17OOOOO7O;2.",
"................................................................"
};
